<?xml version="1.0" encoding="UTF-8"?>
<svg width="31px" height="36px" viewBox="0 0 31 36" version="1.1" xmlns="http://www.w3.org/2000/svg" xmlns:xlink="http://www.w3.org/1999/xlink">
    <!-- Generator: Sketch 50.2 (55047) - http://www.bohemiancoding.com/sketch -->
    <title>person2</title>
    <desc>Created with Sketch.</desc>
    <defs></defs>
    <g id="Page-1" stroke="none" stroke-width="1" fill="none" fill-rule="evenodd">
        <g id="Restaurant-Copy-2" transform="translate(-316.000000, -224.000000)">
            <g id="person2" transform="translate(315.000000, 225.000000)">
                <path d="M30.5515866,21.22905 C30.5515866,19.9892167 29.6538641,19.0020083 28.4826871,18.7583417 L28.4826871,17.1082167 C28.4826871,10.280175 22.9254431,4.74571667 16.06929,4.74571667 C9.21313684,4.74571667 3.65409378,10.280175 3.65409378,17.1082167 L3.65409378,18.7583417 C2.48291675,19.0020083 1.58519426,19.9892167 1.58519426,21.22905 C1.58519426,22.5602583 2.61424689,23.6191333 3.91495502,23.7535083 C5.08613206,29.3703833 10.0820746,33.59155 16.06929,33.59155 C22.0547062,33.59155 27.0524478,29.3703833 28.2218258,23.7535083 C29.524333,23.6191333 30.5515866,22.5602583 30.5515866,21.22905" id="Fill-81" fill="#FFCEBF"></path>
                <path d="M30.5515866,21.22905 C30.5515866,19.9892167 29.6538641,19.0020083 28.4826871,18.7583417 L28.4826871,17.1082167 C28.4826871,10.280175 22.9254431,4.74571667 16.06929,4.74571667 C9.21313684,4.74571667 3.65409378,10.280175 3.65409378,17.1082167 L3.65409378,18.7583417 C2.48291675,19.0020083 1.58519426,19.9892167 1.58519426,21.22905 C1.58519426,22.5602583 2.61424689,23.6191333 3.91495502,23.7535083 C5.08613206,29.3703833 10.0820746,33.59155 16.06929,33.59155 C22.0547062,33.59155 27.0524478,29.3703833 28.2218258,23.7535083 C29.524333,23.6191333 30.5515866,22.5602583 30.5515866,21.22905 Z" id="Stroke-83" stroke="#45413C" stroke-linecap="round" stroke-linejoin="round"></path>
                <path d="M10.8965014,22.7740042 C10.8965014,23.6286292 10.2020708,24.3202125 9.34392727,24.3202125 C8.48758278,24.3202125 7.79315215,23.6286292 7.79315215,22.7740042 C7.79315215,21.9211708 8.48758278,21.2295875 9.34392727,21.2295875 C10.2020708,21.2295875 10.8965014,21.9211708 10.8965014,22.7740042" id="Fill-85" fill="#FFB59E"></path>
                <path d="M24.3445282,22.7740042 C24.3445282,23.6286292 23.6482986,24.3202125 22.7937531,24.3202125 C21.9356096,24.3202125 21.2393799,23.6286292 21.2393799,22.7740042 C21.2393799,21.9211708 21.9356096,21.2295875 22.7937531,21.2295875 C23.6482986,21.2295875 24.3445282,21.9211708 24.3445282,22.7740042" id="Fill-87" fill="#FFB59E"></path>
                <path d="M12.965401,26.4745125 C14.8436019,27.7215125 17.2920995,27.7215125 19.1720995,26.4745125" id="Stroke-89" stroke="#45413C" stroke-linecap="round" stroke-linejoin="round"></path>
                <path d="M11.4139062,17.1942167 C10.5557627,17.1942167 9.86133206,17.8858 9.86133206,18.7386333 C9.86133206,19.5914667 10.5557627,20.2848417 11.4139062,20.2848417 C12.2702507,20.2848417 12.9646813,19.5914667 12.9646813,18.7386333 C12.9646813,17.8858 12.2702507,17.1942167 11.4139062,17.1942167" id="Fill-91" fill="#45413C"></path>
                <path d="M20.7237742,17.1942167 C19.8656306,17.1942167 19.172999,17.8858 19.172999,18.7386333 C19.172999,19.5914667 19.8656306,20.2848417 20.7237742,20.2848417 C21.5819177,20.2848417 22.2745493,19.5914667 22.2745493,18.7386333 C22.2745493,17.8858 21.5819177,17.1942167 20.7237742,17.1942167" id="Fill-93" fill="#45413C"></path>
                <path d="M15.6673837,0.2144125 C8.19595789,0.4401625 2.43722105,6.9331625 2.43722105,14.3775375 L2.43722105,16.6619125 C2.43722105,17.3947042 3.18022584,17.8927875 3.86206316,17.6168708 C5.86439809,16.8070375 9.26279043,14.9007042 9.26279043,11.3012458 C14.2047617,16.0742458 22.3958048,15.8001208 28.0933742,14.2843708 C29.1062354,14.0156208 29.7646852,13.0409542 29.6279579,12.0053708 C28.7230392,5.21137083 22.7843981,-0.0005875 15.6673837,0.2144125" id="Fill-95" fill="#FFDF3D"></path>
                <path d="M15.6673837,5.3341 C21.6258144,5.15314167 26.7440919,8.78126667 28.7878048,13.9520167 C29.3886852,13.5130583 29.7287043,12.7766833 29.6279579,12.0062667 C28.7230392,5.21226667 22.7843981,-0.00148333333 15.6673837,0.215308333 C8.19595789,0.441058333 2.43722105,6.93226667 2.43722105,14.3766417 L2.43722105,16.6610167 C2.43722105,16.8813917 2.51817799,17.067725 2.62971866,17.2325583 C3.65697225,10.7825583 8.96594833,5.53655833 15.6673837,5.3341" id="Fill-97" fill="#FFEF9E"></path>
                <path d="M15.6673837,0.2144125 C8.19595789,0.4401625 2.43722105,6.9331625 2.43722105,14.3775375 L2.43722105,16.6619125 C2.43722105,17.3947042 3.18022584,17.8927875 3.86206316,17.6168708 C5.86439809,16.8070375 9.26279043,14.9007042 9.26279043,11.3012458 C14.2047617,16.0742458 22.3958048,15.8001208 28.0933742,14.2843708 C29.1062354,14.0156208 29.7646852,13.0409542 29.6279579,12.0053708 C28.7230392,5.21137083 22.7843981,-0.0005875 15.6673837,0.2144125 Z" id="Stroke-99" stroke="#45413C" stroke-linecap="round" stroke-linejoin="round"></path>
            </g>
        </g>
    </g>
</svg>