<?xml version="1.0" encoding="UTF-8"?>
<svg width="41px" height="51px" viewBox="0 0 41 51" version="1.1" xmlns="http://www.w3.org/2000/svg" xmlns:xlink="http://www.w3.org/1999/xlink">
    <!-- Generator: Sketch 50.2 (55047) - http://www.bohemiancoding.com/sketch -->
    <title>acorn</title>
    <desc>Created with Sketch.</desc>
    <defs></defs>
    <g id="Page-1" stroke="none" stroke-width="1" fill="none" fill-rule="evenodd">
        <g id="acorn">
            <ellipse id="shadow" fill="#45413C" fill-rule="nonzero" opacity="0.15" cx="22.2" cy="48.7" rx="13.2" ry="1.7"></ellipse>
            <path d="M6.2129,34.2578 C2.5919,20.5778 9.5119,19.0378 18.4939,16.4738 C27.4769,13.9078 36.3589,17.4298 38.5429,25.0828 C41.6339,35.9068 30.0819,40.9788 27.8629,47.4558 C27.7249,47.8598 27.2299,47.9988 26.8999,47.7288 C21.6309,43.3808 9.0669,45.0428 6.2129,34.2578" id="Fill-4" fill="#BF8256"></path>
            <path d="M36.9414,31.2314 C31.9454,39.5574 23.1104,41.0964 13.4554,38.6834 C10.2364,37.8784 6.9944,34.4554 5.8374,30.4064 C5.7594,30.1314 5.7134,29.8574 5.6564,29.5844 C5.4614,31.1494 5.6704,32.6724 6.2124,34.2574 C11.0414,48.3384 21.6304,43.3804 26.9004,47.7284 C27.2294,47.9994 27.7244,47.8594 27.8634,47.4564 C30.0134,41.1774 43.6284,38.6834 38.7894,26.0694 C38.5544,27.9624 37.8794,29.6684 36.9414,31.2314" id="Fill-6" fill="#DEA47A"></path>
            <path d="M6.2129,34.2578 C2.6119,21.6558 9.5119,19.0378 18.4939,16.4738 C27.4769,13.9078 36.3869,15.7508 39.2029,25.8088 C43.1509,39.9088 30.0819,40.9788 27.8629,47.4558 C27.7249,47.8598 27.2299,47.9988 26.8999,47.7288 C21.6309,43.3808 10.2359,48.3388 6.2129,34.2578 Z" id="Stroke-8" stroke="#45413C" stroke-linecap="round" stroke-linejoin="round"></path>
            <path d="M17.333,0.5 C16,0.517 14.998,5.329 14.478,6.402 C13.958,7.477 7.817,7.319 3.365,12.951 C-0.044,17.262 -1.288,23.947 4.635,28.133 C4.635,28.133 3.479,26.003 8.045,23.822 C11.486,22.177 17.246,20.544 21.859,19.905 C26.116,19.314 36.228,17.58 38.149,21.82 C38.149,21.82 42.393,17.547 38.008,11.156 C32.568,3.229 21.939,6.037 21.127,4.981 C20.312,3.925 18.666,0.481 17.333,0.5" id="Fill-10" fill="#5E330F"></path>
            <path d="M17.333,0.5 C16,0.517 14.998,5.329 14.478,6.402 C13.958,7.477 7.817,7.319 3.365,12.951 C-0.044,17.262 -1.288,23.947 4.635,28.133 C4.635,28.133 3.479,26.003 8.045,23.822 C11.486,22.177 17.246,20.544 21.859,19.905 C26.116,19.314 36.228,17.58 38.149,21.82 C38.149,21.82 42.393,17.547 38.008,11.156 C32.568,3.229 21.939,6.037 21.127,4.981 C20.312,3.925 18.666,0.481 17.333,0.5 Z" id="Stroke-12" stroke="#45413C" stroke-linecap="round" stroke-linejoin="round"></path>
        </g>
    </g>
</svg>