<?xml version="1.0" encoding="UTF-8"?>
<svg width="52px" height="55px" viewBox="0 0 52 55" version="1.1" xmlns="http://www.w3.org/2000/svg" xmlns:xlink="http://www.w3.org/1999/xlink">
    <!-- Generator: Sketch 52.5 (67469) - http://www.bohemiancoding.com/sketch -->
    <title>Group 3 Copy</title>
    <desc>Created with Sketch.</desc>
    <g id="SF-1-10" stroke="none" stroke-width="1" fill="none" fill-rule="evenodd">
        <g id="First-Clue" transform="translate(-314.000000, -602.000000)">
            <g id="Group-3-Copy" transform="translate(315.000000, 603.000000)">
                <path d="M17.9411765,7.35153718 C18.5823135,5.48603097 19.2503993,4.03662373 19.9454337,3.00331544 C20.9879855,1.453353 22.2665623,2.80340092e-14 25.5380058,2.84217094e-14 C28.8094493,2.84248977e-14 30.2864661,1.64442528 30.9260699,3.24784386 C31.3524725,4.31678958 31.5921592,6.28945741 31.6451302,9.16584735 L28.4454337,7.76179313 C28.5545384,6.2597999 28.5153227,5.08626422 28.3277867,4.24118609 C28.0464826,2.97356891 26.5636599,2.24505307 24.7931533,2.47918808 C23.0226468,2.7133231 22.5759369,3.85850019 22.2271505,4.58292368 C21.9946262,5.06587267 21.7408378,5.87640403 21.4657854,7.01451777 L17.9411765,7.35153718 Z" id="Path-7" stroke="#384054" stroke-width="0.882352941" fill="#384054" stroke-linecap="round" stroke-linejoin="round"></path>
                <path d="M32.0588235,8.97223723 C33.9519361,7.1420342 35.5847668,6.15260949 36.9573159,6.0039631 C39.0161394,5.78099351 40.6471779,6.79542386 41.3904404,8.51803361 C42.1337029,10.2406434 45.0642719,19.6209493 46.4378202,25.4713234 C47.8113685,31.3216976 49.8930607,40.5843864 49.8930607,42.1205624 C49.8930607,43.6567384 48.4425401,44.8409782 46.9037091,45.2989587 C45.3648782,45.7569392 43.8224567,46.0468043 41.3904404,43.7148392 C39.7690962,42.1601958 38.7447324,40.9358962 38.317349,40.0419406 L38.317349,35.1470048 C39.9028757,36.7028074 41.1383001,37.8005239 42.0236219,38.4401541 C42.9089438,39.0797843 43.8009704,39.5191156 44.6997019,39.758148 C43.8666506,33.2221181 43.1406964,28.732247 42.5218394,26.2885347 C41.5935537,22.6229663 38.9812127,10.592439 37.8815112,9.75404032 C37.1483768,9.19510789 36.0289502,9.87402363 34.5232313,11.7907875 L32.0588235,8.97223723 Z" id="Path-9" stroke="#384054" stroke-width="0.882352941" fill="#384054" stroke-linecap="round" stroke-linejoin="round"></path>
                <path d="M5.67422258,21.9782507 C6.56442022,15.4110878 8.93020722,10.9059368 12.7715836,8.46279779 C18.5336481,4.79808924 30.7638228,5.35317152 34.5294118,11.0889181 C38.2950007,16.8246646 38.582185,30.1426328 38.8235294,33.656445 C39.0648738,37.1702571 40.2352941,46.7705196 36.4705882,48.569581 C34.7033703,49.4140916 28.1464967,52.7126408 24.5677582,52.7126408 C12.0610476,52.7126408 9.96384422,52.6154241 5.67422258,50.4982623 C2.81447483,49.086821 2.81447483,39.5801505 5.67422258,21.9782507 Z" id="Path-Copy" stroke="#384054" stroke-width="0.882352941" fill="#86A8B0" stroke-linecap="round" stroke-linejoin="round"></path>
                <path d="M5.33766452,22.9937272 C6.11294388,17.0814678 8.11988241,12.9426793 11.3584801,10.5773617 C16.2163766,7.02938534 26.0574619,7.08017768 29.6868611,13.273333 C33.3162604,19.4664882 33.6525846,39.4649073 33.5349375,42.6992117 C33.4172905,45.933516 34.9374082,52.698625 24.3932176,52.698625 C13.8490271,52.698625 8.95417003,52.6550128 5.33766452,50.605289 C2.92666085,49.2388065 2.92666085,40.0349526 5.33766452,22.9937272 Z" id="Path" stroke="#384054" stroke-width="0.882352941" fill="#B3D8E1" stroke-linecap="round" stroke-linejoin="round"></path>
                <path d="M0.785609473,33.7080144 C0.795350669,29.7318403 1.67237354,24.3038674 7.57722967,24.3038674 C13.4820858,24.3038674 18.7553733,24.7323603 22.6463267,25.1562503 C26.5372801,25.5801403 29.307692,27.6481112 29.307692,32.5027624 C29.307692,37.3574136 30.1123524,45.0085599 29.307692,47.7573412 C28.5030316,50.5061225 26.6033305,52.6895528 21.6648812,52.6895528 C16.7264319,52.6895528 10.0523603,52.0673145 5.81282666,51.4911751 C1.57329304,50.9150358 0.588235294,48.2848851 0.588235294,44.5087815 C0.588235294,40.7326778 0.775868276,37.6841886 0.785609473,33.7080144 Z" id="Path-6-Copy-2" fill="#384054"></path>
                <path d="M0.179563007,34.4912444 C0.188425152,30.6791381 0.986304925,25.4751381 6.35830308,25.4751381 C11.7303012,25.4751381 16.5277239,25.8859502 20.0675552,26.2923494 C23.6073865,26.6987486 26.6618891,27.8112078 26.6618891,32.4655429 C26.6618891,37.119878 26.859842,45.3254986 26.1277947,47.9608577 C25.3957473,50.5962168 23.6674765,52.6895528 19.174676,52.6895528 C14.6818755,52.6895528 8.61007632,52.0929897 4.75312092,51.5406235 C0.896165512,50.9882572 -4.94993141e-14,48.4666337 -4.97379915e-14,44.8463424 C-4.97379915e-14,41.2260511 0.170700862,38.3033508 0.179563007,34.4912444 Z" id="Path-6" stroke="#384054" stroke-width="1.17647059" fill="#B3D8E1" stroke-linecap="round" stroke-linejoin="round"></path>
                <path d="M5.40974976,32.5027624 C8.81377723,32.8265349 11.4440252,33.0220468 13.3004936,33.0892983 C15.156962,33.1565499 17.7128239,33.2542254 20.9680791,33.382325 L20.9680791,37.783278 C17.4961129,37.7524792 14.7878175,37.6854256 12.843193,37.5821171 C10.8985685,37.4788086 8.28417083,37.2503765 5,36.8968208 L5.40974976,32.5027624 Z" id="Path-8" stroke="#384054" stroke-width="0.882352941" fill="#F0FCFF" stroke-linecap="round" stroke-linejoin="round"></path>
                <path d="M14.1176471,7.87100458 C15.9365493,7.247051 17.3725501,6.88970293 18.4256492,6.79896037 C20.2024849,6.6458555 22.9356565,6.7824846 24.476267,7.04281299 C28.8416414,7.78046269 31.5962487,10.7040422 32.8867845,13.5496576 C33.7471417,15.4467346 34.4044966,18.0188899 34.858849,21.2661235" id="Path-10" stroke="#384054" stroke-width="0.882352941" stroke-linecap="round" stroke-linejoin="round"></path>
            </g>
        </g>
    </g>
</svg>