<?xml version="1.0" encoding="UTF-8"?>
<svg width="44px" height="38px" viewBox="0 0 44 38" version="1.1" xmlns="http://www.w3.org/2000/svg" xmlns:xlink="http://www.w3.org/1999/xlink">
    <!-- Generator: Sketch 50.2 (55047) - http://www.bohemiancoding.com/sketch -->
    <title>Group</title>
    <desc>Created with Sketch.</desc>
    <defs></defs>
    <g id="Page-1" stroke="none" stroke-width="1" fill="none" fill-rule="evenodd">
        <g id="Group" transform="translate(1.000000, 1.000000)">
            <path d="M40,2.4 L23,1.6 L23,3.2 L19,3.2 L19,1.6 L2,2.4 C0.9,2.5 0.1,3.3 0.1,4.4 L0.1,31.4 C0.1,32.6 1.1,33.5 2.2,33.4 L15.6,32.6 C16,32.6 16.4,32.8 16.5,33.1 C16.8,33.8 17.5,34 18.4,34 L23.4,34 C24.3,34 25,33.7 25.3,33.1 C25.4,32.7 25.9,32.5 26.2,32.6 L39.6,33.4 C40.8,33.5 41.7,32.6 41.7,31.4 L41.7,4.4 C41.9,3.3 41.1,2.5 40,2.4 Z" id="Shape" fill="#00B8F0" fill-rule="nonzero"></path>
            <path d="M40,2.4 L23,1.6 L23,3.2 L19,3.2 L19,1.6 L2,2.4 C0.9,2.5 0.1,3.3 0.1,4.4 L0.1,7.9 C0.1,6.8 0.9,6 2,5.9 L21,5 L40,5.9 C41.1,6 41.9,6.8 41.9,7.9 L41.9,4.4 C41.9,3.3 41.1,2.5 40,2.4 Z" id="Shape" fill="#4ACFFF" fill-rule="nonzero"></path>
            <path d="M40,2.4 L23,1.6 L23,3.2 L19,3.2 L19,1.6 L2,2.4 C0.9,2.5 0.1,3.3 0.1,4.4 L0.1,31.4 C0.1,32.6 1.1,33.5 2.2,33.4 L15.6,32.6 C16,32.6 16.4,32.8 16.5,33.1 C16.8,33.8 17.5,34 18.4,34 L23.4,34 C24.3,34 25,33.7 25.3,33.1 C25.4,32.7 25.9,32.5 26.2,32.6 L39.6,33.4 C40.8,33.5 41.7,32.6 41.7,31.4 L41.7,4.4 C41.9,3.3 41.1,2.5 40,2.4 Z" id="Shape" stroke="#45413C" stroke-linecap="round" stroke-linejoin="round"></path>
            <path d="M22.5,31.5 L19.6,31.5 C18.8,31.5 18.1,30.8 18.1,30 L18.1,28 L24.1,28 L24.1,30 C24,30.8 23.3,31.5 22.5,31.5 Z" id="XMLID_17263_" stroke="#45413C" fill="#627B8C" fill-rule="nonzero" stroke-linecap="round" stroke-linejoin="round"></path>
            <ellipse id="XMLID_17262_" fill="#45413C" fill-rule="nonzero" opacity="0.15" cx="21" cy="35.5" rx="17" ry="1.5"></ellipse>
            <path d="M5.6,1.5 L3.4,4.2 C3.2,4.5 3.1,4.9 3.1,5.3 L3.1,30.9 L5.6,27.2 L5.6,1.5 Z" id="XMLID_17261_" fill="#FFFEF2" fill-rule="nonzero"></path>
            <path d="M36.4,1.5 L38.6,4.2 C38.8,4.5 38.9,4.9 38.9,5.3 L38.9,30.9 L36.4,27.2 L36.4,1.5 Z" id="XMLID_17260_" fill="#FFFEF2" fill-rule="nonzero"></path>
            <path d="M3.4,4.2 C3.2,4.5 3.1,4.9 3.1,5.3 L3.1,8.8 C3.1,8.4 3.2,8 3.4,7.7 L5.6,5 L5.6,1.5 L3.4,4.2 Z" id="XMLID_17259_" fill="#FFFFFF" fill-rule="nonzero"></path>
            <path d="M38.6,4.2 L36.4,1.5 L36.4,5 L38.6,7.7 C38.8,8 38.9,8.4 38.9,8.8 L38.9,5.3 C38.9,5 38.8,4.6 38.6,4.2 Z" id="XMLID_17258_" fill="#FFFFFF" fill-rule="nonzero"></path>
            <path d="M5.6,1.5 L3.4,4.2 C3.2,4.5 3.1,4.9 3.1,5.3 L3.1,30.9 L5.6,27.2 L5.6,1.5 Z" id="XMLID_17257_" stroke="#45413C" stroke-linecap="round" stroke-linejoin="round"></path>
            <path d="M36.4,1.5 L38.6,4.2 C38.8,4.5 38.9,4.9 38.9,5.3 L38.9,30.9 L36.4,27.2 L36.4,1.5 Z" id="XMLID_17256_" stroke="#45413C" stroke-linecap="round" stroke-linejoin="round"></path>
            <path d="M21,29 L21,3 C21,1.3 19.7,0 18,0 L6.5,0.9 C6,0.9 5.6,1.5 5.6,1.5 L5.6,30.5 L18.2,30.1 C18.7,29.5 19.7,29 21,29 Z" id="XMLID_17255_" fill="#FFFEF2" fill-rule="nonzero"></path>
            <path d="M24,0 C22.3,0 21,1.3 21,3 L21,29 C22.3,29 23.3,29.5 23.8,30.1 L36.4,30.5 L36.4,1.5 C36.4,1.5 36,1 35.5,0.9 L24,0 Z" id="XMLID_17254_" fill="#FFFEF2" fill-rule="nonzero"></path>
            <path d="M18,0 L6.5,0.9 C6,0.9 5.6,1.5 5.6,1.5 L5.6,4.4 C5.6,3.9 6,3.4 6.5,3.4 L18,2.5 C19.7,2.5 21,3.8 21,5.5 L21,3 C21,1.3 19.7,0 18,0 Z" id="XMLID_17253_" fill="#FFFFFF" fill-rule="nonzero"></path>
            <path d="M35.5,0.9 L24,0 C22.3,0 21,1.3 21,3 L21,5.5 C21,3.8 22.3,2.5 24,2.5 L35.5,3.4 C36,3.4 36.4,3.9 36.4,4.4 L36.4,1.5 C36.4,1.5 36,1 35.5,0.9 Z" id="XMLID_17252_" fill="#FFFFFF" fill-rule="nonzero"></path>
            <path d="M21,29 L21,3 C21,1.3 19.7,0 18,0 L6.5,0.9 C6,0.9 5.6,1.5 5.6,1.5 L5.6,30.5 L18.2,30.1 C18.7,29.5 19.7,29 21,29 Z" id="XMLID_17251_" stroke="#45413C" stroke-linecap="round" stroke-linejoin="round"></path>
            <path d="M24,0 C22.3,0 21,1.3 21,3 L21,29 C22.3,29 23.3,29.5 23.8,30.1 L36.4,30.5 L36.4,1.5 C36.4,1.5 36,1 35.5,0.9 L24,0 Z" id="XMLID_17250_" stroke="#45413C" stroke-linecap="round" stroke-linejoin="round"></path>
            <path d="M21,29 C20.8,27.6 19.5,26.5 18,26.5 L5.6,27.3 L3.1,31 L18.2,30.2 C18.6,29.5 19.7,29 21,29 Z" id="XMLID_17249_" stroke="#45413C" fill="#FFFCE5" fill-rule="nonzero" stroke-linecap="round" stroke-linejoin="round"></path>
            <path d="M23.8,30.2 L38.9,31 L36.4,27.3 L24,26.5 C22.5,26.5 21.3,27.6 21,29 C22.3,29 23.4,29.5 23.8,30.2 Z" id="XMLID_17248_" stroke="#45413C" fill="#FFFCE5" fill-rule="nonzero" stroke-linecap="round" stroke-linejoin="round"></path>
            <path d="M17.5,3.5 L8.5,4.4" id="XMLID_17247_" stroke="#45413C" stroke-linecap="round" stroke-linejoin="round"></path>
            <path d="M17.5,7.3 L8.5,8.2" id="XMLID_17246_" stroke="#45413C" stroke-linecap="round" stroke-linejoin="round"></path>
            <path d="M17.5,11.2 L8.5,12" id="XMLID_17245_" stroke="#45413C" stroke-linecap="round" stroke-linejoin="round"></path>
            <path d="M17.5,15 L8.5,15.8" id="XMLID_17244_" stroke="#45413C" stroke-linecap="round" stroke-linejoin="round"></path>
            <path d="M17.5,18.8 L8.5,19.7" id="XMLID_17243_" stroke="#45413C" stroke-linecap="round" stroke-linejoin="round"></path>
            <path d="M17.5,22.6 L8.5,23.5" id="XMLID_17242_" stroke="#45413C" stroke-linecap="round" stroke-linejoin="round"></path>
            <path d="M24.5,3.5 L33.5,4.4" id="XMLID_17241_" stroke="#45413C" stroke-linecap="round" stroke-linejoin="round"></path>
            <path d="M24.5,7.3 L33.5,8.2" id="XMLID_17240_" stroke="#45413C" stroke-linecap="round" stroke-linejoin="round"></path>
            <path d="M24.5,11.2 L33.5,12" id="XMLID_17239_" stroke="#45413C" stroke-linecap="round" stroke-linejoin="round"></path>
            <path d="M24.5,15 L33.5,15.8" id="XMLID_17238_" stroke="#45413C" stroke-linecap="round" stroke-linejoin="round"></path>
            <path d="M24.5,18.8 L33.5,19.7" id="XMLID_17237_" stroke="#45413C" stroke-linecap="round" stroke-linejoin="round"></path>
            <path d="M24.5,22.6 L33.5,23.5" id="XMLID_17236_" stroke="#45413C" stroke-linecap="round" stroke-linejoin="round"></path>
        </g>
    </g>
</svg>