<?xml version="1.0" encoding="UTF-8"?>
<svg width="32px" height="32px" viewBox="0 0 32 32" version="1.1" xmlns="http://www.w3.org/2000/svg" xmlns:xlink="http://www.w3.org/1999/xlink">
    <!-- Generator: Sketch 50.2 (55047) - http://www.bohemiancoding.com/sketch -->
    <title>Close Button</title>
    <desc>Created with Sketch.</desc>
    <defs></defs>
    <g id="Close-Button" stroke="none" stroke-width="1" fill="none" fill-rule="evenodd">
        <g fill="#000000" fill-opacity="0.8" id="Combined-Shape">
            <path d="M15.9889177,13.8675974 L10.6606602,8.53933983 C10.0748737,7.95355339 9.12512627,7.95355339 8.53933983,8.53933983 C7.95355339,9.12512627 7.95355339,10.0748737 8.53933983,10.6606602 L13.8675974,15.9889177 L8.53933983,21.3171753 C7.95355339,21.9029617 7.95355339,22.8527092 8.53933983,23.4384957 C9.12512627,24.0242821 10.0748737,24.0242821 10.6606602,23.4384957 L15.9889177,18.1102381 L21.3171753,23.4384957 C21.9029617,24.0242821 22.8527092,24.0242821 23.4384957,23.4384957 C24.0242821,22.8527092 24.0242821,21.9029617 23.4384957,21.3171753 L18.1102381,15.9889177 L23.4384957,10.6606602 C24.0242821,10.0748737 24.0242821,9.12512627 23.4384957,8.53933983 C22.8527092,7.95355339 21.9029617,7.95355339 21.3171753,8.53933983 L15.9889177,13.8675974 Z M16,32 C7.163444,32 0,24.836556 0,16 C0,7.163444 7.163444,0 16,0 C24.836556,0 32,7.163444 32,16 C32,24.836556 24.836556,32 16,32 Z"></path>
        </g>
        <path d="M15.9889177,13.8675974 L21.3171753,8.53933983 C21.9029617,7.95355339 22.8527092,7.95355339 23.4384957,8.53933983 C24.0242821,9.12512627 24.0242821,10.0748737 23.4384957,10.6606602 L18.1102381,15.9889177 L23.4384957,21.3171753 C24.0242821,21.9029617 24.0242821,22.8527092 23.4384957,23.4384957 C22.8527092,24.0242821 21.9029617,24.0242821 21.3171753,23.4384957 L15.9889177,18.1102381 L10.6606602,23.4384957 C10.0748737,24.0242821 9.12512627,24.0242821 8.53933983,23.4384957 C7.95355339,22.8527092 7.95355339,21.9029617 8.53933983,21.3171753 L13.8675974,15.9889177 L8.53933983,10.6606602 C7.95355339,10.0748737 7.95355339,9.12512627 8.53933983,8.53933983 C9.12512627,7.95355339 10.0748737,7.95355339 10.6606602,8.53933983 L15.9889177,13.8675974 Z" id="Combined-Shape" fill="#FFFFFF"></path>
    </g>
</svg>