<?xml version="1.0" encoding="UTF-8"?>
<svg width="64px" height="71px" viewBox="0 0 64 71" version="1.1" xmlns="http://www.w3.org/2000/svg" xmlns:xlink="http://www.w3.org/1999/xlink">
    <!-- Generator: Sketch 50.2 (55047) - http://www.bohemiancoding.com/sketch -->
    <title>Group 9</title>
    <desc>Created with Sketch.</desc>
    <defs></defs>
    <g id="Page-1" stroke="none" stroke-width="1" fill="none" fill-rule="evenodd">
        <g id="Group-9" transform="translate(-21.000000, -18.000000)">
            <g id="Group-Copy" transform="translate(53.000000, 53.000000) rotate(-25.000000) translate(-53.000000, -53.000000) translate(13.000000, 14.000000)">
                <polygon id="Path-6" stroke="#45413C" fill="#B48A68" stroke-linecap="round" stroke-linejoin="round" points="0 51.0661987 4.96602611 44.1030308 10.3497591 41.4477201 10.3497591 36.5541707 15.7585078 30.6180469 16.9565927 23.3178283 24.955243 18.2543934 28.4306998 11.2017817 31.2414503 11.2017817 31.2414503 7.26065715 36.4196412 0 62.9568661 15.5477747 68.1843232 21.5493249 73.2004213 21.5493249 80 25.5330993 68.8203098 39.9433441 68.1843232 44.1030308 62.9568661 48.1361341 55.2694214 60.5090186 44.6316142 68.1258145 41.5540862 78 14.7166177 60.5090186 13.1046089 57.2335796 6.61030566 55.3076574"></polygon>
                <polygon id="Path-8" fill="#E8C1A1" points="42 76 22.0449579 59.5585976 18.5810658 57.3005685 16.1218271 53.1915185 8.8210535 51.6825575 2.87667179 48 1 50.3244205 8.8210535 55.0439827 13.6929812 56.5339499 15.5910403 60.2990949"></polygon>
                <polygon id="Path-9" fill="#E8C1A1" points="36.3206197 1 62.4777968 15.7238391 67.588211 21.6531613 73.2044008 21.6531613 79 25.1949864 77.8332245 27 69.4184765 25.1949864 44.4414245 9.61408008 31 7.36436487"></polygon>
                <path d="M29.0360826,69 C24.5595647,59.8789372 23.0673921,51.9599309 24.5595647,45.2429812 C26.7978237,35.1675567 31.3683206,30.9070921 45.5555215,30.0551343 C55.0136555,29.4871624 63.4951483,26.4687843 71,21" id="Path-7" stroke="#A3632F"></path>
                <polygon id="Path-12" fill="#E8C1A1" points="72 34 65.9956164 40.0097159 58.2997315 38.0267482 64.5381296 43.1734823 56.349998 52.1061877 54 61 62.3515264 48.3894558 67.4878026 44.093481 68.3680382 40.0097159"></polygon>
                <polygon id="Path-6-Copy" stroke="#45413C" stroke-linecap="round" stroke-linejoin="round" points="0 51.0661987 4.96602611 44.1030308 10.3497591 41.4477201 10.3497591 36.5541707 15.7585078 30.6180469 16.9565927 23.3178283 24.955243 18.2543934 28.4306998 11.2017817 31.2414503 11.2017817 31.2414503 7.26065715 36.4196412 0 62.9568661 15.5477747 68.1843232 21.5493249 73.2004213 21.5493249 80 25.5330993 68.8203098 39.9433441 68.1843232 44.1030308 62.9568661 48.1361341 55.2694214 60.5090186 44.6316142 68.1258145 41.5540862 78 14.7166177 60.5090186 13.1046089 57.2335796 6.61030566 55.3076574"></polygon>
            </g>
            <path d="M55.924867,67.3408208 C54.9968864,70.5315828 52.0320651,70.7514048 50.5905052,68.5327103 C48.9398975,65.9922717 50.9286051,63.5671135 54.335911,64.0656015 C54.9961705,64.1621973 55.5370483,64.6781278 55.7056171,65.3721314 L55.9465005,66.3638568 C56.0245642,66.685248 56.0170675,67.0237991 55.924867,67.3408208 Z" id="Path-11" fill="#45413C" fill-rule="nonzero"></path>
            <path d="M46.2501318,39.9675215 C45.874823,40.8098336 44.8749155,41.1940262 44.0167758,40.8256396 C43.1586361,40.4572531 42.7672243,39.4757878 43.1425331,38.6334756 C45.896346,32.4530441 52.7299978,30.4748716 58.4139349,33.1906018 C64.3613601,36.032224 66.0082547,42.5200014 61.1567954,48.8708785 C59.5878493,50.9247314 58.344037,51.8891704 56.620112,52.6201105 C56.4892476,52.6755967 56.3651481,52.7264804 56.1772416,52.8023191 C54.6449331,53.4207557 54.0306228,53.7797062 52.8635614,54.9285427 C51.9177027,55.8596308 51.4676659,57.2830573 51.771147,58.1031993 C51.989626,58.6936275 51.9549319,58.6619631 52.1296863,58.6770578 C53.0627024,58.7576489 53.7525018,59.5653896 53.6703964,60.4811972 C53.588291,61.3970048 52.7653724,62.0740816 51.8323563,61.9934905 C50.2037766,61.8528188 49.2166622,60.9519048 48.5831121,59.2397684 C47.7884473,57.0922276 48.6527378,54.3585532 50.4617438,52.5777967 C51.9971017,51.0664151 52.9748911,50.4950785 54.8873751,49.7232038 C55.0582527,49.6542379 55.1668058,49.6097286 55.2750926,49.5638153 C56.4555225,49.0633158 57.2279172,48.4644091 58.4431076,46.8736454 C62.0094705,42.2050435 60.9712812,38.1152 56.9294405,36.1840475 C52.8938723,34.2558921 48.1881043,35.6180951 46.2501318,39.9675215 Z" id="Path-10" fill="#45413C" fill-rule="nonzero"></path>
        </g>
    </g>
</svg>