<?xml version="1.0" encoding="UTF-8"?>
<svg width="82px" height="80px" viewBox="0 0 82 80" version="1.1" xmlns="http://www.w3.org/2000/svg" xmlns:xlink="http://www.w3.org/1999/xlink">
    <!-- Generator: Sketch 50.2 (55047) - http://www.bohemiancoding.com/sketch -->
    <title>Group Copy</title>
    <desc>Created with Sketch.</desc>
    <defs></defs>
    <g id="Intro-Quest-Flow" stroke="none" stroke-width="1" fill="none" fill-rule="evenodd">
        <g id="LM-Quest-7-Copy" transform="translate(-147.000000, -454.000000)">
            <g id="Group-Copy" transform="translate(148.000000, 455.000000)">
                <polygon id="Path-6" stroke="#45413C" fill="#B48A68" stroke-linecap="round" stroke-linejoin="round" points="0 51.0661987 4.96602611 44.1030308 10.3497591 41.4477201 10.3497591 36.5541707 15.7585078 30.6180469 16.9565927 23.3178283 24.955243 18.2543934 28.4306998 11.2017817 31.2414503 11.2017817 31.2414503 7.26065715 36.4196412 0 62.9568661 15.5477747 68.1843232 21.5493249 73.2004213 21.5493249 80 25.5330993 68.8203098 39.9433441 68.1843232 44.1030308 62.9568661 48.1361341 55.2694214 60.5090186 44.6316142 68.1258145 41.5540862 78 14.7166177 60.5090186 13.1046089 57.2335796 6.61030566 55.3076574"></polygon>
                <polygon id="Path-8" fill="#E8C1A1" points="42 76 22.0449579 59.5585976 18.5810658 57.3005685 16.1218271 53.1915185 8.8210535 51.6825575 2.87667179 48 1 50.3244205 8.8210535 55.0439827 13.6929812 56.5339499 15.5910403 60.2990949"></polygon>
                <polygon id="Path-9" fill="#E8C1A1" points="36.3206197 1 62.4777968 15.7238391 67.588211 21.6531613 73.2044008 21.6531613 79 25.1949864 77.8332245 27 69.4184765 25.1949864 44.4414245 9.61408008 31 7.36436487"></polygon>
                <path d="M29.0360826,69 C24.5595647,59.8789372 23.0673921,51.9599309 24.5595647,45.2429812 C26.7978237,35.1675567 31.3683206,30.9070921 45.5555215,30.0551343 C55.0136555,29.4871624 63.4951483,26.4687843 71,21" id="Path-7" stroke="#A3632F"></path>
                <polygon id="Path-12" fill="#E8C1A1" points="72 34 65.9956164 40.0097159 58.2997315 38.0267482 64.5381296 43.1734823 56.349998 52.1061877 54 61 62.3515264 48.3894558 67.4878026 44.093481 68.3680382 40.0097159"></polygon>
                <polygon id="Path-6-Copy" stroke="#45413C" stroke-linecap="round" stroke-linejoin="round" points="0 51.0661987 4.96602611 44.1030308 10.3497591 41.4477201 10.3497591 36.5541707 15.7585078 30.6180469 16.9565927 23.3178283 24.955243 18.2543934 28.4306998 11.2017817 31.2414503 11.2017817 31.2414503 7.26065715 36.4196412 0 62.9568661 15.5477747 68.1843232 21.5493249 73.2004213 21.5493249 80 25.5330993 68.8203098 39.9433441 68.1843232 44.1030308 62.9568661 48.1361341 55.2694214 60.5090186 44.6316142 68.1258145 41.5540862 78 14.7166177 60.5090186 13.1046089 57.2335796 6.61030566 55.3076574"></polygon>
                <path d="M42.924867,53.3408208 C41.9968864,56.5315828 39.0320651,56.7514048 37.5905052,54.5327103 C35.9398975,51.9922717 37.9286051,49.5671135 41.335911,50.0656015 C41.9961705,50.1621973 42.5370483,50.6781278 42.7056171,51.3721314 L42.9465005,52.3638568 C43.0245642,52.685248 43.0170675,53.0237991 42.924867,53.3408208 Z" id="Path-11" fill="#FFFFFF" fill-rule="nonzero"></path>
                <path d="M33.2501318,25.9675215 C32.874823,26.8098336 31.8749155,27.1940262 31.0167758,26.8256396 C30.1586361,26.4572531 29.7672243,25.4757878 30.1425331,24.6334756 C32.896346,18.4530441 39.7299978,16.4748716 45.4139349,19.1906018 C51.3613601,22.032224 53.0082547,28.5200014 48.1567954,34.8708785 C46.5878493,36.9247314 45.344037,37.8891704 43.620112,38.6201105 C43.4892476,38.6755967 43.3651481,38.7264804 43.1772416,38.8023191 C41.6449331,39.4207557 41.0306228,39.7797062 39.8635614,40.9285427 C38.9177027,41.8596308 38.4676659,43.2830573 38.771147,44.1031993 C38.989626,44.6936275 38.9549319,44.6619631 39.1296863,44.6770578 C40.0627024,44.7576489 40.7525018,45.5653896 40.6703964,46.4811972 C40.588291,47.3970048 39.7653724,48.0740816 38.8323563,47.9934905 C37.2037766,47.8528188 36.2166622,46.9519048 35.5831121,45.2397684 C34.7884473,43.0922276 35.6527378,40.3585532 37.4617438,38.5777967 C38.9971017,37.0664151 39.9748911,36.4950785 41.8873751,35.7232038 C42.0582527,35.6542379 42.1668058,35.6097286 42.2750926,35.5638153 C43.4555225,35.0633158 44.2279172,34.4644091 45.4431076,32.8736454 C49.0094705,28.2050435 47.9712812,24.1152 43.9294405,22.1840475 C39.8938723,20.2558921 35.1881043,21.6180951 33.2501318,25.9675215 Z" id="Path-10" fill="#FFFFFF" fill-rule="nonzero"></path>
            </g>
        </g>
    </g>
</svg>