<?xml version="1.0" encoding="UTF-8"?>
<svg width="45px" height="45px" viewBox="0 0 45 45" version="1.1" xmlns="http://www.w3.org/2000/svg" xmlns:xlink="http://www.w3.org/1999/xlink">
    <!-- Generator: Sketch 50.2 (55047) - http://www.bohemiancoding.com/sketch -->
    <title>coin</title>
    <desc>Created with Sketch.</desc>
    <defs></defs>
    <g id="Page-1" stroke="none" stroke-width="1" fill="none" fill-rule="evenodd">
        <g id="coin">
            <circle id="Oval-2" stroke="#45413C" fill="#FFE500" cx="22.5" cy="22.5" r="22"></circle>
            <circle id="Oval-2-Copy" stroke="#FFF48C" stroke-width="2" cx="22.5" cy="22.5" r="20.5"></circle>
            <path d="M21.2525991,41.4597059 L22.1464466,42.3535534 L22.5,41.5 C22.0808918,41.5 21.6649531,41.4864302 21.2525991,41.4597059 Z M3.5402941,23.7474009 C3.51356983,23.3350469 3.5,22.9191082 3.5,22.5 L2.64644661,22.8535534 L3.5402941,23.7474009 Z M23.7474009,3.5402941 L22.8535534,2.64644661 L22.5,3.5 C22.9191082,3.5 23.3350469,3.51356983 23.7474009,3.5402941 Z M41.4597059,21.2525991 C41.4864302,21.6649531 41.5,22.0808918 41.5,22.5 L42.3535534,22.1464466 L41.4597059,21.2525991 Z" id="Oval-2-Copy" stroke="#45413C"></path>
            <g id="XMLID_17297_" opacity="0.4" transform="translate(16.000000, 10.000000)" fill="#45413C" fill-rule="nonzero">
                <path d="M5.98058252,18.8547486 L5.98058252,14.1061453 C5.4368932,13.9664804 4.75728155,13.6871508 3.94174757,13.4078212 C3.12621359,13.1284916 2.44660194,12.849162 1.90291262,12.4301676 C1.3592233,12.0111732 0.815533981,11.452514 0.54368932,10.8938547 C0.13592233,10.1955307 0,9.4972067 0,8.51955307 C0,7.40223464 0.27184466,6.2849162 0.815533981,5.30726257 C1.3592233,4.32960894 2.03883495,3.63128492 2.99029126,3.0726257 C3.94174757,2.51396648 4.89320388,2.23463687 5.98058252,2.09497207 L5.98058252,1.25698324 C5.98058252,0.977653631 5.98058252,0.698324022 5.98058252,0.558659218 C5.98058252,0.418994413 6.11650485,0.279329609 6.25242718,0.139664804 C6.38834951,0 6.52427184,0 6.7961165,0 C7.06796117,0 7.33980583,0.139664804 7.47572816,0.279329609 C7.61165049,0.418994413 7.61165049,0.837988827 7.61165049,1.25698324 L7.61165049,2.09497207 C8.69902913,2.09497207 9.9223301,2.37430168 10.8737864,2.79329609 C11.961165,3.2122905 12.5048544,3.91061453 12.5048544,4.88826816 C12.5048544,5.44692737 12.368932,6.00558659 11.961165,6.42458101 C11.5533981,6.84357542 11.1456311,6.98324022 10.6019417,6.98324022 C10.1941748,6.98324022 9.78640777,6.84357542 9.10679612,6.56424581 C8.42718447,6.2849162 8.01941748,6.1452514 7.61165049,6.1452514 L7.61165049,9.91620112 C8.83495146,10.3351955 9.9223301,10.7541899 10.8737864,11.0335196 C11.8252427,11.3128492 12.5048544,12.0111732 13.0485437,12.849162 C13.7281553,13.6871508 14,14.8044693 14,16.2011173 C14,17.1787709 13.8640777,18.0167598 13.4563107,18.7150838 C13.184466,19.5530726 12.6407767,20.1117318 12.0970874,20.8100559 C11.5533981,21.3687151 10.8737864,21.7877095 10.0582524,22.2067039 C9.24271845,22.4860335 8.42718447,22.7653631 7.61165049,22.7653631 L7.61165049,22.9050279 L7.61165049,23.7430168 C7.61165049,24.0223464 7.61165049,24.301676 7.61165049,24.4413408 C7.61165049,24.5810056 7.47572816,24.7206704 7.33980583,24.8603352 C7.2038835,25 7.06796117,25 6.7961165,25 C6.52427184,25 6.25242718,24.8603352 6.11650485,24.7206704 C5.98058252,24.4413408 5.98058252,24.1620112 5.98058252,23.7430168 L5.98058252,22.9050279 C5.02912621,22.9050279 4.21359223,22.7653631 3.26213592,22.6256983 C2.31067961,22.4860335 1.49514563,22.0670391 0.951456311,21.6480447 C0.27184466,21.2290503 1.54525799e-13,20.5307263 1.54525799e-13,19.8324022 C1.54525799e-13,19.273743 0.13592233,18.7150838 0.54368932,18.4357542 C0.951456311,18.1564246 1.3592233,17.877095 1.90291262,17.877095 C2.31067961,17.877095 2.99029126,18.0167598 3.94174757,18.4357542 C4.89320388,18.8547486 5.57281553,18.8547486 5.98058252,18.8547486 Z M5.98058252,9.4972067 L5.98058252,6.2849162 C5.57281553,6.42458101 5.16504854,6.56424581 4.89320388,6.98324022 C4.62135922,7.40223464 4.48543689,7.68156425 4.48543689,8.10055866 C4.48543689,8.51955307 4.62135922,8.79888268 4.89320388,8.93854749 C5.16504854,9.07821229 5.57281553,9.21787709 5.98058252,9.4972067 Z M7.61165049,14.6648045 L7.61165049,18.8547486 C8.15533981,18.7150838 8.5631068,18.4357542 8.97087379,18.0167598 C9.24271845,17.5977654 9.51456311,17.0391061 9.51456311,16.4804469 C9.37864078,15.6424581 8.83495146,15.0837989 7.61165049,14.6648045 Z" id="Shape"></path>
            </g>
        </g>
    </g>
</svg>