<?xml version="1.0" encoding="UTF-8"?>
<svg width="47px" height="40px" viewBox="0 0 47 40" version="1.1" xmlns="http://www.w3.org/2000/svg" xmlns:xlink="http://www.w3.org/1999/xlink">
    <!-- Generator: Sketch 52.5 (67469) - http://www.bohemiancoding.com/sketch -->
    <title>fox</title>
    <desc>Created with Sketch.</desc>
    <g id="Symbols" stroke="none" stroke-width="1" fill="none" fill-rule="evenodd">
        <g id="Fox-Chat-Bubble" transform="translate(-8.000000, -12.000000)">
            <g id="fox" transform="translate(-162.000000, -25.000000)">
                <path d="M176.403598,58 C173.887134,54.5 172.389498,51.5 171.910691,49 C171.431883,46.5 171.641269,42.8333333 172.53885,38 C176.476729,38.5563785 179.575737,39.5288065 181.835875,40.9172839 C184.096013,42.3057613 185.611453,43.3333333 186.382195,44 C188.467526,42.8314711 190.713685,42.2472067 193.120673,42.2472067 C195.527661,42.2472067 198.014843,42.8314711 200.582219,44 C202.48303,41.9767225 204.47669,40.6433892 206.563197,40 C208.649705,39.3566108 211.498715,38.6899441 215.110227,38 C216.158484,43.2359142 216.158484,47.2115594 215.110227,49.9269356 C214.06197,52.6423119 212.557125,55.25 210.59569,57.75 C211.28874,59.6261011 212.112307,61.0787156 213.066391,62.1078436 C214.020476,63.1369715 214.701754,63.8448832 215.110227,64.2315787 L213.066391,65 L216.194387,66.75 C211.007547,68.1280258 207.108809,69.5446925 204.498173,71 C200.582219,73.1829613 197.665233,76.1666667 193.927616,76.1666667 C190.189998,76.1666667 185.971663,73 182.762002,71 C180.622228,69.6666667 176.721135,68.25 171.058724,66.75 L174.840924,65 L171.910691,64.2315787 C173.437755,62.7438596 174.4145,61.6666667 174.840924,61 C175.267349,60.3333333 175.78824,59.3333333 176.403598,58 Z" id="Path-5" stroke="#384054" fill="#F18151"></path>
                <path d="M188.203812,63.3721548 C186.76853,61.1055481 185.049173,60.4819551 183.045742,61.5013756" id="Path" stroke="#384054" stroke-linecap="round" stroke-linejoin="round" transform="translate(185.624777, 62.199575) rotate(-6.000000) translate(-185.624777, -62.199575) "></path>
                <path d="M204.266511,63.6083188 C202.831228,61.3417121 201.111871,60.7181191 199.10844,61.7375396" id="Path" stroke="#384054" stroke-linecap="round" stroke-linejoin="round" transform="translate(201.687475, 62.435739) scale(-1, 1) rotate(-6.000000) translate(-201.687475, -62.435739) "></path>
                <path d="M173.027585,63.426908 C175.986278,62.8076075 178.802019,62.6697982 181.474809,63.01348 C185.483994,63.5290028 190.285255,66 192.678874,68.1 C195.072493,70.2 195.165893,76 193.355392,76 C191.544892,76 187.417345,73.8638593 184.706783,72.1380642 C181.996222,70.4122691 176.97843,67.9518527 173.829197,67.3509264 C171.729709,66.9503088 170.949693,66.75 171.48915,66.75 L174.551154,65.2012262 L172.220643,64.2086065 L173.027585,63.426908 Z" id="Path-17" fill="#FFFFFF"></path>
                <path d="M193.777029,63.5974145 C196.862796,62.978114 199.799471,62.8403047 202.587056,63.1839866 C206.768433,63.6995093 211.775906,66.1705065 214.272329,68.2705065 C216.768753,70.3705065 216.866164,76.1705065 214.977904,76.1705065 C213.089644,76.1705065 208.78482,74.0343659 205.957842,72.3085708 C203.130863,70.5827756 197.89756,68.1223592 194.61307,67.5214329 C192.42341,67.1208153 191.609893,66.9205065 192.172519,66.9205065 L195.366034,65.3717327 L192.935429,64.379113 L193.777029,63.5974145 Z" id="Path-17" fill="#FFFFFF" transform="translate(204.141600, 69.585253) scale(-1, 1) translate(-204.141600, -69.585253) "></path>
                <path d="M176.403598,58 C173.887134,54.5 172.389498,51.5 171.910691,49 C171.431883,46.5 171.641269,42.8333333 172.53885,38 C176.476729,38.5563785 179.575737,39.5288065 181.835875,40.9172839 C184.096013,42.3057613 185.611453,43.3333333 186.382195,44 C188.467526,42.8314711 190.713685,42.2472067 193.120673,42.2472067 C195.527661,42.2472067 198.014843,42.8314711 200.582219,44 C202.48303,41.9767225 204.47669,40.6433892 206.563197,40 C208.649705,39.3566108 211.498715,38.6899441 215.110227,38 C216.158484,43.2359142 216.158484,47.2115594 215.110227,49.9269356 C214.06197,52.6423119 212.557125,55.25 210.59569,57.75 C211.28874,59.6261011 212.112307,61.0787156 213.066391,62.1078436 C214.020476,63.1369715 214.701754,63.8448832 215.110227,64.2315787 L213.066391,65 L216.194387,66.75 C211.007547,68.1280258 207.108809,69.5446925 204.498173,71 C200.582219,73.1829613 197.665233,76.1666667 193.927616,76.1666667 C190.189998,76.1666667 185.971663,73 182.762002,71 C180.622228,69.6666667 176.721135,68.25 171.058724,66.75 L174.840924,65 L171.910691,64.2315787 C173.437755,62.7438596 174.4145,61.6666667 174.840924,61 C175.267349,60.3333333 175.78824,59.3333333 176.403598,58 Z" id="Path-5" stroke="#384054"></path>
                <path d="M193.5,69.6235261 C194.328427,69.6235261 195,68.9 195,68.5 C195,68.1 194.328427,68 193.5,68 C192.671573,68 192,68.1 192,68.5 C192,68.9 192.671573,69.6235261 193.5,69.6235261 Z" id="Oval" fill="#384054"></path>
                <path d="M193.453018,69.5050675 C193.337842,70.6359102 192.838967,71.2013315 191.956392,71.2013315 C191.073817,71.2013315 190.49132,70.6359102 190.208902,69.5050675" id="Path-16" stroke="#384054" stroke-width="0.5" stroke-linecap="round" stroke-linejoin="round"></path>
                <path d="M196.944116,69.51 C196.82894,70.6408427 196.330065,71.206264 195.44749,71.206264 C194.564915,71.206264 193.982418,70.6408427 193.7,69.51" id="Path-16" stroke="#384054" stroke-width="0.5" stroke-linecap="round" stroke-linejoin="round" transform="translate(195.322058, 70.358132) scale(-1, 1) translate(-195.322058, -70.358132) "></path>
                <path d="M211.978675,47.0672105 C211.417439,46.3440391 210.410075,45.5657867 208.956583,44.7324534 C207.503091,43.8991201 205.732957,43.3216356 203.646182,43 C203.316372,45.5599246 203.544641,47.9303138 204.33099,50.1111677 C205.117338,52.2920216 206.009851,53.9216324 207.008529,55 C207.508052,53.236941 208.157404,51.7057714 208.956583,50.4064912 C209.755762,49.107211 210.763126,47.9941175 211.978675,47.0672105 Z" id="Path-7" fill="#FFFFFF" transform="translate(207.739338, 49.000000) scale(-1, 1) translate(-207.739338, -49.000000) "></path>
                <path d="M183.578653,47.0672105 C183.017417,46.3440391 182.010053,45.5657867 180.556561,44.7324534 C179.103069,43.8991201 177.332935,43.3216356 175.24616,43 C174.91635,45.5599246 175.144619,47.9303138 175.930968,50.1111677 C176.717316,52.2920216 177.609829,53.9216324 178.608507,55 C179.10803,53.236941 179.757382,51.7057714 180.556561,50.4064912 C181.35574,49.107211 182.363104,47.9941175 183.578653,47.0672105 Z" id="Path-7" fill="#FFFFFF"></path>
            </g>
        </g>
    </g>
</svg>