<?xml version="1.0" encoding="UTF-8"?>
<svg width="26px" height="45px" viewBox="0 0 26 45" version="1.1" xmlns="http://www.w3.org/2000/svg" xmlns:xlink="http://www.w3.org/1999/xlink">
    <!-- Generator: Sketch 50.2 (55047) - http://www.bohemiancoding.com/sketch -->
    <title>551-soft-ice-cream-1 copy 4</title>
    <desc>Created with Sketch.</desc>
    <defs></defs>
    <g id="Intro-Quest-Flow" stroke="none" stroke-width="1" fill="none" fill-rule="evenodd">
        <g id="iPhone-8" transform="translate(-262.000000, -158.000000)">
            <g id="551-soft-ice-cream-1-copy-4" transform="translate(262.000000, 159.000000)">
                <ellipse id="_Ellipse_" fill="#45413C" fill-rule="nonzero" opacity="0.15" cx="13" cy="42.5" rx="9.5" ry="1.5"></ellipse>
                <path d="M20,28.89 L6,28.89 C5.58203046,28.8922477 5.21752159,28.6064396 5.12,28.2 L4.21,24.57 C4.14241096,24.2987267 4.20326437,24.0114406 4.37503673,23.7908693 C4.5468091,23.570298 4.81043497,23.4409232 5.09,23.44 L20.91,23.44 C21.189565,23.4409232 21.4531909,23.570298 21.6249633,23.7908693 C21.7967356,24.0114406 21.857589,24.2987267 21.79,24.57 L20.88,28.2 C20.7824784,28.6064396 20.4179695,28.8922477 20,28.89 Z" id="_Path_" fill="#9B9B9B" fill-rule="nonzero"></path>
                <path d="M4.49,25.71 L21.49,25.71 L21.77,24.57 C21.837589,24.2987267 21.7767356,24.0114406 21.6049633,23.7908693 C21.4331909,23.570298 21.169565,23.4409232 20.89,23.44 L5.09,23.44 C4.81043497,23.4409232 4.5468091,23.570298 4.37503673,23.7908693 C4.20326437,24.0114406 4.14241096,24.2987267 4.21,24.57 L4.49,25.71 Z" id="_Path_2" fill="#9B9B9B" fill-rule="nonzero"></path>
                <path d="M20,28.89 L6,28.89 C5.58203046,28.8922477 5.21752159,28.6064396 5.12,28.2 L4.21,24.57 C4.14241096,24.2987267 4.20326437,24.0114406 4.37503673,23.7908693 C4.5468091,23.570298 4.81043497,23.4409232 5.09,23.44 L20.91,23.44 C21.189565,23.4409232 21.4531909,23.570298 21.6249633,23.7908693 C21.7967356,24.0114406 21.857589,24.2987267 21.79,24.57 L20.88,28.2 C20.7824784,28.6064396 20.4179695,28.8922477 20,28.89 Z" id="_Path_3" stroke="#9B9B9B" stroke-linecap="round" stroke-linejoin="round"></path>
                <path d="M15.15,42.5 L10.85,42.5 C9.4854321,42.5019708 8.33060334,41.4925649 8.15,40.14 L6.65,28.89 L19.35,28.89 L17.85,40.14 C17.6693967,41.4925649 16.5145679,42.5019708 15.15,42.5 Z" id="_Path_4" fill="#9B9B9B" fill-rule="nonzero"></path>
                <polygon id="_Path_5" fill="#9B9B9B" fill-rule="nonzero" points="19.05 31.16 19.35 28.89 6.65 28.89 6.95 31.16"></polygon>
                <path d="M15.15,42.5 L10.85,42.5 C9.4854321,42.5019708 8.33060334,41.4925649 8.15,40.14 L6.65,28.89 L19.35,28.89 L17.85,40.14 C17.6693967,41.4925649 16.5145679,42.5019708 15.15,42.5 Z" id="_Path_6" stroke="#9B9B9B" stroke-linecap="round" stroke-linejoin="round"></path>
                <path d="M22,13.79 C22.3250985,13.2861862 22.4986459,12.6995961 22.5,12.1 C22.5000042,11.2575282 22.1646506,10.4497072 21.5679958,9.85492855 C20.9713409,9.26014993 20.1624676,8.92734236 19.32,8.93 L18.19,8.93 C18.9156631,8.13740173 19.1044456,6.99090003 18.6712208,6.00747982 C18.237996,5.0240596 17.2646156,4.38952392 16.19,4.39 L14.82,4.39 C13.8532882,4.39420565 12.9580958,3.88124998 12.4729199,3.04509585 C11.9877441,2.20894171 11.9866304,1.1771996 12.47,0.34 C9.44077297,0.608452153 7.11394384,3.13893299 7.1,6.18 C7.09812265,7.11596924 7.25362339,8.04559324 7.56,8.93 L6.65,8.93 C5.80753244,8.92734236 4.99865913,9.26014993 4.40200424,9.85492855 C3.80534936,10.4497072 3.46999581,11.2575282 3.47,12.1 C3.4713541,12.6995961 3.64490147,13.2861862 3.97,13.79 C1.74857444,14.6673422 0.457823391,16.9932836 0.888714977,19.3424948 C1.31960656,21.691706 3.35181105,23.4081519 5.74,23.44 L20.26,23.44 C22.6427874,23.3944859 24.6622599,21.6735587 25.085161,19.3281586 C25.5080622,16.9827584 24.2168312,14.6648754 22,13.79 Z" id="_Path_7" fill="#9B9B9B" fill-rule="nonzero"></path>
                <path d="M3.47,20.27 C3.47514874,18.1998575 4.75547251,16.3469666 6.69,15.61 C6.06208908,14.6342892 6.01940557,13.392937 6.57881369,12.3764006 C7.13822181,11.3598642 8.20973529,10.7316634 9.37,10.74 L10.28,10.74 C9.97865313,9.85776672 9.82327844,8.93227397 9.82,8 C9.81946538,6.00582558 10.8280012,4.1468081 12.5,3.06 C11.9825807,2.21634862 11.9825807,1.15365138 12.5,0.31 C9.44746813,0.56482912 7.09978293,3.11684988 7.1,6.18 C7.09812265,7.11596924 7.25362339,8.04559324 7.56,8.93 L6.65,8.93 C5.80753244,8.92734236 4.99865913,9.26014993 4.40200424,9.85492855 C3.80534936,10.4497072 3.46999581,11.2575282 3.47,12.1 C3.4713541,12.6995961 3.64490147,13.2861862 3.97,13.79 C1.95470016,14.5738426 0.671642844,16.564365 0.789951381,18.7234958 C0.908259918,20.8826266 2.40112214,22.7210438 4.49,23.28 C3.83169006,22.4143006 3.47359311,21.3575635 3.47,20.27 Z" id="_Path_8" fill="#9B9B9B" fill-rule="nonzero"></path>
                <path d="M22,13.79 C22.3250985,13.2861862 22.4986459,12.6995961 22.5,12.1 C22.5000042,11.2575282 22.1646506,10.4497072 21.5679958,9.85492855 C20.9713409,9.26014993 20.1624676,8.92734236 19.32,8.93 L18.19,8.93 C18.9156631,8.13740173 19.1044456,6.99090003 18.6712208,6.00747982 C18.237996,5.0240596 17.2646156,4.38952392 16.19,4.39 L14.82,4.39 C13.8532882,4.39420565 12.9580958,3.88124998 12.4729199,3.04509585 C11.9877441,2.20894171 11.9866304,1.1771996 12.47,0.34 C9.44077297,0.608452153 7.11394384,3.13893299 7.1,6.18 C7.09812265,7.11596924 7.25362339,8.04559324 7.56,8.93 L6.65,8.93 C5.80753244,8.92734236 4.99865913,9.26014993 4.40200424,9.85492855 C3.80534936,10.4497072 3.46999581,11.2575282 3.47,12.1 C3.4713541,12.6995961 3.64490147,13.2861862 3.97,13.79 C1.74857444,14.6673422 0.457823391,16.9932836 0.888714977,19.3424948 C1.31960656,21.691706 3.35181105,23.4081519 5.74,23.44 L20.26,23.44 C22.6427874,23.3944859 24.6622599,21.6735587 25.085161,19.3281586 C25.5080622,16.9827584 24.2168312,14.6648754 22,13.79 Z" id="_Path_9" stroke="#9B9B9B" stroke-linecap="round" stroke-linejoin="round"></path>
                <path d="M20.71,17.09 L20.71,18.45 C20.71,19.2011073 20.1011073,19.81 19.35,19.81 C18.5988927,19.81 17.99,19.2011073 17.99,18.45 L17.99,15.28" id="_Path_10" stroke="#9B9B9B" stroke-linecap="round" stroke-linejoin="round"></path>
                <path d="M12.55,11.65 L12.55,13.92 C12.4892849,14.6287048 11.8963008,15.1730598 11.185,15.1730598 C10.4736992,15.1730598 9.88071505,14.6287048 9.82,13.92 L9.82,13" id="_Path_11" stroke="#9B9B9B" stroke-linecap="round" stroke-linejoin="round"></path>
                <path d="M8.92,22.54 L8.92,24.81 C8.85928495,25.5187048 8.26630076,26.0630598 7.555,26.0630598 C6.84369924,26.0630598 6.25071505,25.5187048 6.19,24.81 L6.19,22.54 L8.92,22.54 Z" id="_Path_12" fill="#9B9B9B" fill-rule="nonzero"></path>
                <path d="M8.92,23.44 L8.92,24.81 C8.85928495,25.5187048 8.26630076,26.0630598 7.555,26.0630598 C6.84369924,26.0630598 6.25071505,25.5187048 6.19,24.81 L6.19,22.54" id="_Path_13" stroke="#9B9B9B" stroke-linecap="round" stroke-linejoin="round"></path>
            </g>
        </g>
    </g>
</svg>