<?xml version="1.0" encoding="UTF-8"?>
<svg width="32px" height="46px" viewBox="0 0 32 46" version="1.1" xmlns="http://www.w3.org/2000/svg" xmlns:xlink="http://www.w3.org/1999/xlink">
    <!-- Generator: Sketch 50.2 (55047) - http://www.bohemiancoding.com/sketch -->
    <title>journal</title>
    <desc>Created with Sketch.</desc>
    <defs></defs>
    <g id="Page-1" stroke="none" stroke-width="1" fill="none" fill-rule="evenodd">
        <g id="iPhone-8-Copy-5" transform="translate(-15.000000, -613.000000)">
            <g id="journal" transform="translate(15.000000, 613.000000)">
                <ellipse id="shadow" fill="#45413C" fill-rule="nonzero" opacity="0.15" cx="15" cy="44.2" rx="13.7" ry="1.8"></ellipse>
                <g id="Group-8">
                    <path d="M29.2,39.9 L6.8,33.2 L6.8,0.9 L29,7.6 C30,7.9 30.7,8.8 30.7,9.9 L30.7,38.8 C30.7,39.6 29.9,40.1 29.2,39.9 Z" id="XMLID_17280_" fill="#ED9E7C" fill-rule="nonzero"></path>
                    <path d="M29.2,39.9 L6.8,33.2 L6.8,0.9 L29,7.6 C30,7.9 30.7,8.8 30.7,9.9 L30.7,38.8 C30.7,39.6 29.9,40.1 29.2,39.9 Z" id="XMLID_17279_" stroke="#45413C" stroke-linecap="round" stroke-linejoin="round"></path>
                    <polygon id="XMLID_17278_" stroke="#45413C" fill="#656769" fill-rule="nonzero" stroke-linecap="round" stroke-linejoin="round" points="11.7 2.4 6.8 0.9 6.8 33.2 11.7 34.7"></polygon>
                    <polygon id="XMLID_17277_" stroke="#45413C" fill="#656769" fill-rule="nonzero" stroke-linecap="round" stroke-linejoin="round" points="6.8 0.9 0.8 5.1 0.8 18.1 6.8 12.8"></polygon>
                    <polygon id="XMLID_17275_" fill="#FFFCE5" fill-rule="nonzero" points="23.2 42.9 27.7 39.5 27.7 10.2 23.2 13.3"></polygon>
                    <polygon id="XMLID_17274_" fill="#FFFEF2" fill-rule="nonzero" points="23.2 13.3 23.2 18.1 27.7 15 27.7 10.2"></polygon>
                    <polygon id="XMLID_17273_" stroke="#45413C" stroke-linecap="round" stroke-linejoin="round" points="23.2 42.9 27.7 39.5 27.7 10.2 23.2 13.3"></polygon>
                    <polygon id="XMLID_17272_" stroke="#45413C" fill="#FFFEF2" fill-rule="nonzero" stroke-linecap="round" stroke-linejoin="round" points="6.8 3.9 2.3 7 23.2 13.3 27.7 10.2"></polygon>
                    <path d="M23.2,44.1 L1.7,37.6 C1.2,37.4 0.8,37 0.8,36.5 L0.8,5.1 L23,11.8 C24,12.1 24.7,13 24.7,14.1 L24.7,43 C24.7,43.8 23.9,44.3 23.2,44.1 Z" id="XMLID_17271_" fill="#F16529" fill-rule="nonzero"></path>
                    <path d="M23,11.8 L0.8,5.1 L0.8,8.6 L23,15.3 C24,15.6 24.7,16.5 24.7,17.6 L24.7,14.1 C24.7,13 24,12.1 23,11.8 Z" id="XMLID_17270_" fill="#ED9E7C" fill-rule="nonzero"></path>
                    <path d="M23.2,44.1 L1.7,37.6 C1.2,37.4 0.8,37 0.8,36.5 L0.8,5.1 L23,11.8 C24,12.1 24.7,13 24.7,14.1 L24.7,43 C24.7,43.8 23.9,44.3 23.2,44.1 Z" id="XMLID_17269_" stroke="#45413C" stroke-linecap="round" stroke-linejoin="round"></path>
                    <path d="M5.7,6.6 L0.8,5.1 L0.8,36.5 C0.8,37 1.1,37.5 1.7,37.6 L5.7,38.8 L5.7,6.6 Z" id="XMLID_17268_" fill="#656769" fill-rule="nonzero"></path>
                    <polygon id="XMLID_17267_" fill="#87898C" fill-rule="nonzero" points="0.8 5.1 0.8 8.6 5.7 10.1 5.7 6.6"></polygon>
                    <path d="M5.7,6.6 L0.8,5.1 L0.8,36.5 C0.8,37 1.1,37.5 1.7,37.6 L5.7,38.8 L5.7,6.6 Z" id="XMLID_17266_" stroke="#45413C" stroke-linecap="round" stroke-linejoin="round"></path>
                </g>
            </g>
        </g>
    </g>
</svg>