<?xml version="1.0" encoding="UTF-8"?>
<svg width="46px" height="40px" viewBox="0 0 46 40" version="1.1" xmlns="http://www.w3.org/2000/svg" xmlns:xlink="http://www.w3.org/1999/xlink">
    <!-- Generator: Sketch 50.2 (55047) - http://www.bohemiancoding.com/sketch -->
    <title>taco</title>
    <desc>Created with Sketch.</desc>
    <defs></defs>
    <g id="Page-1" stroke="none" stroke-width="1" fill="none" fill-rule="evenodd">
        <g id="taco" transform="translate(0.000000, 1.000000)">
            <path d="M26.6684928,4.25068236 C23.9143412,0.949803146 20.7732233,-0.278943566 17.245139,0.564442224 C11.9530126,1.82952091 6.70896651,6.47996798 2.41377847,19.3579807 C-1.88140957,32.2359934 2.37423704,37.6696178 6.70896651,37.6696178 C11.043696,37.6696178 14.6325752,36.2901161 18.2239257,34.3718623 C20.6181594,33.0930265 23.4330151,23.0526332 26.6684928,4.25068236 Z" id="Path-6" fill="#E2BF83"></path>
            <path d="M11.0541778,21.5319149 C8.57822536,22.7171249 7.01358578,23.3097299 6.36025906,23.3097299 C5.38026897,23.3097299 2.83385336,23.1178233 2.83385336,25.3062405 C2.83385336,26.7651854 3.2634514,27.7461496 4.12264749,28.2491333 C2.40425532,28.9963026 1.97465728,29.8959258 2.83385336,30.9480026 C3.69304944,32.0000794 4.99150384,32.5938209 6.72921656,32.7292271 C6.80763525,35.3123355 7.78040043,36.2655366 9.6475121,35.5888304 C11.5146238,34.9121242 12.2470186,34.30718 11.8446966,33.7739979 L14.4602766,34.5391889 L18.9496248,32.0361228 L22.3649779,25.3062405 L22.3649779,22.3350976 L11.0541778,21.5319149 Z" id="Path-7" stroke="#303336" fill="#632A19" stroke-linecap="round" stroke-linejoin="round"></path>
            <path d="M10.1155972,23.4082573 C8.57742191,23.4082573 7.48167089,23.4082573 6.82834416,23.4082573 C5.84835407,23.4082573 3.30193847,23.228515 3.30193847,25.2782152 C3.30193847,26.6446819 3.73153651,27.5634659 4.59073259,28.0345669 C2.87234043,28.7343755 2.44274238,29.5769743 3.30193847,30.5623632 C4.16113455,31.5477521 5.45958895,32.1038581 7.19730167,32.2306813 C8.11488954,34.3203157 9.08765472,35.0641377 10.1155972,34.4621474 C11.1435397,33.8601571 11.6575109,33.2661527 11.6575109,32.6801342 C10.1646558,33.5019129 9.41822823,33.0697472 9.41822823,31.3836373 C9.41822823,31.1125599 6.51326496,31.7017256 6.82834416,29.4155967 C6.8660883,29.1417356 5.85064568,28.8043316 5.78856314,28.0345669 C5.69687677,26.897743 6.64306402,25.2782152 7.64605339,25.2782152 C8.71254488,25.2782152 11.1551292,24.4690357 12.3127818,24.4690357 C12.7168442,24.4690357 11.9844494,24.1154429 10.1155972,23.4082573 Z" id="Path-7-Copy" fill="#B2583E"></path>
            <path d="M12.7643247,30.5968875 C11.7176192,29.6275979 11.3687174,28.7481238 11.7176192,27.9584652 C12.0665211,27.1688066 13.1455308,26.8107683 14.9546484,26.8843501 C14.5859235,25.44306 14.7166087,24.3364775 15.3467041,23.5646026 C15.9767994,22.7927276 16.4548365,22.9429912 16.7808154,24.0153932 L17.6571896,26.480058 C16.8218483,26.6117221 16.4041776,27.1045245 16.4041776,27.9584652 C16.4041776,28.8124059 16.4041776,29.0903364 16.4041776,28.7922566 C15.5389794,28.1270834 14.785296,28.1270834 14.1431273,28.7922566 C13.5009587,29.4574297 13.0413578,30.0589734 12.7643247,30.5968875 Z" id="Path-9" fill="#B2583E"></path>
            <path d="M21.4420943,23.8446603 C20.1247253,25.0214277 18.611066,25.4136835 16.9011164,25.0214277 C15.1911668,24.6291719 13.1995269,23.9574988 10.9261967,23.0064083 C10.6388239,23.8889839 9.50897776,24.2493365 7.5366584,24.087466 C4.57817937,23.8446603 4.55333867,22.4735509 4.55333867,21.4638494 C4.55333867,20.4541479 3.40141195,21.5412939 3.40141195,19.1429484 C3.40141195,17.5440514 4.18056576,16.8426668 5.7388734,17.0387947 C5.52449474,15.24929 6.1237564,14.3545376 7.5366584,14.3545376 C8.9495604,14.3545376 10.0794065,14.9063908 10.9261967,16.0100974 C10.0327443,14.020989 10.4230481,12.5218276 12.0971082,11.5126132 C13.7711682,10.5033987 15.479092,10.743096 17.2208796,12.231705 C16.8063808,11.0446601 17.2740517,9.7655018 18.6238922,8.39423005 C19.9737328,7.02295829 21.7390463,6.74695048 23.9198327,7.56620661 C23.4939192,5.37979391 24.2221491,4.28658756 26.1045224,4.28658756 C27.9868957,4.28658756 29.6321706,4.72078467 31.0403472,5.58917889 L23.9198327,19.1429484 L21.4420943,23.8446603 Z" id="Path-8" stroke="#303336" fill="#B8C35A" stroke-linecap="round" stroke-linejoin="round"></path>
            <path d="M17.450382,34.9800712 C18.1249724,34.6197511 29.3152829,29.3572796 36.9912633,25.5642677 C42.6483768,22.7688595 44.6870145,21.5318284 44.6870145,13.5940878 C44.6870145,11.1846507 44.8076159,5.56964843 42.1005106,2.35690709 C39.3934053,-0.855834245 34.4344155,-0.0902376388 30.4876863,4.25068236 C26.5409572,8.59160236 24.086917,12.8781285 21.9348746,19.3579807 C19.7828322,25.8378328 18.8738735,29.8844285 17.450382,31.848884 C16.5013876,33.1585211 14.8843078,34.4449357 12.5991426,35.7081278 C13.4390685,36.5015925 15.0561483,36.258907 17.450382,34.9800712 Z" id="Path-6-Copy" fill="#E2BF83"></path>
            <path d="M40.1405893,0.918182715 C38.742916,0.888681042 37.1491953,1.72166204 35.3594272,3.4171257 C32.6747749,5.96032118 29.8411014,11.969585 28.5377327,15.86078 C27.2343639,19.751975 25.5512556,25.7245509 24.3144547,28.5737316 C23.4899208,30.4731855 22.5817988,31.9855875 21.5900887,33.1109376 C17.291683,35.0575974 14.7787457,36.2076583 14.0512766,36.5611205 C13.3238076,36.9145826 11.8688701,37.2167748 9.68646411,37.467697 C11.424341,36.4412118 12.6809617,35.7261223 13.4563262,35.3224284 C14.6193729,34.7168877 17.8017713,32.0901041 18.764358,29.8600802 C19.7269446,27.6300563 22.3529717,17.7488871 24.2425917,14.007848 C26.1322116,10.266809 29.5811607,5.04266802 31.6525438,3.4171257 C33.723927,1.79158337 34.8663009,1.03473969 36.6057671,0.717305784 C37.7654112,0.505683176 38.9436853,0.572642153 40.1405893,0.918182715 Z" id="Path-11" fill="#FFD997"></path>
            <path d="M26.6684928,4.25068236 C24.5668657,1.72052499 21.7057221,-0.523305344 18.1776378,0.320080446 C12.8855115,1.58515913 6.70896651,6.36553881 2.41377847,19.3579807 C-1.88140957,32.3504225 2.37423704,37.6696178 6.70896651,37.6696178 C11.043696,37.6696178 13.8590314,36.8983249 17.450382,34.9800712 C18.1249724,34.6197511 29.3152829,29.3572796 36.9912633,25.5642677 C42.6483768,22.7688595 44.6870145,21.5318284 44.6870145,13.5940878 C44.6870145,11.1846507 44.8076159,5.56964843 42.1005106,2.35690709 C39.3934053,-0.855834245 34.4344155,-0.0902376388 30.4876863,4.25068236 C26.5409572,8.59160236 24.086917,12.8781285 21.9348746,19.3579807 C19.7828322,25.8378328 18.8738735,29.8844285 17.450382,31.848884 C16.5013876,33.1585211 14.8843078,34.4449357 12.5991426,35.7081278" id="Path-6-Copy" stroke="#303336" stroke-linecap="round" stroke-linejoin="round"></path>
            <path d="M24.4524634,9.96426386 C22.8915155,9.61588393 21.8340449,9.93560724 21.2800515,10.9234338 C20.4490614,12.4051736 20.6303142,13.2384288 19.4062205,13.0048604 C18.1821268,12.771292 16.2407731,13.2367477 16.2407731,14.0529445 C16.2407731,14.8691414 15.3085178,14.0529445 14.8205833,14.6657335 C14.3326488,15.2785226 14.8205833,15.9812445 14.8205833,16.3132759 C14.8205833,16.7387424 14.5620375,16.923703 14.0449459,16.8681578 C12.7750301,16.5329155 11.9361241,16.6571844 11.5282277,17.2409646 C10.9163831,18.1166348 9.25105952,20.4974488 10.9717014,19.8053623 C12.6923433,19.1132759 12.6923433,20.3360532 13.3394457,20.7430377 C13.9865481,21.1500223 13.6376173,20.1725299 15.0433705,19.1132759 C15.9805393,18.4071065 16.931791,18.0077206 17.8971255,17.9151182 C17.2019267,16.0309043 17.3573591,15.0887974 18.3634224,15.0887974 C19.3694858,15.0887974 20.2094787,15.1605061 20.8834012,15.3039235 C21.1161481,15.1347611 21.2483649,14.9763546 21.2800515,14.8287041 C21.4846508,13.875332 21.6527734,12.8671836 22.376604,12.2346129 C23.0695967,11.6289921 24.029657,11.4821495 24.6144566,10.5940341 C24.7264048,10.4240222 24.6724071,10.2140988 24.4524634,9.96426386 Z" id="Path-10" fill="#E0EF5A"></path>
        </g>
    </g>
</svg>