<?xml version="1.0" encoding="UTF-8"?>
<svg width="44px" height="61px" viewBox="0 0 44 61" version="1.1" xmlns="http://www.w3.org/2000/svg" xmlns:xlink="http://www.w3.org/1999/xlink">
    <!-- Generator: Sketch 50.2 (55047) - http://www.bohemiancoding.com/sketch -->
    <title>trash</title>
    <desc>Created with Sketch.</desc>
    <defs></defs>
    <g id="Page-4" stroke="none" stroke-width="1" fill="none" fill-rule="evenodd">
        <g id="Group-6" transform="translate(-32.000000, -24.000000)" fill="#929292">
            <path d="M64,32 L76,32 L76,34 L72.629432,34 L69.081026,81.016386 C68.915755,83.206226 66.987243,85 64.775302,85 L41.78545,85 C39.58106,85 37.679146,83.211615 37.554274,81.005529 L34.893583,34 L32,34 L32,32 L44,32 L44,28.009763 C44,25.7878 45.790516,24 47.99923,24 L60.000769,24 C62.207532,24 63.999999,25.795232 63.999999,28.009763 L64,32 L64,32 Z M36.780376,34 L39.658119,81.003148 C39.72564,82.105979 40.680812,83 41.782699,83 L65.311607,83 C66.41746,83 67.377057,82.107685 67.455196,81.003148 L70.780376,34 L36.780376,34 L36.780376,34 Z M47.99406,26 C46.892771,26 46,26.898261 46,27.997913 L46,32 L61.999999,32 L61.999999,27.997913 C61.999999,26.894496 61.105485,26 60.005939,26 L47.99406,26 L47.99406,26 Z M45,38 L45.890188,76 L48,76 L47,38 L45,38 L45,38 Z M53,38 L53,76 L55,76 L55,38 L53,38 L53,38 Z M61.113709,38 L60,76 L62,76 L63,38 L61.113709,38 L61.113709,38 Z" id="trash"></path>
        </g>
    </g>
</svg>