<?xml version="1.0" encoding="UTF-8"?>
<svg width="34px" height="39px" viewBox="0 0 34 39" version="1.1" xmlns="http://www.w3.org/2000/svg" xmlns:xlink="http://www.w3.org/1999/xlink">
    <!-- Generator: Sketch 50.2 (55047) - http://www.bohemiancoding.com/sketch -->
    <title>person11 copy</title>
    <desc>Created with Sketch.</desc>
    <defs></defs>
    <g id="Characters" stroke="none" stroke-width="1" fill="none" fill-rule="evenodd">
        <g id="person11-copy" transform="translate(1.000000, 1.000000)">
            <path d="M16,0.23 C14.8024725,0.230449135 13.6097639,0.381637546 12.45,0.68 C9.74,1.29 6.22,2.31 3.04,1.68 C2.782856,3.34000512 3.22048595,5.03265647 4.25,6.36 C2.5846835,8.758567 1.69469999,11.6100043 1.7,14.53 L1.69997647,22 L30.3,22 L30.3,14.53 C30.3,6.63232808 23.8976719,0.23 16,0.23 Z" id="_Path_" fill="#BDBDBD" fill-rule="nonzero"></path>
            <path d="M16,0.23 C14.8024725,0.230449135 13.6097639,0.381637546 12.45,0.68 C9.74,1.29 6.22,2.31 3.04,1.68 C2.89737864,2.85544243 3.06278844,4.04777138 3.52,5.14 C6.57,5.57 9.88,4.62 12.45,4.04 C16.7333773,2.9381522 21.28556,3.88179265 24.7779913,6.59551942 C28.2704227,9.3092462 30.3094566,13.4871841 30.3000327,17.91 L30.3,14.53 C30.3,6.63232808 23.8976719,0.23 16,0.23 Z" id="_Path_2" fill="#E8E6E6" fill-rule="nonzero"></path>
            <path d="M16,0.23 C14.8024725,0.230449135 13.6097639,0.381637546 12.45,0.68 C9.74,1.29 6.22,2.31 3.04,1.68 C2.782856,3.34000512 3.22048595,5.03265647 4.25,6.36 C2.5846835,8.758567 1.69469999,11.6100043 1.7,14.53 L1.69997647,22 L30.3,22 L30.3,14.53 C30.3,6.63232808 23.8976719,0.23 16,0.23 Z" id="_Path_3" stroke="#45413C" stroke-linecap="round" stroke-linejoin="round"></path>
            <path d="M31.82,20.92 C31.6746975,19.8322544 30.8832084,18.9418292 29.82,18.67 L28.96,18.44 C27.672073,18.0740329 26.7825706,16.8989104 26.78,15.56 L26.78,12.56 C26.7821062,11.3350179 25.9621956,10.2609349 24.78,9.94 C21.9871274,11.0429428 19.0020273,11.5767249 16,11.51 C13.0207287,11.5647597 10.0602107,11.0277197 7.29,9.93 C6.10575511,10.2478824 5.2844089,11.3238459 5.29,12.55 L5.29,16.18 C5.28457366,17.4606759 4.25064069,18.4990654 2.97,18.51 C1.64476285,18.4840546 0.490974221,19.4104543 0.23,20.71 C0.10356499,21.4758766 0.320598384,22.2585849 0.823386667,22.8499872 C1.32617495,23.4413895 2.06375882,23.7815452 2.84,23.78 L3,23.78 C3.95016237,30.2443904 9.49615333,35.0347977 16.03,35.0347977 C22.5638467,35.0347977 28.1098376,30.2443904 29.06,23.78 L29.22,23.78 C29.9540355,23.774441 30.6523455,23.4623627 31.1461254,22.9192049 C31.6399052,22.376047 31.8842161,21.6512423 31.82,20.92 Z" id="_Path_4" stroke="#45413C" fill="#FFCEBF" fill-rule="nonzero" stroke-linecap="round" stroke-linejoin="round"></path>
            <path d="M8.09,20.61 C8.08595715,21.0688372 8.35977981,21.4845628 8.78292888,21.6620248 C9.20607794,21.8394869 9.69452731,21.7434463 10.0189868,21.4189868 C10.3434463,21.0945273 10.4394869,20.6060779 10.2620248,20.1829289 C10.0845628,19.7597798 9.6688372,19.4859571 9.21,19.49 C8.91295753,19.49 8.62808115,19.6079997 8.41804041,19.8180404 C8.20799966,20.0280811 8.09,20.3129575 8.09,20.61 Z" id="_Path_5" stroke="#45413C" fill="#45413C" fill-rule="nonzero" stroke-linecap="round" stroke-linejoin="round"></path>
            <path d="M23.91,20.61 C23.9140429,21.0688372 23.6402202,21.4845628 23.2170711,21.6620248 C22.7939221,21.8394869 22.3054727,21.7434463 21.9810132,21.4189868 C21.6565537,21.0945273 21.5605131,20.6060779 21.7379752,20.1829289 C21.9154372,19.7597798 22.3311628,19.4859571 22.79,19.49 C23.4085589,19.49 23.91,19.9914411 23.91,20.61 Z" id="_Path_6" stroke="#45413C" fill="#45413C" fill-rule="nonzero" stroke-linecap="round" stroke-linejoin="round"></path>
            <ellipse id="_Ellipse_2" fill="#FFB59E" fill-rule="nonzero" cx="7.35" cy="24.39" rx="1.46" ry="1"></ellipse>
            <ellipse id="_Ellipse_3" fill="#FFB59E" fill-rule="nonzero" cx="24.65" cy="24.39" rx="1.46" ry="1"></ellipse>
            <path d="M16.0522575,26.4711507 C17.4169251,26.4711507 20.2898967,26.634341 20.9766965,27.0543873 C21.1929999,27.1866783 23.1860309,29.5407777 24.9808942,28.709457 C26.4794526,28.0153748 28.2670392,25.4696629 29.0356166,25.4696629 C29.8975881,25.4696629 27.9561786,33.8844058 26.0300353,34.7298052 C22.8506522,36.1252614 18.8417218,36.562839 16.1230237,36.562839 C13.4441698,36.562839 9.19688689,36.1252614 6.77451317,34.7298052 C4.35213945,33.3343489 2.1718778,26.0024869 3.3109094,25.0304964 C3.77408746,24.6352442 4.89640894,28.1969601 7.36790409,29.0634852 C8.01665615,29.2909426 9.26046569,28.6212433 11.0993327,27.0543873 C13.4915042,26.6655629 15.1424792,26.4711507 16.0522575,26.4711507 Z" id="Path-2" stroke="#45413C" fill="#BDBDBD"></path>
            <path d="M19.7241379,29 C18.5513563,29.7316837 17.206069,30.1034483 15.862069,30.1034483 C14.518069,30.1034483 13.1727816,29.7316837 12,29" id="Stroke-59" stroke="#45413C" stroke-linecap="round" stroke-linejoin="round"></path>
        </g>
    </g>
</svg>