<?xml version="1.0" encoding="UTF-8"?>
<svg width="35px" height="37px" viewBox="0 0 35 37" version="1.1" xmlns="http://www.w3.org/2000/svg" xmlns:xlink="http://www.w3.org/1999/xlink">
    <!-- Generator: Sketch 50.2 (55047) - http://www.bohemiancoding.com/sketch -->
    <title>JohnLaw</title>
    <desc>Created with Sketch.</desc>
    <defs></defs>
    <g id="Intro-Quest-Flow" stroke="none" stroke-width="1" fill="none" fill-rule="evenodd">
        <g id="JohnLaw" transform="translate(0.000000, 1.000000)">
            <path d="M29.5833333,16.6 C29.5833333,10.19448 24.1724167,5 17.5,5 C10.8275833,5 5.41666667,10.19448 5.41666667,16.6 L5.41666667,19.5 C4.08266667,19.5 3,20.53936 3,21.82 C3,23.10064 4.08266667,24.14 5.41666667,24.14 C5.46741667,24.14 5.51454167,24.1284 5.56529167,24.12492 C6.43529167,29.71148 11.439,34 17.5,34 C23.561,34 28.5647083,29.71148 29.4347083,24.12492 C29.4854583,24.1284 29.5325833,24.14 29.5833333,24.14 C30.9173333,24.14 32,23.10064 32,21.82 C32,20.53936 30.9173333,19.5 29.5833333,19.5 L29.5833333,16.6 Z" id="Fill-55" fill="#F3C0AA"></path>
            <path d="M29.5833333,19.5 L29.5833333,16.6 C29.5833333,10.19448 24.1724167,5 17.5,5 C10.8275833,5 5.41666667,10.19448 5.41666667,16.6 L5.41666667,19.5 C4.08266667,19.5 3,20.53936 3,21.82 C3,23.10064 4.08266667,24.14 5.41666667,24.14 C5.46741667,24.14 5.51454167,24.1284 5.56529167,24.12492 C6.43529167,29.71148 11.439,34 17.5,34 C23.561,34 28.5647083,29.71148 29.4347083,24.12492 C29.4854583,24.1284 29.5325833,24.14 29.5833333,24.14 C30.9173333,24.14 32,23.10064 32,21.82 C32,20.53936 30.9173333,19.5 29.5833333,19.5 Z" id="Stroke-56" stroke="#45413C" stroke-linecap="round" stroke-linejoin="round"></path>
            <path d="M12,24.5 C12,25.328 11.328,26 10.5,26 C9.672,26 9,25.328 9,24.5 C9,23.672 9.672,23 10.5,23 C11.328,23 12,23.672 12,24.5" id="Fill-57" fill="#ED9E7C"></path>
            <path d="M22,24.5 C22,25.328 22.672,26 23.5,26 C24.328,26 25,25.328 25,24.5 C25,23.672 24.328,23 23.5,23 C22.672,23 22,23.672 22,24.5" id="Fill-58" fill="#ED9E7C"></path>
            <path d="M17.4947702,25.2379049 C18.7315002,25.2379049 21.4140793,25.3260378 21.957543,25.7664631 C22.6549917,26.3316785 24.7236859,31.5450239 23.673852,32.8758469 C22.6596177,34.161542 19.9585904,35.4425981 17.4947702,35.4425981 C15.0670589,35.4425981 11.9549512,34.0387091 11.2135216,32.6326421 C10.472092,31.2265751 12.6116582,25.6553056 13.3944166,25.5130726 C14.9087607,25.2379049 16.7729931,25.2379049 17.4947702,25.2379049 Z" id="Path-2" stroke="#45413C" fill="#BAB9BA"></path>
            <path d="M21,28 C19.9371667,28.6630884 18.718,29 17.5,29 C16.282,29 15.0628333,28.6630884 14,28" id="Stroke-59" stroke="#45413C" stroke-linecap="round" stroke-linejoin="round"></path>
            <path d="M6.6421363,9.53975571 C5.14588685,12.1653405 4.54118693,17.6524095 5.2375843,18.852452 C5.65013618,19.5633676 7.11632173,13.1575498 8.19622851,16.4744932 C8.9410796,18.7623101 8.73047836,11.5678468 15.2841976,11.5678468 C20.6472513,11.5678468 23.5903703,11.1999285 25.4317507,12.771221 C26.7061579,13.8587022 28.149908,16.4847351 28.603798,17.9335063 C28.8586083,18.7468349 30.0924198,18.6642959 30.0844076,18.3982438 C30.0581047,17.5248273 30.3550338,13.0848322 28.1014932,9.53975571 C26.6740717,7.29425866 23.3079,4.23664225 17.368198,4.23664225 C11.4284959,4.23664225 8.3787641,6.49236039 6.6421363,9.53975571 Z" id="Path-3" stroke="#45413C" fill="#B1AFB1"></path>
            <path d="M11,19.5444167 C11,20.39725 11.6944306,21.090625 12.5525742,21.090625 C13.4089187,21.090625 14.1033493,20.39725 14.1033493,19.5444167 C14.1033493,18.6915833 13.4089187,18 12.5525742,18 C11.6944306,18 11,18.6915833 11,19.5444167 Z" id="Fill-91" fill="#45413C"></path>
            <path d="M20,19.5444167 C20,20.39725 20.6926316,21.090625 21.5507751,21.090625 C22.4089187,21.090625 23.1015502,20.39725 23.1015502,19.5444167 C23.1015502,18.6915833 22.4089187,18 21.5507751,18 C20.6926316,18 20,18.6915833 20,19.5444167 Z" id="Fill-93" fill="#45413C"></path>
            <g id="Group-5">
                <path d="M0.734124579,11.2554393 C5.66677286,14.2050618 11.1203595,15.679873 17.0948846,15.679873 C23.0694096,15.679873 28.7400074,14.2050618 34.1066779,11.2554393 C29.5919331,11.1476855 25.7744197,10.6427407 22.6541378,9.74060495 C17.9737149,8.38740127 16.8848121,8.00458505 13.3208353,9.35778873 C10.9448508,10.2599245 6.74928056,10.8924747 0.734124579,11.2554393 Z" id="Path-13" stroke="#45413C" fill="#5B5B5B" stroke-linecap="round" stroke-linejoin="round"></path>
                <path d="M6,10.5844751 C6.84105025,8.34790701 7.45283759,6.6684706 7.83536201,5.54616586 C8.21788643,4.42386112 8.69369956,2.57513917 9.2628014,0 C12.7082893,0.441855795 15.3117159,0.662783693 17.0730813,0.662783693 C18.8344467,0.662783693 21.5962853,0.441855795 25.3585972,4.28702942e-17 C25.923776,2.3369791 26.4267536,4.08296137 26.8675299,5.23794683 C27.3083062,6.39293229 28.1517773,8.17510838 29.3979432,10.5844751 C24.5437557,11.7658391 20.6440985,12.356521 17.6989716,12.356521 C14.7538448,12.356521 10.8541875,11.7658391 6,10.5844751 Z" id="Path-14" stroke="#45413C" fill="#5B5B5B" stroke-linecap="round" stroke-linejoin="round"></path>
                <path d="M7.60971131,6.61883348 L6.2200947,10.4510109 C11.276624,11.7428621 14.9532009,12.3887877 17.2498254,12.3887877 C19.5464498,12.3887877 23.5505594,11.7428621 29.2621541,10.4510109 L27.3167358,6.61883348 C24.6154152,7.27584667 21.2597784,7.60435326 17.2498254,7.60435326 C13.2398723,7.60435326 10.026501,7.27584667 7.60971131,6.61883348 Z" id="Path-15" fill="#B08056"></path>
                <path d="M6,10.5844751 C6.84105025,8.34790701 7.45283759,6.6684706 7.83536201,5.54616586 C8.21788643,4.42386112 8.69369956,2.57513917 9.2628014,0 C12.7082893,0.441855795 15.3117159,0.662783693 17.0730813,0.662783693 C18.8344467,0.662783693 21.5962853,0.441855795 25.3585972,4.28702942e-17 C25.923776,2.3369791 26.4267536,4.08296137 26.8675299,5.23794683 C27.3083062,6.39293229 28.1517773,8.17510838 29.3979432,10.5844751 C24.5437557,11.7658391 20.6440985,12.356521 17.6989716,12.356521 C14.7538448,12.356521 10.8541875,11.7658391 6,10.5844751 Z" id="Path-14" stroke="#45413C" stroke-linecap="round" stroke-linejoin="round"></path>
            </g>
        </g>
    </g>
</svg>