<?xml version="1.0" encoding="UTF-8"?>
<svg width="32px" height="41px" viewBox="0 0 32 41" version="1.1" xmlns="http://www.w3.org/2000/svg" xmlns:xlink="http://www.w3.org/1999/xlink">
    <!-- Generator: Sketch 50.2 (55047) - http://www.bohemiancoding.com/sketch -->
    <title>person4 copy</title>
    <desc>Created with Sketch.</desc>
    <defs></defs>
    <g id="Page-1" stroke="none" stroke-width="1" fill="none" fill-rule="evenodd">
        <g id="person4-copy" transform="translate(0.000000, 1.000000)">
            <path d="M23.5237387,38.5391319 C27.7179744,38.5391319 31.1196983,35.1169689 31.1196983,30.8946874 L31.1196983,15.6057985 C31.1196983,6.82488 23.7642774,-0.22712 14.9162505,0.350035556 C6.84174545,0.876228148 0.735859933,7.98683556 0.735859933,16.129443 L0.735859933,30.8946874 C0.735859933,35.1169689 4.13758384,38.5391319 8.33181953,38.5391319 L23.5237387,38.5391319 Z" id="Fill-11" fill="#FC601D"></path>
            <path d="M14.9165037,0.349908148 C6.84199865,0.876100741 0.736113131,7.98670815 0.736113131,16.1293156 L0.736113131,19.9515378 C0.736113131,11.8089304 6.84199865,4.69832296 14.9165037,4.17213037 C23.7645306,3.59497481 31.1199515,10.6482489 31.1199515,19.4278933 L31.1199515,15.6056711 C31.1199515,6.82602667 23.7645306,-0.227247407 14.9165037,0.349908148" id="Fill-13" fill="#FFA16E"></path>
            <path d="M23.5237387,38.5391319 C27.7179744,38.5391319 31.1196983,35.1169689 31.1196983,30.8946874 L31.1196983,15.6057985 C31.1196983,6.82488 23.7642774,-0.22712 14.9162505,0.350035556 C6.84174545,0.876228148 0.735859933,7.98683556 0.735859933,16.129443 L0.735859933,30.8946874 C0.735859933,35.1169689 4.13758384,38.5391319 8.33181953,38.5391319 L23.5237387,38.5391319 Z" id="Stroke-15" stroke="#45413C" stroke-linecap="round" stroke-linejoin="round"></path>
            <path d="M28.843569,19.4280207 L28.843569,16.370243 C28.843569,16.0122281 28.8169832,15.6605837 28.7903973,15.3102133 C26.788862,16.4645244 24.4758923,17.1346874 22.0046734,17.1346874 C17.8079057,17.1346874 14.0592997,15.2286726 11.552633,12.2345985 C10.4107071,15.5586578 7.70021549,17.8991319 4.53396633,17.8991319 C4.01490909,17.8991319 3.50724579,17.8354281 3.0173064,17.7156652 L3.0173064,19.4280207 C1.7576431,19.4280207 0.738518519,20.4549244 0.738518519,21.7213541 L0.738518519,22.4857985 C0.738518519,23.7522281 1.7576431,24.7791319 3.0173064,24.7791319 C3.08820202,24.7791319 3.15656566,24.763843 3.22746128,24.7587467 C4.2946936,30.8500948 9.56882155,35.4813541 15.9304377,35.4813541 C22.2895219,35.4813541 27.5636498,30.8500948 28.6334141,24.7587467 C28.7043098,24.763843 28.7701414,24.7791319 28.843569,24.7791319 C30.1019663,24.7791319 31.1223569,23.7522281 31.1223569,22.4857985 L31.1223569,21.7213541 C31.1223569,20.4549244 30.1019663,19.4280207 28.843569,19.4280207" id="Fill-53" fill="#FFDCD1"></path>
            <path d="M28.843569,19.4280207 L28.843569,16.370243 C28.843569,16.0122281 28.8169832,15.6605837 28.7903973,15.3102133 C26.788862,16.4645244 24.4758923,17.1346874 22.0046734,17.1346874 C17.8079057,17.1346874 14.0592997,15.2286726 11.552633,12.2345985 C10.4107071,15.5586578 7.70021549,17.8991319 4.53396633,17.8991319 C4.01490909,17.8991319 3.50724579,17.8354281 3.0173064,17.7156652 L3.0173064,19.4280207 C1.7576431,19.4280207 0.738518519,20.4549244 0.738518519,21.7213541 L0.738518519,22.4857985 C0.738518519,23.7522281 1.7576431,24.7791319 3.0173064,24.7791319 C3.08820202,24.7791319 3.15656566,24.763843 3.22746128,24.7587467 C4.2946936,30.8500948 9.56882155,35.4813541 15.9304377,35.4813541 C22.2895219,35.4813541 27.5636498,30.8500948 28.6334141,24.7587467 C28.7043098,24.763843 28.7701414,24.7791319 28.843569,24.7791319 C30.1019663,24.7791319 31.1223569,23.7522281 31.1223569,22.4857985 L31.1223569,21.7213541 C31.1223569,20.4549244 30.1019663,19.4280207 28.843569,19.4280207 Z" id="Stroke-55" stroke="#45413C" stroke-linecap="round" stroke-linejoin="round"></path>
            <path d="M9.85367003,24.7793867 C9.85367003,25.6240978 9.17383165,26.3082756 8.33447811,26.3082756 C7.49512458,26.3082756 6.8152862,25.6240978 6.8152862,24.7793867 C6.8152862,23.9346756 7.49512458,23.2504978 8.33447811,23.2504978 C9.17383165,23.2504978 9.85367003,23.9346756 9.85367003,24.7793867" id="Fill-57" fill="#FFCEBF"></path>
            <path d="M25.0455892,24.7793867 C25.0455892,25.6240978 24.3657508,26.3082756 23.5263973,26.3082756 C22.6870438,26.3082756 22.0072054,25.6240978 22.0072054,24.7793867 C22.0072054,23.9346756 22.6870438,23.2504978 23.5263973,23.2504978 C24.3657508,23.2504978 25.0455892,23.9346756 25.0455892,24.7793867" id="Fill-59" fill="#FFCEBF"></path>
            <path d="M12.1322047,27.837037 C14.4312485,29.8755556 17.4291205,29.8755556 19.7281643,27.837037" id="Stroke-61" stroke="#45413C" stroke-linecap="round" stroke-linejoin="round"></path>
            <path d="M22.7670545,20.9571644 C22.3758626,20.209283 21.6884283,19.6830904 20.8680646,19.6830904 C20.046435,19.6830904 19.3590007,20.209283 18.9690747,20.9571644" id="Stroke-63" stroke="#45413C" stroke-linecap="round" stroke-linejoin="round"></path>
            <path d="M12.8914209,20.7020948 C12.500229,19.9542133 11.8140606,19.4280207 10.992431,19.4280207 C10.1720673,19.4280207 9.484633,19.9542133 9.09344108,20.7020948" id="Stroke-65" stroke="#45413C" stroke-linecap="round" stroke-linejoin="round"></path>
        </g>
    </g>
</svg>