<?xml version="1.0" encoding="UTF-8"?>
<svg width="32px" height="37px" viewBox="0 0 32 37" version="1.1" xmlns="http://www.w3.org/2000/svg" xmlns:xlink="http://www.w3.org/1999/xlink">
    <!-- Generator: Sketch 50.2 (55047) - http://www.bohemiancoding.com/sketch -->
    <title>person5 copy 2</title>
    <desc>Created with Sketch.</desc>
    <defs></defs>
    <g id="Characters" stroke="none" stroke-width="1" fill="none" fill-rule="evenodd">
        <g id="person5-copy-2" transform="translate(0.000000, 1.000000)">
            <path d="M31.2094118,15.68 L31.2094118,30.52 C31.2096999,31.2250354 30.7756517,31.8573988 30.1176471,32.1105882 C21.0564163,35.7432967 10.9435837,35.7432967 1.88235294,32.1105882 C1.23174954,31.8513508 0.806098083,31.2203412 0.809411765,30.52 L0.809411765,15.68 C0.809405337,7.28741939 7.60742581,0.480975092 16,0.470588235 C24.3999262,0.470588235 31.2094118,7.28007383 31.2094118,15.68 Z" id="_Path_" fill="#322920" fill-rule="nonzero"></path>
            <path d="M16,0.470588235 C7.60007383,0.470588235 0.790588235,7.28007383 0.790588235,15.68 L0.790588235,19.8870588 C0.790588235,11.4871327 7.60007383,4.67764706 16,4.67764706 C24.3999262,4.67764706 31.2094118,11.4871327 31.2094118,19.8870588 L31.2094118,15.68 C31.2094118,7.28007383 24.3999262,0.470588235 16,0.470588235 Z" id="_Path_2" fill="#5A5652" fill-rule="nonzero"></path>
            <path d="M31.2094118,15.68 L31.2094118,30.52 C31.2096999,31.2250354 30.7756517,31.8573988 30.1176471,32.1105882 C21.0564163,35.7432967 10.9435837,35.7432967 1.88235294,32.1105882 C1.23174954,31.8513508 0.806098083,31.2203412 0.809411765,30.52 L0.809411765,15.68 C0.809405337,7.28741939 7.60742581,0.480975092 16,0.470588235 C24.3999262,0.470588235 31.2094118,7.28007383 31.2094118,15.68 Z" id="_Path_3" stroke="#45413C" stroke-linecap="round" stroke-linejoin="round"></path>
            <g id="_Group_" transform="translate(0.000000, 9.411765)" fill="#FFCEBF" fill-rule="nonzero" stroke="#45413C" stroke-linecap="round" stroke-linejoin="round">
                <path d="M28.6776471,9.41176471 C25.0958408,8.41322091 22.1624856,5.84004158 20.7058824,2.41882353 L19.8305882,0.338823529 C16.4642758,4.88465751 11.4879529,7.97213254 5.92,8.96941176 L3.28470588,9.44941176 C1.94377127,9.53113199 0.898108873,10.6424599 0.898108873,11.9858824 C0.898108873,13.3293048 1.94377127,14.4406327 3.28470588,14.5223529 L3.44470588,14.5223529 C4.37749157,20.7157082 9.69914781,25.2958846 15.9623529,25.2958846 C22.2255581,25.2958846 27.5472143,20.7157082 28.48,14.5223529 L28.64,14.5223529 C29.9809346,14.4406327 31.026597,13.3293048 31.026597,11.9858824 C31.026597,10.6424599 29.9809346,9.53113199 28.64,9.44941176 L28.6776471,9.41176471 Z" id="_Path_4"></path>
            </g>
            <g id="_Group_2" transform="translate(5.647059, 19.764706)">
                <g id="_Group_3" transform="translate(5.647059, 7.529412)" fill-rule="nonzero">
                    <g id="_Group_4">
                        <path d="M1.23294118,0.442352941 C1.07381577,0.440571779 0.922111963,0.509528055 0.818823529,0.630588235 C0.712907431,0.748008964 0.667681332,0.908039778 0.696470588,1.06352941 C1.02614182,3.02089244 2.72095083,4.45412175 4.70588235,4.45412175 C6.69081388,4.45412175 8.38562288,3.02089244 8.71529412,1.06352941 C8.74408337,0.908039778 8.69885727,0.748008964 8.59294118,0.630588235 C8.48965274,0.509528055 8.33794894,0.440571779 8.17882353,0.442352941 L1.23294118,0.442352941 Z" id="_Path_7" fill="#FF6242"></path>
                        <path d="M4.70588235,2.10823529 C3.59846557,2.07408248 2.51050763,2.40476878 1.60941176,3.04941176 C2.38876993,3.94562299 3.51819817,4.46020585 4.70588235,4.46020585 C5.89356654,4.46020585 7.02299478,3.94562299 7.80235294,3.04941176 C6.90125707,2.40476878 5.81329913,2.07408248 4.70588235,2.10823529 Z" id="_Path_8" fill="#FFA694"></path>
                    </g>
                </g>
                <g id="_Group_5" transform="translate(5.647059, 7.529412)" stroke="#45413C" stroke-linecap="round" stroke-linejoin="round">
                    <path d="M1.23294118,0.442352941 C1.07381577,0.440571779 0.922111963,0.509528055 0.818823529,0.630588235 C0.712907431,0.748008964 0.667681332,0.908039778 0.696470588,1.06352941 C1.02614182,3.02089244 2.72095083,4.45412175 4.70588235,4.45412175 C6.69081388,4.45412175 8.38562288,3.02089244 8.71529412,1.06352941 C8.74408337,0.908039778 8.69885727,0.748008964 8.59294118,0.630588235 C8.48965274,0.509528055 8.33794894,0.440571779 8.17882353,0.442352941 L1.23294118,0.442352941 Z" id="_Path_9"></path>
                </g>
                <ellipse id="_Ellipse_2" fill="#FFB59E" fill-rule="nonzero" cx="2.05176471" cy="5.70352941" rx="1.40235294" ry="1"></ellipse>
                <ellipse id="_Ellipse_3" fill="#FFB59E" fill-rule="nonzero" cx="18.6541176" cy="5.70352941" rx="1.40235294" ry="1"></ellipse>
            </g>
            <g id="glasses" transform="translate(4.000000, 18.000000)" stroke="#45413C">
                <path d="M18.6206897,7.06896552 C21.3630691,7.06896552 23.5862069,5.33985834 23.5862069,3.20689655 C23.5862069,1.07393476 21.3630691,0.344827586 18.6206897,0.344827586 C15.8783102,0.344827586 13.6551724,1.07393476 13.6551724,3.20689655 C13.6551724,5.33985834 15.8783102,7.06896552 18.6206897,7.06896552 Z" id="Oval-2"></path>
                <path d="M5.37931034,7.06896552 C8.12168979,7.06896552 10.3448276,5.33985834 10.3448276,3.20689655 C10.3448276,1.07393476 8.12168979,0.344827586 5.37931034,0.344827586 C2.6369309,0.344827586 0.413793103,1.07393476 0.413793103,3.20689655 C0.413793103,5.33985834 2.6369309,7.06896552 5.37931034,7.06896552 Z" id="Oval-2-Copy"></path>
                <path d="M10.6263919,2.84995139 L13.4543487,2.84995139" id="Path-4"></path>
            </g>
            <path d="M23.7979798,21.2740741 C23.4067879,20.5261926 22.7193535,20 21.8989899,20 C21.0773603,20 20.3899259,20.5261926 20,21.2740741" id="Stroke-63" stroke="#45413C" stroke-linecap="round" stroke-linejoin="round"></path>
            <path d="M11.7979798,21.2740741 C11.4067879,20.5261926 10.7206195,20 9.8989899,20 C9.07862626,20 8.39119192,20.5261926 8,21.2740741" id="Stroke-65" stroke="#45413C" stroke-linecap="round" stroke-linejoin="round"></path>
        </g>
    </g>
</svg>