<?xml version="1.0" encoding="UTF-8"?>
<svg width="33px" height="48px" viewBox="0 0 33 48" version="1.1" xmlns="http://www.w3.org/2000/svg" xmlns:xlink="http://www.w3.org/1999/xlink">
    <!-- Generator: Sketch 51.2 (57519) - http://www.bohemiancoding.com/sketch -->
    <title>Group 4</title>
    <desc>Created with Sketch.</desc>
    <defs></defs>
    <g id="Characters" stroke="none" stroke-width="1" fill="none" fill-rule="evenodd">
        <g id="Group-4">
            <g id="Norton" transform="translate(0.000000, 7.000000)">
                <path d="M28.5833333,18.6 C28.5833333,12.19448 23.1724167,7 16.5,7 C9.8275833,7 4.41666667,12.19448 4.41666667,18.6 L4.41666667,21.5 C3.08266667,21.5 2,22.53936 2,23.82 C2,25.10064 3.08266667,26.14 4.41666667,26.14 C4.46741667,26.14 4.51454167,26.1284 4.56529167,26.12492 C5.43529167,31.71148 10.439,36 16.5,36 C22.561,36 27.5647083,31.71148 28.4347083,26.12492 C28.4854583,26.1284 28.5325833,26.14 28.5833333,26.14 C29.9173333,26.14 31,25.10064 31,23.82 C31,22.53936 29.9173333,21.5 28.5833333,21.5 L28.5833333,18.6 Z" id="Fill-55" fill="#F3C0AA" fill-rule="nonzero"></path>
                <path d="M28.5833333,21.5 L28.5833333,18.6 C28.5833333,12.19448 23.1724167,7 16.5,7 C9.8275833,7 4.41666667,12.19448 4.41666667,18.6 L4.41666667,21.5 C3.08266667,21.5 2,22.53936 2,23.82 C2,25.10064 3.08266667,26.14 4.41666667,26.14 C4.46741667,26.14 4.51454167,26.1284 4.56529167,26.12492 C5.43529167,31.71148 10.439,36 16.5,36 C22.561,36 27.5647083,31.71148 28.4347083,26.12492 C28.4854583,26.1284 28.5325833,26.14 28.5833333,26.14 C29.9173333,26.14 31,25.10064 31,23.82 C31,22.53936 29.9173333,21.5 28.5833333,21.5 Z" id="Stroke-56" stroke="#45413C" stroke-linecap="round" stroke-linejoin="round"></path>
                <path d="M11,26.5 C11,27.328 10.328,28 9.5,28 C8.672,28 8,27.328 8,26.5 C8,25.672 8.672,25 9.5,25 C10.328,25 11,25.672 11,26.5" id="Fill-57" fill="#ED9E7C" fill-rule="nonzero"></path>
                <path d="M22,26.5 C22,27.328 22.672,28 23.5,28 C24.328,28 25,27.328 25,26.5 C25,25.672 24.328,25 23.5,25 C22.672,25 22,25.672 22,26.5" id="Fill-58" fill="#ED9E7C" fill-rule="nonzero"></path>
                <path d="M16.4947702,27.2379049 C17.7315002,27.2379049 20.4140793,27.3260378 20.957543,27.7664631 C21.6549917,28.3316785 23.7236859,33.5450239 22.673852,34.8758469 C21.6596177,36.161542 18.9764937,39.5598693 16.5126735,39.5598693 C14.0849622,39.5598693 10.9549512,36.0387091 10.2135216,34.6326421 C9.472092,33.2265751 11.6116582,27.6553056 12.3944166,27.5130726 C13.9087607,27.2379049 15.7729931,27.2379049 16.4947702,27.2379049 Z" id="Path-2" stroke="#45413C" fill="#A86C4D" fill-rule="nonzero"></path>
                <path d="M20,30 C18.9371667,30.6630884 17.718,31 16.5,31 C15.282,31 14.0628333,30.6630884 13,30" id="Stroke-59" stroke="#45413C" stroke-linecap="round" stroke-linejoin="round"></path>
                <path d="M5.6421363,11.5397557 C4.14588685,14.1653405 3.54118693,19.6524095 4.2375843,20.852452 C4.35291052,21.0511839 5.64531664,20.769714 5.98362735,19.9335063 C7.00490301,17.4092038 9.56252841,13.5678468 14.2841976,13.5678468 C19.6472513,13.5678468 22.5903703,13.1999285 24.4317507,14.771221 C25.7061579,15.8587022 27.149908,18.4847351 27.603798,19.9335063 C27.8586083,20.7468349 29.0924198,20.6642959 29.0844076,20.3982438 C29.0581047,19.5248273 29.3550338,15.0848322 27.1014932,11.5397557 C25.6740717,9.29425866 22.3079,6.23664225 16.368198,6.23664225 C10.4284959,6.23664225 7.3787641,8.49236039 5.6421363,11.5397557 Z" id="Path-3" stroke="#45413C" fill="#A86C4D" fill-rule="nonzero"></path>
                <path d="M10,21.5444167 C10,22.39725 10.6944306,23.090625 11.5525742,23.090625 C12.4089187,23.090625 13.1033493,22.39725 13.1033493,21.5444167 C13.1033493,20.6915833 12.4089187,20 11.5525742,20 C10.6944306,20 10,20.6915833 10,21.5444167 Z" id="Fill-91" fill="#45413C" fill-rule="nonzero"></path>
                <path d="M19,21.5444167 C19,22.39725 19.6926316,23.090625 20.5507751,23.090625 C21.4089187,23.090625 22.1015502,22.39725 22.1015502,21.5444167 C22.1015502,20.6915833 21.4089187,20 20.5507751,20 C19.6926316,20 19,20.6915833 19,21.5444167 Z" id="Fill-93" fill="#45413C" fill-rule="nonzero"></path>
                <g id="Group-5" fill="#2877D4" fill-rule="nonzero" stroke="#45413C" stroke-linecap="round" stroke-linejoin="round">
                    <path d="M0.749381778,13.2554393 C5.68203006,16.2050618 10.1203595,17.679873 16.0948846,17.679873 C22.0694096,17.679873 26.7217926,16.2050618 32.0884631,13.2554393 C27.5737183,13.1476855 24.7744197,12.6427407 21.6541378,11.740605 C16.9737149,10.3874013 15.8848121,10.0045851 12.3208353,11.3577887 C9.9448508,12.2599245 6.76453776,12.8924747 0.749381778,13.2554393 Z" id="Path-13"></path>
                    <path d="M5.15851269,12.5844751 C5.75683118,10.2757048 7.55029671,2.89104705 8.11939855,0.315907877 C11.5648865,0.757763672 14.3117159,0.662783693 16.0730813,0.662783693 C17.8344467,0.662783693 20.9967215,0.757763672 24.7590334,0.315907877 C25.3242122,2.65288698 27.226275,10.3678434 27.8616453,12.5844751 C23.0074578,13.7658391 19.6440985,14.356521 16.6989716,14.356521 C13.7538448,14.356521 10.0127002,13.7658391 5.15851269,12.5844751 Z" id="Path-14"></path>
                </g>
            </g>
            <g id="Group-3" transform="translate(13.000000, 0.000000)">
                <path d="M3.5,19 C4.24240531,19 3.93862544,18.1755358 4.39650364,16.4284396 C4.79017898,14.926318 6.36079628,12.6702423 6.36079628,10.5 C6.36079628,7.37038642 5.40719752,4.07381663 3.5,0.610290643 C1.45559499,4.07381663 0.433392479,7.37038642 0.433392479,10.5 C0.433392479,12.593173 2.09818567,14.9472574 2.46719723,16.4284396 C2.92577871,18.2691481 2.73492724,19 3.5,19 Z" id="Oval-3-Copy-2" fill="#E01E1E"></path>
                <circle id="Oval-3" fill="#F5A623" cx="3.5" cy="19.5" r="2.5"></circle>
            </g>
        </g>
    </g>
</svg>