<?xml version="1.0" encoding="UTF-8"?>
<svg width="32px" height="41px" viewBox="0 0 32 41" version="1.1" xmlns="http://www.w3.org/2000/svg" xmlns:xlink="http://www.w3.org/1999/xlink">
    <!-- Generator: Sketch 50.2 (55047) - http://www.bohemiancoding.com/sketch -->
    <title>person13</title>
    <desc>Created with Sketch.</desc>
    <defs></defs>
    <g id="Page-1" stroke="none" stroke-width="1" fill="none" fill-rule="evenodd">
        <g id="person13">
            <g id="_Group_" transform="translate(0.000000, 3.764706)" fill-rule="nonzero">
                <g id="_Group_2">
                    <path d="M16,-5.22457894e-17 C12.3564783,-8.55816856e-07 8.86232312,1.44802638 6.28684698,4.02526776 C3.71137084,6.60250913 2.26573802,10.0976556 2.26823529,13.7411765 L2.26823206,20.9317647 L29.7317679,20.9317647 L29.7317647,13.7411765 C29.734262,10.0976556 28.2886292,6.60250913 25.713153,4.02526776 C23.1376769,1.44802638 19.6435217,-8.55816854e-07 16,-5.22457894e-17 Z" id="Shape" stroke="#45413C" fill="#FFE500" stroke-linecap="round" stroke-linejoin="round"></path>
                    <path d="M31.2,19.8870588 C31.0617025,18.8315831 30.2868916,17.9706821 29.2517647,17.7223529 L28.4329412,17.4964706 C27.1926389,17.1580066 26.3375875,16.0243864 26.3529412,14.7388235 L26.3529412,11.8494118 C26.3517886,10.6606339 25.5466005,9.62317997 24.3952941,9.32705882 C21.7250802,10.3840362 18.8712401,10.8991351 16,10.8423529 C13.1350726,10.8966339 10.2878759,10.3815792 7.62352941,9.32705882 C6.46475047,9.61591327 5.65040127,10.655178 5.64705882,11.8494118 L5.64705882,14.7388235 C5.66016645,16.0297675 4.79601458,17.1651778 3.54823529,17.4964706 L2.72941176,17.7223529 C1.69428484,17.9706821 0.919473921,18.8315831 0.781176471,19.8870588 C0.720549272,20.5935368 0.958966885,21.2930618 1.43843002,21.8154619 C1.91789316,22.337862 2.5944548,22.6352548 3.30352941,22.6352941 L3.46352941,22.6352941 C4.3963151,28.8286494 9.71797133,33.4088258 15.9811765,33.4088258 C22.2443816,33.4088258 27.5660378,28.8286494 28.4988235,22.6352941 L28.6588235,22.6352941 C29.3711682,22.6405526 30.0527683,22.3454651 30.5363969,21.8224298 C31.0200254,21.2993945 31.2609279,20.5968125 31.2,19.8870588 Z" id="Shape" stroke="#45413C" fill="#FFCEBF" stroke-linecap="round" stroke-linejoin="round"></path>
                    <path d="M8.40470588,19.5858824 C8.40472247,20.0245062 8.66945926,20.4197537 9.0750635,20.5867149 C9.48066775,20.7536761 9.94693615,20.6593365 10.2557327,20.3478312 C10.5645292,20.0363259 10.6547932,19.5692514 10.484296,19.1651207 C10.3137988,18.7609901 9.91625429,18.4997153 9.47764706,18.5035294 C8.88355881,18.5086956 8.40468342,18.9917716 8.40470588,19.5858824 Z" id="_Path_" stroke="#45413C" fill="#45413C" stroke-linecap="round" stroke-linejoin="round"></path>
                    <path d="M23.5952941,19.5858824 C23.5952775,20.0245062 23.3305407,20.4197537 22.9249365,20.5867149 C22.5193323,20.7536761 22.0530639,20.6593365 21.7442673,20.3478312 C21.4354708,20.0363259 21.3452068,19.5692514 21.515704,19.1651207 C21.6862012,18.7609901 22.0837457,18.4997153 22.5223529,18.5035294 C23.1164412,18.5086956 23.5953166,18.9917716 23.5952941,19.5858824 Z" id="_Path_2" stroke="#45413C" fill="#45413C" stroke-linecap="round" stroke-linejoin="round"></path>
                    <ellipse id="_Ellipse_2" fill="#FFB59E" cx="7.69882353" cy="24.1788235" rx="1.40235294" ry="1"></ellipse>
                    <ellipse id="_Ellipse_3" fill="#FFB59E" cx="24.3011765" cy="24.1788235" rx="1.40235294" ry="1"></ellipse>
                </g>
            </g>
            <path d="M26.6823529,19.2188235 L26.6823529,25.7505882 C26.6921491,29.3163837 24.9282681,32.6536465 21.9764706,34.6541176 L21.9764706,33.4588235 C21.9764706,31.0211765 19.3129412,29.0541176 16.0376471,29.0541176 C12.7623529,29.0541176 10.0611765,31.0588235 10.0611765,33.4588235 L10.0611765,34.6541176 C7.10937892,32.6536465 5.34549794,29.3163837 5.35529412,25.7505882 L5.35529412,19.2188235 L3.54823529,21.2611765 L3.54823529,25.9105882 C3.54823529,34.6352941 11.1811765,39.9341176 16.0376471,39.8964706 C20.8941176,39.8588235 28.5270588,34.6541176 28.5270588,25.9105882 L28.5270588,21.2611765 L26.6823529,19.2188235 Z" id="Shape" stroke="#45413C" fill="#A86C4D" fill-rule="nonzero" stroke-linecap="round" stroke-linejoin="round"></path>
            <path d="M13.3552941,33.0541176 C13.3552941,33.0541176 14.0047059,33.9294118 16,33.9294118 C17.9952941,33.9294118 18.6447059,33.0541176 18.6447059,33.0541176" id="_Path_3" stroke="#45413C" stroke-linecap="round" stroke-linejoin="round"></path>
            <path d="M30.4752941,14.7388235 C30.4752941,13.9482353 30.4752941,13.0635294 30.4752941,12.0658824 C30.5129412,5.55294118 24.3011765,0.611764706 16,0.611764706 C7.69882353,0.611764706 1.48705882,5.55294118 1.48705882,12.0658824 C1.48705882,20.4611765 2.26823529,21.6752941 2.26823529,21.6752941 C6.81097414,19.560741 11.5362339,17.8627976 16.3858824,16.6023529 C21.0346963,17.6972575 25.5210719,19.3930948 29.7317647,21.6470588 C29.7317647,21.6470588 30.3341176,20.7058824 30.4752941,14.7388235 Z" id="_Path_4" fill="#F0F0F0" fill-rule="nonzero"></path>
            <path d="M16,4.46117647 C23.9247059,4.46117647 29.9388235,8.96 30.4754643,15.04 L30.4752941,14.7388235 C30.4752941,13.9482353 30.4752941,13.0635294 30.4752941,12.0658824 C30.5129412,5.55294118 24.3011765,0.611764706 16,0.611764706 C7.69882353,0.611764706 1.48705882,5.55294118 1.48705882,12.0658824 C1.48705882,13.1858824 1.48705882,14.1741176 1.48705882,15.04 C2.05176471,8.96941176 8.06588235,4.46117647 16,4.46117647 Z" id="Shape" fill="#FFFFFF" fill-rule="nonzero"></path>
            <path d="M30.4752941,14.7388235 C30.4752941,13.9482353 30.4752941,13.0635294 30.4752941,12.0658824 C30.5129412,5.55294118 24.3011765,0.611764706 16,0.611764706 C7.69882353,0.611764706 1.48705882,5.55294118 1.48705882,12.0658824 C1.48705882,20.4611765 2.26823529,21.6752941 2.26823529,21.6752941 C6.81097414,19.560741 11.5362339,17.8627976 16.3858824,16.6023529 C21.0346963,17.6972575 25.5210719,19.3930948 29.7317647,21.6470588 C29.7317647,21.6470588 30.3341176,20.7058824 30.4752941,14.7388235 Z" id="_Path_5" stroke="#45413C" stroke-linecap="round" stroke-linejoin="round"></path>
            <path d="M1.48705882,12.0658824 C1.48705882,12.0658824 6.91764706,2.16470588 22.5223529,1.71294118" id="_Path_6" stroke="#45413C" stroke-linecap="round" stroke-linejoin="round"></path>
            <path d="M26.7105882,10.2870588 C19.3343868,10.4563738 12.1398343,12.6085626 5.88235294,16.5176471" id="_Path_7" stroke="#45413C" stroke-linecap="round" stroke-linejoin="round"></path>
            <path d="M16.3764706,16.6023529 C26.2588235,14.24 30.4941176,14.72 30.4941176,14.72" id="Shape" stroke="#45413C" stroke-linecap="round" stroke-linejoin="round"></path>
        </g>
    </g>
</svg>