<?xml version="1.0" encoding="UTF-8"?>
<svg width="32px" height="42px" viewBox="0 0 32 42" version="1.1" xmlns="http://www.w3.org/2000/svg" xmlns:xlink="http://www.w3.org/1999/xlink">
    <!-- Generator: Sketch 50.2 (55047) - http://www.bohemiancoding.com/sketch -->
    <title>person5</title>
    <desc>Created with Sketch.</desc>
    <defs></defs>
    <g id="Page-1" stroke="none" stroke-width="1" fill="none" fill-rule="evenodd">
        <g id="person5" transform="translate(0.000000, 1.000000)">
            <path d="M16,0.470588235 C24.3999262,0.470588235 31.2094118,7.28007383 31.2094118,15.68 L31.2094118,35.52 C31.2096999,36.2250354 30.7756517,36.8573988 30.1176471,37.1105882 C21.0564163,40.7432967 10.9435837,40.7432967 1.88235294,37.1105882 C1.23174954,36.8513508 0.806098083,36.2203412 0.809411765,35.52 L0.809411765,15.68 C0.809405337,7.28741939 7.60742581,0.480975092 16,0.470588235 Z" id="_Path_" fill="#A86C4D" fill-rule="nonzero"></path>
            <path d="M16,0.470588235 C7.60007383,0.470588235 0.790588235,7.28007383 0.790588235,15.68 L0.790588235,19.8870588 C0.790588235,11.4871327 7.60007383,4.67764706 16,4.67764706 C24.3999262,4.67764706 31.2094118,11.4871327 31.2094118,19.8870588 L31.2094118,15.68 C31.2094118,7.28007383 24.3999262,0.470588235 16,0.470588235 Z" id="_Path_2" fill="#DE926A" fill-rule="nonzero"></path>
            <path d="M16,0.470588235 C24.3999262,0.470588235 31.2094118,7.28007383 31.2094118,15.68 L31.2094118,35.52 C31.2096999,36.2250354 30.7756517,36.8573988 30.1176471,37.1105882 C21.0564163,40.7432967 10.9435837,40.7432967 1.88235294,37.1105882 C1.23174954,36.8513508 0.806098083,36.2203412 0.809411765,35.52 L0.809411765,15.68 C0.809405337,7.28741939 7.60742581,0.480975092 16,0.470588235 Z" id="_Path_3" stroke="#45413C" stroke-linecap="round" stroke-linejoin="round"></path>
            <g id="_Group_" transform="translate(0.000000, 9.411765)" fill="#FFCEBF" fill-rule="nonzero" stroke="#45413C" stroke-linecap="round" stroke-linejoin="round">
                <path d="M28.6776471,9.41176471 C25.0958408,8.41322091 22.1624856,5.84004158 20.7058824,2.41882353 L19.8305882,0.338823529 C16.4642758,4.88465751 11.4879529,7.97213254 5.92,8.96941176 L3.28470588,9.44941176 C1.94377127,9.53113199 0.898108873,10.6424599 0.898108873,11.9858824 C0.898108873,13.3293048 1.94377127,14.4406327 3.28470588,14.5223529 L3.44470588,14.5223529 C4.37749157,20.7157082 9.69914781,25.2958846 15.9623529,25.2958846 C22.2255581,25.2958846 27.5472143,20.7157082 28.48,14.5223529 L28.64,14.5223529 C29.9809346,14.4406327 31.026597,13.3293048 31.026597,11.9858824 C31.026597,10.6424599 29.9809346,9.53113199 28.64,9.44941176 L28.6776471,9.41176471 Z" id="_Path_4"></path>
            </g>
            <g id="_Group_2" transform="translate(5.647059, 19.764706)">
                <path d="M2.75764706,1.11058824 C2.77319648,1.70564992 3.26635086,2.17647162 3.86149421,2.16444727 C4.45663756,2.15242291 4.93037216,1.66206604 4.92187328,1.06686191 C4.91337441,0.471657776 4.42583227,-0.0049730912 3.83058824,3.42209442e-15 C3.53938204,-0.000179316149 3.2606111,0.118015518 3.05827749,0.327448546 C2.85594389,0.536881574 2.74742924,0.819561302 2.75764706,1.11058824 Z" id="_Path_5" stroke="#45413C" fill="#45413C" fill-rule="nonzero" stroke-linecap="round" stroke-linejoin="round"></path>
                <path d="M17.9482353,1.11058824 C17.9326859,1.70564992 17.4395315,2.17647162 16.8443881,2.16444727 C16.2492448,2.15242291 15.7755102,1.66206604 15.7840091,1.06686191 C15.7925079,0.471657776 16.2800501,-0.0049730912 16.8752941,3.42209442e-15 C17.1665003,-0.000179316149 17.4452713,0.118015518 17.6476049,0.327448546 C17.8499385,0.536881574 17.9584531,0.819561302 17.9482353,1.11058824 Z" id="_Path_6" stroke="#45413C" fill="#45413C" fill-rule="nonzero" stroke-linecap="round" stroke-linejoin="round"></path>
                <g id="_Group_3" transform="translate(5.647059, 7.529412)" fill-rule="nonzero">
                    <g id="_Group_4">
                        <path d="M1.23294118,0.442352941 C1.07381577,0.440571779 0.922111963,0.509528055 0.818823529,0.630588235 C0.712907431,0.748008964 0.667681332,0.908039778 0.696470588,1.06352941 C1.02614182,3.02089244 2.72095083,4.45412175 4.70588235,4.45412175 C6.69081388,4.45412175 8.38562288,3.02089244 8.71529412,1.06352941 C8.74408337,0.908039778 8.69885727,0.748008964 8.59294118,0.630588235 C8.48965274,0.509528055 8.33794894,0.440571779 8.17882353,0.442352941 L1.23294118,0.442352941 Z" id="_Path_7" fill="#FF6242"></path>
                        <path d="M4.70588235,2.10823529 C3.59846557,2.07408248 2.51050763,2.40476878 1.60941176,3.04941176 C2.38876993,3.94562299 3.51819817,4.46020585 4.70588235,4.46020585 C5.89356654,4.46020585 7.02299478,3.94562299 7.80235294,3.04941176 C6.90125707,2.40476878 5.81329913,2.07408248 4.70588235,2.10823529 Z" id="_Path_8" fill="#FFA694"></path>
                    </g>
                </g>
                <g id="_Group_5" transform="translate(5.647059, 7.529412)" stroke="#45413C" stroke-linecap="round" stroke-linejoin="round">
                    <path d="M1.23294118,0.442352941 C1.07381577,0.440571779 0.922111963,0.509528055 0.818823529,0.630588235 C0.712907431,0.748008964 0.667681332,0.908039778 0.696470588,1.06352941 C1.02614182,3.02089244 2.72095083,4.45412175 4.70588235,4.45412175 C6.69081388,4.45412175 8.38562288,3.02089244 8.71529412,1.06352941 C8.74408337,0.908039778 8.69885727,0.748008964 8.59294118,0.630588235 C8.48965274,0.509528055 8.33794894,0.440571779 8.17882353,0.442352941 L1.23294118,0.442352941 Z" id="_Path_9"></path>
                </g>
                <ellipse id="_Ellipse_2" fill="#FFB59E" fill-rule="nonzero" cx="2.05176471" cy="5.70352941" rx="1.40235294" ry="1"></ellipse>
                <ellipse id="_Ellipse_3" fill="#FFB59E" fill-rule="nonzero" cx="18.6541176" cy="5.70352941" rx="1.40235294" ry="1"></ellipse>
            </g>
        </g>
    </g>
</svg>