<?xml version="1.0" encoding="UTF-8"?>
<svg width="34px" height="39px" viewBox="0 0 34 39" version="1.1" xmlns="http://www.w3.org/2000/svg" xmlns:xlink="http://www.w3.org/1999/xlink">
    <!-- Generator: Sketch 50.2 (55047) - http://www.bohemiancoding.com/sketch -->
    <title>person4</title>
    <desc>Created with Sketch.</desc>
    <defs></defs>
    <g id="Page-1" stroke="none" stroke-width="1" fill="none" fill-rule="evenodd">
        <g id="person4" transform="translate(1.000000, 0.000000)">
            <ellipse id="_Path_" fill="#E0E0E0" fill-rule="nonzero" cx="16" cy="5.82588235" rx="6.19294118" ry="5.35529412"></ellipse>
            <path d="M16,2.58823529 C19.0023529,2.58823529 21.5058824,4.47058824 22.0705882,6.88 C22.1540714,6.53490759 22.195159,6.1809222 22.1929412,5.82588235 C22.1929412,2.87058824 19.4258824,0.470588235 16,0.470588235 C12.5741176,0.470588235 9.80705882,2.87058824 9.80705882,5.82588235 C9.80484103,6.1809222 9.84592862,6.53490759 9.92941176,6.88 C10.4941176,4.43294118 12.9976471,2.58823529 16,2.58823529 Z" id="_Path_2" fill="#FFFFFF" fill-rule="nonzero"></path>
            <ellipse id="_Path_3" stroke="#45413C" stroke-linecap="round" stroke-linejoin="round" cx="16" cy="5.82588235" rx="6.19294118" ry="5.35529412"></ellipse>
            <path d="M31.8870588,22.8235294 C31.8936018,21.2896815 30.7697022,19.9851552 29.2517647,19.7647059 C27.9623529,13.0541176 22.5223529,8.00941176 16,8.00941176 C9.47764706,8.00941176 4.03764706,13.0541176 2.74823529,19.7647059 C1.23828836,19.9874186 0.119673426,21.2831285 0.119673426,22.8094118 C0.119673426,24.3356951 1.23828836,25.6314049 2.74823529,25.8541176 C4.03764706,32.5929412 9.47764706,37.6470588 16,37.6470588 C22.5223529,37.6470588 27.9623529,32.5929412 29.2517647,25.8729412 C30.7640834,25.6492193 31.8848736,24.3523049 31.8870588,22.8235294 Z" id="_Path_4" fill="#FFCEBF" fill-rule="nonzero"></path>
            <path d="M31.8870588,22.8235294 C31.8936018,21.2896815 30.7697022,19.9851552 29.2517647,19.7647059 C27.9623529,13.0541176 22.5223529,8.00941176 16,8.00941176 C9.47764706,8.00941176 4.03764706,13.0541176 2.74823529,19.7647059 C1.23828836,19.9874186 0.119673426,21.2831285 0.119673426,22.8094118 C0.119673426,24.3356951 1.23828836,25.6314049 2.74823529,25.8541176 C4.03764706,32.5929412 9.47764706,37.6470588 16,37.6470588 C22.5223529,37.6470588 27.9623529,32.5929412 29.2517647,25.8729412 C30.7640834,25.6492193 31.8848736,24.3523049 31.8870588,22.8235294 Z" id="_Path_5" stroke="#45413C" stroke-linecap="round" stroke-linejoin="round"></path>
            <path d="M8.04705882,22.0235294 C8.04705882,22.6472863 8.55271369,23.1529412 9.17647059,23.1529412 C9.80022748,23.1529412 10.3058824,22.6472863 10.3058824,22.0235294 C10.3058824,21.3997725 9.80022748,20.8941176 9.17647059,20.8941176 C8.55271369,20.8941176 8.04705882,21.3997725 8.04705882,22.0235294 Z" id="_Path_6" stroke="#45413C" fill="#45413C" fill-rule="nonzero" stroke-linecap="round" stroke-linejoin="round"></path>
            <path d="M23.9529412,22.0235294 C23.9529412,22.6472863 23.4472863,23.1529412 22.8235294,23.1529412 C22.1997725,23.1529412 21.6941176,22.6472863 21.6941176,22.0235294 C21.6941176,21.3997725 22.1997725,20.8941176 22.8235294,20.8941176 C23.4472863,20.8941176 23.9529412,21.3997725 23.9529412,22.0235294 Z" id="_Path_7" stroke="#45413C" fill="#45413C" fill-rule="nonzero" stroke-linecap="round" stroke-linejoin="round"></path>
            <g id="_Group_" transform="translate(12.235294, 30.117647)" fill-rule="nonzero">
                <g id="_Group_2">
                    <path d="M0.677647059,0 C0.539616278,0.0024119808 0.409306597,0.0641376189 0.32,0.169411765 C0.226532369,0.274672607 0.185095492,0.416248603 0.207058824,0.555294118 C0.491604026,2.2989699 1.9979656,3.57943829 3.76470588,3.57943829 C5.53144616,3.57943829 7.03780774,2.2989699 7.32235294,0.555294118 C7.34431627,0.416248603 7.3028794,0.274672607 7.20941176,0.169411765 C7.12010517,0.0641376189 6.98979549,0.0024119808 6.85176471,0 L0.677647059,0 Z" id="_Path_8" fill="#FF6242"></path>
                    <path d="M3.76470588,1.49647059 C2.78403911,1.46351703 1.82034741,1.75825435 1.02588235,2.33411765 C1.71747558,3.12296552 2.71561953,3.57530824 3.76470588,3.57530824 C4.81379223,3.57530824 5.81193618,3.12296552 6.50352941,2.33411765 C5.70906436,1.75825435 4.74537265,1.46351703 3.76470588,1.49647059 Z" id="_Path_9" fill="#FFA694"></path>
                </g>
            </g>
            <g id="_Group_3" transform="translate(12.235294, 30.117647)" stroke="#45413C" stroke-linecap="round" stroke-linejoin="round">
                <path d="M0.677647059,0 C0.539616278,0.0024119808 0.409306597,0.0641376189 0.32,0.169411765 C0.226532369,0.274672607 0.185095492,0.416248603 0.207058824,0.555294118 C0.491604026,2.2989699 1.9979656,3.57943829 3.76470588,3.57943829 C5.53144616,3.57943829 7.03780774,2.2989699 7.32235294,0.555294118 C7.34431627,0.416248603 7.3028794,0.274672607 7.20941176,0.169411765 C7.12010517,0.0641376189 6.98979549,0.0024119808 6.85176471,0 L0.677647059,0 Z" id="_Path_10"></path>
            </g>
            <ellipse id="_Ellipse_2" fill="#FFB59E" fill-rule="nonzero" cx="7.30352941" cy="26.8329412" rx="1.45882353" ry="1"></ellipse>
            <ellipse id="_Ellipse_3" fill="#FFB59E" fill-rule="nonzero" cx="24.6964706" cy="26.8329412" rx="1.45882353" ry="1"></ellipse>
            <path d="M11.8870588,17.8823529 C13.2273031,17.522676 14.6129494,17.3609645 16,17.4023529 C17.3884355,17.3701595 18.774106,17.5413865 20.1129412,17.9105882" id="_Path_11" stroke="#45413C" stroke-linecap="round" stroke-linejoin="round"></path>
            <path d="M12.4329412,15.7741176 C13.603478,15.5132918 14.8009811,15.3932255 16,15.4164706 C17.1990189,15.3932255 18.396522,15.5132918 19.5670588,15.7741176" id="_Path_12" stroke="#45413C" stroke-linecap="round" stroke-linejoin="round"></path>
            <path d="M16,4.63058824 C12.0993743,4.63058744 8.35864555,6.18074884 5.60136945,8.93979016 C2.84409335,11.6988315 1.29632633,15.4405516 1.29882353,19.3411765 L1.29882051,20.3952941 C2.4646449,20.2914055 3.44550356,19.479015 3.76470588,18.3529412 C5.294243,15.4819861 8.13755495,13.5465633 11.3694118,13.1764706 C13.2429243,12.8801114 14.914904,11.8334249 16,10.2776471 C17.085096,11.8334249 18.7570757,12.8801114 20.6305882,13.1764706 C23.8624451,13.5465633 26.705757,15.4819861 28.2352941,18.3529412 C28.5544964,19.479015 29.5353551,20.2914055 30.7011795,20.3952941 L30.7011765,19.3411765 C30.7036737,15.4405516 29.1559067,11.6988315 26.3986306,8.93979016 C23.6413544,6.18074884 19.9006257,4.63058744 16,4.63058824 Z" id="Shape" fill="#E0E0E0" fill-rule="nonzero"></path>
            <path d="M16,4.63058824 C12.0993743,4.63058744 8.35864555,6.18074884 5.60136945,8.93979016 C2.84409335,11.6988315 1.29632633,15.4405516 1.29882353,19.3411765 L1.29882051,20.3952941 L1.43058824,20.3388235 C2.31234909,12.9506657 8.57823363,7.38813354 16.0188235,7.38813354 C23.4594134,7.38813354 29.725298,12.9506657 30.6070588,20.3388235 L30.7388266,20.3952941 L30.7388235,19.3411765 C30.7413377,15.4340199 29.1884053,11.6865803 26.4229802,8.92645297 C23.6575551,6.16632561 19.9071446,4.6205819 16,4.63058824 Z" id="_Path_13" fill="#FFFFFF" fill-rule="nonzero"></path>
            <path d="M16,4.63058824 C12.0993743,4.63058744 8.35864555,6.18074884 5.60136945,8.93979016 C2.84409335,11.6988315 1.29632633,15.4405516 1.29882353,19.3411765 L1.29882051,20.3952941 C2.4646449,20.2914055 3.44550356,19.479015 3.76470588,18.3529412 C5.294243,15.4819861 8.13755495,13.5465633 11.3694118,13.1764706 C13.2429243,12.8801114 14.914904,11.8334249 16,10.2776471 C17.085096,11.8334249 18.7570757,12.8801114 20.6305882,13.1764706 C23.8624451,13.5465633 26.705757,15.4819861 28.2352941,18.3529412 C28.5544964,19.479015 29.5353551,20.2914055 30.7011795,20.3952941 L30.7011765,19.3411765 C30.7036737,15.4405516 29.1559067,11.6988315 26.3986306,8.93979016 C23.6413544,6.18074884 19.9006257,4.63058744 16,4.63058824 Z" id="Shape" stroke="#45413C" stroke-linecap="round" stroke-linejoin="round"></path>
        </g>
    </g>
</svg>