<?xml version="1.0" encoding="UTF-8"?>
<svg width="39px" height="36px" viewBox="0 0 39 36" version="1.1" xmlns="http://www.w3.org/2000/svg" xmlns:xlink="http://www.w3.org/1999/xlink">
    <!-- Generator: Sketch 50.2 (55047) - http://www.bohemiancoding.com/sketch -->
    <title>person7</title>
    <desc>Created with Sketch.</desc>
    <defs></defs>
    <g id="Page-1" stroke="none" stroke-width="1" fill="none" fill-rule="evenodd">
        <g id="person7" transform="translate(0.000000, 1.000000)">
            <path d="M8.12217391,24.5276087 C6.51797601,24.3430746 4.92257923,24.9389836 3.83217391,26.13 C2.47565217,27.7154348 2.05173913,30.0130435 1.00891304,30.8778261 C0.830357347,31.0176348 0.726038776,31.2318082 0.726038776,31.458587 C0.726038776,31.6853657 0.830357347,31.8995391 1.00891304,32.0393478 C3.78130435,34.2097826 6.83347826,34.2267391 8.94456522,32.2597826 C11.276087,30.0723913 12.836087,25.8926087 8.12217391,24.5276087 Z" id="_Path_" fill="#614B44" fill-rule="nonzero"></path>
            <path d="M30.8947826,24.5276087 C32.4989805,24.3430746 34.0943773,24.9389836 35.1847826,26.13 C36.5413043,27.7154348 36.9652174,30.0130435 38.0080435,30.8778261 C38.1836695,31.0194618 38.2857689,31.2329652 38.2857689,31.458587 C38.2857689,31.6842087 38.1836695,31.8977121 38.0080435,32.0393478 C35.2271739,34.2097826 32.1834783,34.2267391 30.063913,32.2597826 C27.7408696,30.0723913 26.1808696,25.8926087 30.8947826,24.5276087 Z" id="_Path_2" fill="#614B44" fill-rule="nonzero"></path>
            <path d="M0.983478261,32.0393478 C1.25286391,32.2605891 1.53604384,32.4644786 1.83130435,32.6497826 C2.34366487,31.389138 3.00394175,30.1938091 3.79826087,29.088913 C4.88866619,27.8978967 6.48406297,27.3019876 8.08826087,27.4865217 C9.23592613,27.7196592 10.2310294,28.4282467 10.8267391,29.4365217 C11.5643478,27.495 11.148913,25.4178261 8.08826087,24.5276087 C6.48406297,24.3430746 4.88866619,24.9389836 3.79826087,26.13 C2.44173913,27.7154348 2.01782609,30.0130435 0.975,30.8778261 C0.797457836,31.0189338 0.6946973,31.2338703 0.69635264,31.4606518 C0.698007979,31.6874334 0.803895158,31.9008469 0.983478261,32.0393478 Z" id="_Path_3" fill="#947063" fill-rule="nonzero"></path>
            <path d="M30.8947826,27.4865217 C32.4989805,27.3019876 34.0943773,27.8978967 35.1847826,29.088913 C35.9759247,30.1958156 36.6359887,31.390759 37.1517391,32.6497826 C37.4457143,32.462575 37.7287819,32.2587664 37.9995652,32.0393478 C38.1751912,31.8977121 38.2772906,31.6842087 38.2772906,31.458587 C38.2772906,31.2329652 38.1751912,31.0194618 37.9995652,30.8778261 C36.9567391,30.03 36.5328261,27.7154348 35.1763043,26.13 C34.085899,24.9389836 32.4905022,24.3430746 30.8863043,24.5276087 C27.8171739,25.4178261 27.4102174,27.495 28.1393478,29.4365217 C28.7404493,28.4258416 29.7417168,27.7172523 30.8947826,27.4865217 Z" id="_Path_4" fill="#947063" fill-rule="nonzero"></path>
            <path d="M8.12217391,24.5276087 C6.51797601,24.3430746 4.92257923,24.9389836 3.83217391,26.13 C2.47565217,27.7154348 2.05173913,30.0130435 1.00891304,30.8778261 C0.830357347,31.0176348 0.726038776,31.2318082 0.726038776,31.458587 C0.726038776,31.6853657 0.830357347,31.8995391 1.00891304,32.0393478 C3.78130435,34.2097826 6.83347826,34.2267391 8.94456522,32.2597826 C11.276087,30.0723913 12.836087,25.8926087 8.12217391,24.5276087 Z" id="_Path_5" stroke="#45413C" stroke-linecap="round" stroke-linejoin="round"></path>
            <path d="M30.8947826,24.5276087 C32.4989805,24.3430746 34.0943773,24.9389836 35.1847826,26.13 C36.5413043,27.7154348 36.9652174,30.0130435 38.0080435,30.8778261 C38.1836695,31.0194618 38.2857689,31.2329652 38.2857689,31.458587 C38.2857689,31.6842087 38.1836695,31.8977121 38.0080435,32.0393478 C35.2271739,34.2097826 32.1834783,34.2267391 30.063913,32.2597826 C27.7408696,30.0723913 26.1808696,25.8926087 30.8947826,24.5276087 Z" id="_Path_6" stroke="#45413C" stroke-linecap="round" stroke-linejoin="round"></path>
            <path d="M35.1169565,19.1269565 C35.1288274,17.616595 34.0253934,16.3286524 32.531087,16.1086957 C31.2678261,9.52108696 25.9095652,4.56130435 19.5,4.56130435 C13.0904348,4.56130435 7.73217391,9.52108696 6.46891304,16.1086957 C4.97542525,16.3193781 3.86496209,17.5974861 3.86496209,19.1057609 C3.86496209,20.6140357 4.97542525,21.8921437 6.46891304,22.1028261 C7.73217391,28.7413043 13.0904348,33.701087 19.5,33.701087 C25.9095652,33.701087 31.2678261,28.7413043 32.531087,22.1282609 C34.0189874,21.9092035 35.1203574,20.6308921 35.1169565,19.1269565 Z" id="_Path_7" stroke="#45413C" fill="#FFDA8F" fill-rule="nonzero" stroke-linecap="round" stroke-linejoin="round"></path>
            <g id="_Group_" transform="translate(14.413043, 24.586957)" fill-rule="nonzero">
                <g id="_Group_2">
                    <path d="M1.00891304,0.508695652 C0.82174486,0.509094815 0.644529108,0.593039118 0.525652174,0.737608696 C0.400917973,0.875622013 0.344878219,1.06242119 0.373043478,1.24630435 C0.76429495,3.54444588 2.75574821,5.22551439 5.08695652,5.22551439 C7.41816483,5.22551439 9.40961809,3.54444588 9.80086957,1.24630435 C9.82804638,1.05989315 9.77228525,0.87092488 9.64826087,0.729130435 C9.52569835,0.590478387 9.35004918,0.510357715 9.165,0.508695652 L1.00891304,0.508695652 Z" id="_Path_8" fill="#FF6242"></path>
                    <path d="M5.08695652,2.47565217 C3.78872967,2.43120284 2.51245827,2.81885536 1.45826087,3.57782609 C2.37127815,4.6285868 3.69494408,5.23198733 5.08695652,5.23198733 C6.47896896,5.23198733 7.80263489,4.6285868 8.71565217,3.57782609 C7.66145477,2.81885536 6.38518338,2.43120284 5.08695652,2.47565217 Z" id="_Path_9" fill="#FFA694"></path>
                </g>
            </g>
            <g id="_Group_3" transform="translate(14.413043, 24.586957)" stroke="#45413C" stroke-linecap="round" stroke-linejoin="round">
                <path d="M1.00891304,0.508695652 C0.82174486,0.509094815 0.644529108,0.593039118 0.525652174,0.737608696 C0.400917973,0.875622013 0.344878219,1.06242119 0.373043478,1.24630435 C0.76429495,3.54444588 2.75574821,5.22551439 5.08695652,5.22551439 C7.41816483,5.22551439 9.40961809,3.54444588 9.80086957,1.24630435 C9.82804638,1.05989315 9.77228525,0.87092488 9.64826087,0.729130435 C9.52569835,0.590478387 9.35004918,0.510357715 9.165,0.508695652 L1.00891304,0.508695652 Z" id="_Path_10"></path>
            </g>
            <ellipse id="_Ellipse_2" fill="#FFBE3D" fill-rule="nonzero" cx="10.953913" cy="23.0693478" rx="1.44130435" ry="1"></ellipse>
            <ellipse id="_Ellipse_3" fill="#FFBE3D" fill-rule="nonzero" cx="28.046087" cy="23.0693478" rx="1.44130435" ry="1"></ellipse>
            <path d="M19.5,0.423913043 C11.7291306,0.428590065 5.43076398,6.72695665 5.42608696,14.4978261 L5.42608696,16.4986957 L6.46891304,16.1086957 L7.19804348,16.1086957 C12.169459,16.1161016 16.8037882,13.5961252 19.5,9.41934783 C22.1962118,13.5961252 26.830541,16.1161016 31.8019565,16.1086957 L32.531087,16.1086957 L33.5823913,16.4732609 L33.5823913,14.4978261 C33.582392,10.7637229 32.0984452,7.18268255 29.4572405,4.54306802 C26.8160359,1.90345349 23.2341026,0.421663584 19.5,0.423913043 Z" id="Shape" fill="#614B44" fill-rule="nonzero"></path>
            <path d="M19.5,0.423913043 C11.7291306,0.428590065 5.43076398,6.72695665 5.42608696,14.4978261 L5.42608696,16.4986957 L5.51086957,16.4986957 C6.29733498,9.36606765 12.3241439,3.96726698 19.5,3.96726698 C26.6758561,3.96726698 32.702665,9.36606765 33.4891304,16.4986957 L33.573913,16.4986957 L33.573913,14.4978261 C33.573913,6.72501854 27.2728075,0.423913043 19.5,0.423913043 Z" id="Shape" fill="#947063" fill-rule="nonzero"></path>
            <path d="M19.5,0.423913043 C11.7291306,0.428590065 5.43076398,6.72695665 5.42608696,14.4978261 L5.42608696,16.4986957 L6.46891304,16.1086957 L7.19804348,16.1086957 C12.169459,16.1161016 16.8037882,13.5961252 19.5,9.41934783 C22.1962118,13.5961252 26.830541,16.1161016 31.8019565,16.1086957 L32.531087,16.1086957 L33.5823913,16.4732609 L33.5823913,14.4978261 C33.582392,10.7637229 32.0984452,7.18268255 29.4572405,4.54306802 C26.8160359,1.90345349 23.2341026,0.421663584 19.5,0.423913043 Z" id="Shape" stroke="#45413C" stroke-linecap="round" stroke-linejoin="round"></path>
            <g id="_Group_4" transform="translate(11.021739, 16.956522)" stroke="#45413C" stroke-linecap="round" stroke-linejoin="round">
                <path d="M3.62021739,1.38195652 C3.39045386,0.816009112 2.8405917,0.445793553 2.22978261,0.445793553 C1.61897351,0.445793553 1.06911136,0.816009112 0.839347826,1.38195652" id="_Path_11"></path>
                <path d="M16.1086957,1.38195652 C15.8789321,0.816009112 15.32907,0.445793553 14.7182609,0.445793553 C14.1074518,0.445793553 13.5575896,0.816009112 13.3278261,1.38195652" id="_Path_12"></path>
            </g>
        </g>
    </g>
</svg>