<?xml version="1.0" encoding="UTF-8"?>
<svg width="34px" height="37px" viewBox="0 0 34 37" version="1.1" xmlns="http://www.w3.org/2000/svg" xmlns:xlink="http://www.w3.org/1999/xlink">
    <!-- Generator: Sketch 50.2 (55047) - http://www.bohemiancoding.com/sketch -->
    <title>person11</title>
    <desc>Created with Sketch.</desc>
    <defs></defs>
    <g id="Page-1" stroke="none" stroke-width="1" fill="none" fill-rule="evenodd">
        <g id="person11" transform="translate(1.000000, 1.000000)">
            <g id="_Group_">
                <path d="M16,0.23 C14.8024725,0.230449135 13.6097639,0.381637546 12.45,0.68 C9.74,1.29 6.22,2.31 3.04,1.68 C2.782856,3.34000512 3.22048595,5.03265647 4.25,6.36 C2.5846835,8.758567 1.69469999,11.6100043 1.7,14.53 L1.69997647,22 L30.3,22 L30.3,14.53 C30.3,6.63232808 23.8976719,0.23 16,0.23 Z" id="_Path_" fill="#A86C4D" fill-rule="nonzero"></path>
                <g id="_Group_2" transform="translate(2.000000, 0.000000)" fill="#DE926A" fill-rule="nonzero">
                    <path d="M14,0.23 C12.8024725,0.230449135 11.6097639,0.381637546 10.45,0.68 C7.74,1.29 4.22,2.31 1.04,1.68 C0.897378643,2.85544243 1.06278844,4.04777138 1.52,5.14 C4.57,5.57 7.88,4.62 10.45,4.04 C14.7333773,2.9381522 19.28556,3.88179265 22.7779913,6.59551942 C26.2704227,9.3092462 28.3094566,13.4871841 28.3000327,17.91 L28.3,14.53 C28.3,6.63232808 21.8976719,0.23 14,0.23 Z" id="_Path_2"></path>
                </g>
                <path d="M16,0.23 C14.8024725,0.230449135 13.6097639,0.381637546 12.45,0.68 C9.74,1.29 6.22,2.31 3.04,1.68 C2.782856,3.34000512 3.22048595,5.03265647 4.25,6.36 C2.5846835,8.758567 1.69469999,11.6100043 1.7,14.53 L1.69997647,22 L30.3,22 L30.3,14.53 C30.3,6.63232808 23.8976719,0.23 16,0.23 Z" id="_Path_3" stroke="#45413C" stroke-linecap="round" stroke-linejoin="round"></path>
                <path d="M31.82,20.92 C31.6746975,19.8322544 30.8832084,18.9418292 29.82,18.67 L28.96,18.44 C27.672073,18.0740329 26.7825706,16.8989104 26.78,15.56 L26.78,12.56 C26.7821062,11.3350179 25.9621956,10.2609349 24.78,9.94 C21.9871274,11.0429428 19.0020273,11.5767249 16,11.51 C13.0207287,11.5647597 10.0602107,11.0277197 7.29,9.93 C6.10575511,10.2478824 5.2844089,11.3238459 5.29,12.55 L5.29,16.18 C5.28457366,17.4606759 4.25064069,18.4990654 2.97,18.51 C1.64476285,18.4840546 0.490974221,19.4104543 0.23,20.71 C0.10356499,21.4758766 0.320598384,22.2585849 0.823386667,22.8499872 C1.32617495,23.4413895 2.06375882,23.7815452 2.84,23.78 L3,23.78 C3.95016237,30.2443904 9.49615333,35.0347977 16.03,35.0347977 C22.5638467,35.0347977 28.1098376,30.2443904 29.06,23.78 L29.22,23.78 C29.9540355,23.774441 30.6523455,23.4623627 31.1461254,22.9192049 C31.6399052,22.376047 31.8842161,21.6512423 31.82,20.92 Z" id="_Path_4" stroke="#45413C" fill="#FFCEBF" fill-rule="nonzero" stroke-linecap="round" stroke-linejoin="round"></path>
                <path d="M8.09,20.61 C8.08595715,21.0688372 8.35977981,21.4845628 8.78292888,21.6620248 C9.20607794,21.8394869 9.69452731,21.7434463 10.0189868,21.4189868 C10.3434463,21.0945273 10.4394869,20.6060779 10.2620248,20.1829289 C10.0845628,19.7597798 9.6688372,19.4859571 9.21,19.49 C8.91295753,19.49 8.62808115,19.6079997 8.41804041,19.8180404 C8.20799966,20.0280811 8.09,20.3129575 8.09,20.61 Z" id="_Path_5" stroke="#45413C" fill="#45413C" fill-rule="nonzero" stroke-linecap="round" stroke-linejoin="round"></path>
                <path d="M23.91,20.61 C23.9140429,21.0688372 23.6402202,21.4845628 23.2170711,21.6620248 C22.7939221,21.8394869 22.3054727,21.7434463 21.9810132,21.4189868 C21.6565537,21.0945273 21.5605131,20.6060779 21.7379752,20.1829289 C21.9154372,19.7597798 22.3311628,19.4859571 22.79,19.49 C23.4085589,19.49 23.91,19.9914411 23.91,20.61 Z" id="_Path_6" stroke="#45413C" fill="#45413C" fill-rule="nonzero" stroke-linecap="round" stroke-linejoin="round"></path>
                <g id="_Group_3" transform="translate(11.000000, 27.000000)" fill-rule="nonzero">
                    <g id="_Group_4">
                        <path d="M0.87,0.45 C0.682863469,0.450549361 0.504757419,0.530515343 0.38,0.67 C0.260349028,0.814941076 0.209292955,1.00457792 0.24,1.19 C0.638876079,3.50732326 2.64859845,5.20067101 5,5.20067101 C7.35140155,5.20067101 9.36112392,3.50732326 9.76,1.19 C9.79070704,1.00457792 9.73965097,0.814941076 9.62,0.67 C9.49524258,0.530515343 9.31713653,0.450549361 9.13,0.45 L0.87,0.45 Z" id="_Path_7" fill="#FF6242"></path>
                        <path d="M5,2.43 C3.68624889,2.38552783 2.39506124,2.77956875 1.33,3.55 C2.25484696,4.61026978 3.59304801,5.21875024 5,5.21875024 C6.40695199,5.21875024 7.74515304,4.61026978 8.67,3.55 C7.60493876,2.77956875 6.31375111,2.38552783 5,2.43 Z" id="_Path_8" fill="#FFA694"></path>
                    </g>
                </g>
                <g id="_Group_5" transform="translate(11.000000, 27.000000)" stroke="#45413C" stroke-linecap="round" stroke-linejoin="round">
                    <path d="M0.87,0.45 C0.682863469,0.450549361 0.504757419,0.530515343 0.38,0.67 C0.260349028,0.814941076 0.209292955,1.00457792 0.24,1.19 C0.638876079,3.50732326 2.64859845,5.20067101 5,5.20067101 C7.35140155,5.20067101 9.36112392,3.50732326 9.76,1.19 C9.79070704,1.00457792 9.73965097,0.814941076 9.62,0.67 C9.49524258,0.530515343 9.31713653,0.450549361 9.13,0.45 L0.87,0.45 Z" id="_Path_9"></path>
                </g>
                <ellipse id="_Ellipse_2" fill="#FFB59E" fill-rule="nonzero" cx="7.35" cy="25.39" rx="1.46" ry="1"></ellipse>
                <ellipse id="_Ellipse_3" fill="#FFB59E" fill-rule="nonzero" cx="24.65" cy="25.39" rx="1.46" ry="1"></ellipse>
            </g>
        </g>
    </g>
</svg>