<?xml version="1.0" encoding="UTF-8"?>
<svg width="39px" height="38px" viewBox="0 0 39 38" version="1.1" xmlns="http://www.w3.org/2000/svg" xmlns:xlink="http://www.w3.org/1999/xlink">
    <!-- Generator: Sketch 50.2 (55047) - http://www.bohemiancoding.com/sketch -->
    <title>person1</title>
    <desc>Created with Sketch.</desc>
    <defs></defs>
    <g id="Page-1" stroke="none" stroke-width="1" fill="none" fill-rule="evenodd">
        <g id="Restaurant-Copy-2" transform="translate(-312.000000, -312.000000)">
            <g id="Group-3" transform="translate(296.000000, 287.000000)">
                <g id="person1" transform="translate(17.000000, 26.000000)">
                    <path d="M30.5833333,21.5 L30.5833333,18.6 C30.5833333,12.19448 25.1724167,7 18.5,7 C11.8275833,7 6.41666667,12.19448 6.41666667,18.6 L6.41666667,21.5 C5.08266667,21.5 4,22.53936 4,23.82 C4,25.10064 5.08266667,26.14 6.41666667,26.14 C6.46741667,26.14 6.51454167,26.1284 6.56529167,26.12492 C7.43529167,31.71148 12.439,36 18.5,36 C24.561,36 29.5647083,31.71148 30.4347083,26.12492 C30.4854583,26.1284 30.5325833,26.14 30.5833333,26.14 C31.9173333,26.14 33,25.10064 33,23.82 C33,22.53936 31.9173333,21.5 30.5833333,21.5" id="Fill-55" fill="#D18660"></path>
                    <path d="M30.5833333,21.5 L30.5833333,18.6 C30.5833333,12.19448 25.1724167,7 18.5,7 C11.8275833,7 6.41666667,12.19448 6.41666667,18.6 L6.41666667,21.5 C5.08266667,21.5 4,22.53936 4,23.82 C4,25.10064 5.08266667,26.14 6.41666667,26.14 C6.46741667,26.14 6.51454167,26.1284 6.56529167,26.12492 C7.43529167,31.71148 12.439,36 18.5,36 C24.561,36 29.5647083,31.71148 30.4347083,26.12492 C30.4854583,26.1284 30.5325833,26.14 30.5833333,26.14 C31.9173333,26.14 33,25.10064 33,23.82 C33,22.53936 31.9173333,21.5 30.5833333,21.5 Z" id="Stroke-56" stroke="#45413C" stroke-linecap="round" stroke-linejoin="round"></path>
                    <path d="M13,26.5 C13,27.328 12.328,28 11.5,28 C10.672,28 10,27.328 10,26.5 C10,25.672 10.672,25 11.5,25 C12.328,25 13,25.672 13,26.5" id="Fill-57" fill="#BD704A"></path>
                    <path d="M23,26.5 C23,27.328 23.672,28 24.5,28 C25.328,28 26,27.328 26,26.5 C26,25.672 25.328,25 24.5,25 C23.672,25 23,25.672 23,26.5" id="Fill-58" fill="#BD704A"></path>
                    <path d="M21,30 C19.9371667,30.6630884 18.718,31 17.5,31 C16.282,31 15.0628333,30.6630884 14,30" id="Stroke-59" stroke="#45413C" stroke-linecap="round" stroke-linejoin="round"></path>
                    <path d="M15,23 C14.5866667,22.411 13.8666667,22 13,22 C12.1333333,22 11.4133333,22.411 11,23" id="Stroke-60" stroke="#45413C" stroke-linecap="round" stroke-linejoin="round"></path>
                    <path d="M26,23 C25.5866667,22.411 24.8666667,22 24,22 C23.1333333,22 22.4133333,22.411 22,23" id="Stroke-61" stroke="#45413C" stroke-linecap="round" stroke-linejoin="round"></path>
                    <path d="M34.4559387,16.6621626 C33.7541325,16.0539995 33.0236811,15.5759126 32.3326168,15.2290428 C34.5526161,15.3180423 36.3083251,14.7418278 36.4527444,13.7810899 C36.6210347,12.6583273 34.5370999,11.4397191 31.7955203,11.0654649 C29.9598435,10.8144408 28.2375538,11.1738617 28.2375538,11.1738617 C28.2375538,11.1738617 29.6137146,10.9536451 30.3381982,10.8657866 C33.0845521,10.5314681 35.1887771,9.3493725 35.0395836,8.22318685 C34.8903901,7.09814223 32.5426813,6.45688961 29.7963274,6.79120814 C28.4679085,6.95095079 27.2982315,7.3137948 26.4531995,7.76906133 C26.663264,7.61160073 26.8733284,7.45185808 27.0810058,7.27271812 C29.139876,5.50299782 30.1627466,3.38298472 29.3690372,2.54091278 C28.5753278,1.69769982 26.264619,2.44963127 24.2069423,4.22049258 C23.0384588,5.22687124 22.2196849,6.33822364 21.8616205,7.2715771 C21.5489109,7.18828272 21.2326207,7.11411649 20.9091692,7.05592453 C21.3376529,6.55615825 21.749427,5.97081556 22.1122656,5.30446053 C23.3905554,2.95624365 23.5719747,0.628565116 22.5192654,0.104837445 C21.5202658,-0.391505772 19.7681374,0.920665952 18.5005894,3.06578147 C17.2318479,0.920665952 15.480913,-0.391505772 14.4819134,0.104837445 C13.4292041,0.628565116 13.6106234,2.95624365 14.8877197,5.30446053 C15.2505583,5.97081556 15.6635259,6.55615825 16.0908161,7.05592453 C15.7685581,7.11411649 15.4522679,7.18828272 15.1383648,7.2715771 C14.7814939,6.33822364 13.96272,5.22687124 12.7942366,4.22049258 C10.7365599,2.44963127 8.42465744,1.69769982 7.63094804,2.54091278 C6.83723864,3.38298472 7.8613028,5.50299782 9.9189795,7.27271812 C10.1266568,7.45185808 10.3379148,7.61160073 10.5479793,7.76906133 C9.70294732,7.3137948 8.53207676,6.95095079 7.20485142,6.79120814 C4.45730399,6.45688961 2.10959513,7.09814223 1.96040163,8.22318685 C1.81120814,9.3493725 3.91662676,10.5314681 6.66298064,10.8657866 C7.49369002,10.9673373 8.76362507,11.1738617 8.76362507,11.1738617 C8.76362507,11.1738617 6.55914196,10.8806198 5.20446502,11.0654649 C2.46407888,11.4431422 0.378950571,12.6583273 0.548434383,13.7810899 C0.692853687,14.7418278 2.4473692,15.3180423 4.66856198,15.2290428 C3.9774977,15.5759126 3.24704634,16.0539995 2.54524014,16.6621626 C0.492337628,18.438729 -0.525758791,20.5610241 0.271531254,21.400814 C0.904111678,22.0683101 2.48914338,21.7168763 4.14220732,20.6591517 C3.92856224,20.9854831 3.72207844,21.3277888 3.53469141,21.6986199 C2.32920796,24.0833494 2.22178864,26.414451 3.29001407,26.9073712 C3.947659,27.2120232 4.90130383,26.7464875 5.81675513,25.7857496 C4.86549739,25.4845206 4.17801376,24.6287565 4.17801376,23.6189547 C4.17801376,22.3581289 5.2462392,21.336917 6.5651097,21.336917 C7.75865767,21.336917 8.33514134,22.1150918 8.33514134,23.2766491 C8.33514134,23.2766491 9.05246367,21.0687775 8.58936706,18.4284598 C9.84736662,18.8289574 11.9157853,17.114006 11.9157853,17.114006 L11.9157853,14.3767017 C11.9157853,14.3767017 16.2865579,15.6147072 18.5005894,15.6147072 C20.7134273,15.6147072 25.0842,14.3767017 25.0842,14.3767017 L25.0842,17.114006 C25.0842,17.114006 27.1538122,18.8289574 28.4118118,18.4284598 C27.9487151,21.0687775 28.6648439,23.2766491 28.6648439,23.2766491 C28.6648439,22.1150918 29.2425211,21.336917 30.4360691,21.336917 C31.7537461,21.336917 32.8231651,22.3581289 32.8231651,23.6189547 C32.8231651,24.6287565 32.1356814,25.4845206 31.1844237,25.7857496 C32.099875,26.7464875 33.0523263,27.2120232 33.7111647,26.9073712 C34.7793902,26.414451 34.6707773,24.0833494 33.4664874,21.6986199 C33.2791004,21.3277888 33.0726166,20.9854831 32.8589715,20.6591517 C34.5120354,21.7168763 36.0970671,22.0683101 36.728454,21.400814 C37.5257441,20.5610241 36.5076476,18.438729 34.4559387,16.6621626" id="Fill-62" fill="#724F3D"></path>
                    <path d="M3.71685293,16 C3.35317669,16.240845 2.98703486,16.514268 2.62828983,16.8214326 C0.509105261,18.6330056 -0.542473816,20.7971198 0.279804314,21.6534574 C0.581840508,21.967603 1.09222004,22.0606832 1.72218124,21.962949 C1.76532927,20.7086936 2.56541699,18.6248611 3.9893019,17.4090012 C4.65378153,16.8400486 5.34414998,16.3932638 6,16.0698101 C5.50441408,16.0884262 4.58104629,16.0593386 3.71685293,16" id="Fill-63" fill="#A86C4E"></path>
                    <path d="M15,7 C14.5944898,6.08762181 13.7785089,5.03173656 12.6438243,4.07035595 C10.5059049,2.26076698 8.10384572,1.49072912 7.27918422,2.3541049 C6.8364712,2.8149609 6.93815878,3.65383547 7.45775753,4.61054918 C8.28241903,3.87201287 11.2028368,4.09019026 13.1237401,5.71893701 C13.8380333,6.32330006 14.6180515,6.85065932 15,7" id="Fill-64" fill="#A86C4E"></path>
                    <path d="M10.4387602,9.1004805 C9.93097183,8.61096299 9.49871262,8.09659687 9.14895449,7.58968533 C8.54007323,7.36729032 7.85101485,7.19583494 7.11315302,7.09644052 C4.43825862,6.73240846 2.15262992,7.43065426 2.00738153,8.65693291 C1.95276813,9.11290481 2.20375735,9.57757372 2.67552413,10 C3.46799936,9.08184405 5.94186998,8.33638591 8.01601703,8.61717514 C9.20240589,8.77869107 10.2458703,9.14023827 11,9.59496774 C10.8117581,9.4371791 10.6246782,9.27814803 10.4387602,9.1004805" id="Fill-65" fill="#A86C4E"></path>
                    <path d="M32.2833604,16 C32.6483036,16.240845 33.0132467,16.514268 33.3720253,16.8214326 C35.4914079,18.6330056 36.5430852,20.7971198 35.7194973,21.6534574 C35.4186658,21.967603 34.9082386,22.0606832 34.2769856,21.962949 C34.2362994,20.7086936 33.434904,18.6248611 32.010886,17.4090012 C31.3463443,16.8400486 30.6559113,16.3932638 30,16.0698101 C30.4968651,16.0884262 31.4190863,16.0593386 32.2833604,16" id="Fill-66" fill="#A86C4E"></path>
                    <path d="M28,11.1985529 C28.8811603,11.0178605 30.1895497,10.9188824 31.4422136,11.0846131 C34.1112353,11.4413944 36.1545054,12.7050907 35.9908116,13.8364326 C35.9165109,14.3474355 35.3940839,14.7468004 34.6116043,15 C34.5686492,14.813553 34.5465911,14.665086 34.5477521,14.6593314 C34.6986755,13.621213 32.8399962,12.4979273 30.3961986,12.1492024 C29.5603154,12.029508 28.3088124,11.5645415 28,11.1985529" id="Fill-67" fill="#A86C4E"></path>
                    <path d="M8,11.1790635 C7.26976311,11.0969302 5.81045028,10.8979592 4.55778636,11.0645395 C1.88876472,11.42315 -0.15450544,12.6933251 0.00918836232,13.8304672 C0.0834890953,14.3440899 0.605916124,14.7455023 1.38723477,15 C1.43018988,14.8125971 1.45340886,14.6633689 1.45224791,14.6575849 C1.30132455,13.6141441 3.16000382,12.4850996 5.60380136,12.1345868 C6.43968461,12.0142788 7.69118758,11.5469284 8,11.1790635" id="Fill-68" fill="#A86C4E"></path>
                    <path d="M22.3451296,0.109725127 C21.3892718,-0.40917481 19.7128089,0.96067342 18.5,3.19813187 C17.2860491,0.96067342 15.6107282,-0.40917481 14.6548704,0.109725127 C14.075874,0.42392142 13.8874432,1.35817934 14.0633119,2.56140832 C15.0431519,2.21745859 17.4379357,3.03151262 18.5,5 C19.5609223,3.03151262 21.9557061,2.21745859 22.9366881,2.56140832 C23.1125568,1.35817934 22.924126,0.42392142 22.3451296,0.109725127" id="Fill-69" fill="#A86C4E"></path>
                    <path d="M22,7 C22.4055102,6.08762181 23.2214911,5.03173656 24.3561757,4.07035595 C26.4940951,2.26076698 28.8961543,1.49072912 29.7208158,2.3541049 C30.1635288,2.8149609 30.0618412,3.65383547 29.5422425,4.61054918 C28.717581,3.87201287 25.7971632,4.09019026 23.8762599,5.71893701 C23.1619667,6.32330006 22.3819485,6.85065932 22,7" id="Fill-70" fill="#A86C4E"></path>
                    <path d="M25.5612382,9.1004805 C26.0690251,8.61096299 26.501283,8.09659687 26.8510402,7.58968533 C27.4599197,7.36729032 28.148976,7.19583494 28.8868357,7.09644052 C31.5617224,6.73240846 33.8473445,7.43065426 33.9925925,8.65693291 C34.0472057,9.11290481 33.7973792,9.57757372 33.3244518,10 C32.5319788,9.08184405 30.0581154,8.33638591 27.9839743,8.61717514 C26.7975889,8.77869107 25.7541275,9.14023827 25,9.59496774 C25.1882414,9.4371791 25.3753208,9.27814803 25.5612382,9.1004805" id="Fill-71" fill="#A86C4E"></path>
                    <path d="M34.4559387,16.6621626 C33.7541325,16.0539995 33.0236811,15.5759126 32.3326168,15.2290428 C34.5526161,15.3180423 36.3083251,14.7418278 36.4527444,13.7810899 C36.6210347,12.6583273 34.5370999,11.4397191 31.7955203,11.0654649 C29.9598435,10.8144408 28.2375538,11.1738617 28.2375538,11.1738617 C28.2375538,11.1738617 29.6137146,10.9536451 30.3381982,10.8657866 C33.0845521,10.5314681 35.1887771,9.3493725 35.0395836,8.22318685 C34.8903901,7.09814223 32.5426813,6.45688961 29.7963274,6.79120814 C28.4679085,6.95095079 27.2982315,7.3137948 26.4531995,7.76906133 C26.663264,7.61160073 26.8733284,7.45185808 27.0810058,7.27271812 C29.139876,5.50299782 30.1627466,3.38298472 29.3690372,2.54091278 C28.5753278,1.69769982 26.264619,2.44963127 24.2069423,4.22049258 C23.0384588,5.22687124 22.2196849,6.33822364 21.8616205,7.2715771 C21.5489109,7.18828272 21.2326207,7.11411649 20.9091692,7.05592453 C21.3376529,6.55615825 21.749427,5.97081556 22.1122656,5.30446053 C23.3905554,2.95624365 23.5719747,0.628565116 22.5192654,0.104837445 C21.5202658,-0.391505772 19.7681374,0.920665952 18.5005894,3.06578147 C17.2318479,0.920665952 15.480913,-0.391505772 14.4819134,0.104837445 C13.4292041,0.628565116 13.6106234,2.95624365 14.8877197,5.30446053 C15.2505583,5.97081556 15.6635259,6.55615825 16.0908161,7.05592453 C15.7685581,7.11411649 15.4522679,7.18828272 15.1383648,7.2715771 C14.7814939,6.33822364 13.96272,5.22687124 12.7942366,4.22049258 C10.7365599,2.44963127 8.42465744,1.69769982 7.63094804,2.54091278 C6.83723864,3.38298472 7.8613028,5.50299782 9.9189795,7.27271812 C10.1266568,7.45185808 10.3379148,7.61160073 10.5479793,7.76906133 C9.70294732,7.3137948 8.53207676,6.95095079 7.20485142,6.79120814 C4.45730399,6.45688961 2.10959513,7.09814223 1.96040163,8.22318685 C1.81120814,9.3493725 3.91662676,10.5314681 6.66298064,10.8657866 C7.49369002,10.9673373 8.76362507,11.1738617 8.76362507,11.1738617 C8.76362507,11.1738617 6.55914196,10.8806198 5.20446502,11.0654649 C2.46407888,11.4431422 0.378950571,12.6583273 0.548434383,13.7810899 C0.692853687,14.7418278 2.4473692,15.3180423 4.66856198,15.2290428 C3.9774977,15.5759126 3.24704634,16.0539995 2.54524014,16.6621626 C0.492337628,18.438729 -0.525758791,20.5610241 0.271531254,21.400814 C0.904111678,22.0683101 2.48914338,21.7168763 4.14220732,20.6591517 C3.92856224,20.9854831 3.72207844,21.3277888 3.53469141,21.6986199 C2.32920796,24.0833494 2.22178864,26.414451 3.29001407,26.9073712 C3.947659,27.2120232 4.90130383,26.7464875 5.81675513,25.7857496 C4.86549739,25.4845206 4.17801376,24.6287565 4.17801376,23.6189547 C4.17801376,22.3581289 5.2462392,21.336917 6.5651097,21.336917 C7.75865767,21.336917 8.33514134,22.1150918 8.33514134,23.2766491 C8.33514134,23.2766491 9.05246367,21.0687775 8.58936706,18.4284598 C9.84736662,18.8289574 11.9157853,17.114006 11.9157853,17.114006 L11.9157853,14.3767017 C11.9157853,14.3767017 16.2865579,15.6147072 18.5005894,15.6147072 C20.7134273,15.6147072 25.0842,14.3767017 25.0842,14.3767017 L25.0842,17.114006 C25.0842,17.114006 27.1538122,18.8289574 28.4118118,18.4284598 C27.9487151,21.0687775 28.6648439,23.2766491 28.6648439,23.2766491 C28.6648439,22.1150918 29.2425211,21.336917 30.4360691,21.336917 C31.7537461,21.336917 32.8231651,22.3581289 32.8231651,23.6189547 C32.8231651,24.6287565 32.1356814,25.4845206 31.1844237,25.7857496 C32.099875,26.7464875 33.0523263,27.2120232 33.7111647,26.9073712 C34.7793902,26.414451 34.6707773,24.0833494 33.4664874,21.6986199 C33.2791004,21.3277888 33.0726166,20.9854831 32.8589715,20.6591517 C34.5120354,21.7168763 36.0970671,22.0683101 36.728454,21.400814 C37.5257441,20.5610241 36.5076476,18.438729 34.4559387,16.6621626 Z" id="Stroke-72" stroke="#45413C" stroke-linecap="round" stroke-linejoin="round"></path>
                </g>
            </g>
        </g>
    </g>
</svg>