<?xml version="1.0" encoding="UTF-8"?>
<svg width="39px" height="35px" viewBox="0 0 39 35" version="1.1" xmlns="http://www.w3.org/2000/svg" xmlns:xlink="http://www.w3.org/1999/xlink">
    <!-- Generator: Sketch 50.2 (55047) - http://www.bohemiancoding.com/sketch -->
    <title>person12</title>
    <desc>Created with Sketch.</desc>
    <defs></defs>
    <g id="Page-1" stroke="none" stroke-width="1" fill="none" fill-rule="evenodd">
        <g id="person12">
            <path d="M8.07857143,24.6814286 C6.47089623,24.4973785 4.87235711,25.0946728 3.77928571,26.2878571 C2.41428571,27.8571429 1.98714286,30.1878571 0.928571429,31.0607143 C0.752144151,31.2016796 0.64941928,31.4152445 0.64941928,31.6410714 C0.64941928,31.8668983 0.752144151,32.0804633 0.928571429,32.2214286 C3.71428571,34.4035714 6.76928571,34.4221429 8.89571429,32.4442857 C11.245,30.2528571 12.8142857,26.0557143 8.07857143,24.6814286 Z" id="_Path_" fill="#614B44" fill-rule="nonzero"></path>
            <path d="M30.9307143,24.6814286 C32.5566568,24.4819001 34.1788159,25.0802659 35.2857143,26.2878571 C36.6414286,27.885 37.0685714,30.1878571 38.0714286,31.0607143 C38.2478558,31.2016796 38.3505807,31.4152445 38.3505807,31.6410714 C38.3505807,31.8668983 38.2478558,32.0804633 38.0714286,32.2214286 C35.2857143,34.4035714 32.2307143,34.4221429 30.1135714,32.4442857 C27.7735714,30.2528571 26.2042857,26.0557143 30.9307143,24.6814286 Z" id="_Path_2" fill="#614B44" fill-rule="nonzero"></path>
            <path d="M0.928571429,32.2214286 C1.22423319,32.4459798 1.53443516,32.6507131 1.85714286,32.8342857 C2.375758,31.5700454 3.03949304,30.3703365 3.835,29.2592857 C4.92807139,28.0661014 6.52661052,27.468807 8.13428571,27.6528571 C9.29942646,27.8796264 10.3126716,28.5922755 10.92,29.6121429 C11.6535714,27.6621429 11.245,25.5728571 8.13428571,24.6814286 C6.52661052,24.4973785 4.92807139,25.0946728 3.835,26.2878571 C2.41428571,27.8571429 1.98714286,30.1878571 0.928571429,31.0607143 C0.752144151,31.2016796 0.64941928,31.4152445 0.64941928,31.6410714 C0.64941928,31.8668983 0.752144151,32.0804633 0.928571429,32.2214286 Z" id="_Path_3" fill="#947063" fill-rule="nonzero"></path>
            <path d="M30.9307143,27.6528571 C32.5566568,27.4533287 34.1788159,28.0516944 35.2857143,29.2592857 C36.0819301,30.3683061 36.7428034,31.568477 37.2542857,32.8342857 C37.5784797,32.6531462 37.8888482,32.4483029 38.1828571,32.2214286 C38.3592844,32.0804633 38.4620093,31.8668983 38.4620093,31.6410714 C38.4620093,31.4152445 38.3592844,31.2016796 38.1828571,31.0607143 C37.1335714,30.1878571 36.7064286,27.885 35.3971429,26.2878571 C34.3003127,25.0944367 32.6989807,24.4973883 31.0885714,24.6814286 C28.015,25.61 27.5971429,27.6621429 28.3028571,29.6121429 C28.8720766,28.625438 29.8225832,27.9167564 30.9307143,27.6528571 Z" id="_Path_4" fill="#947063" fill-rule="nonzero"></path>
            <path d="M8.07857143,24.6814286 C6.47089623,24.4973785 4.87235711,25.0946728 3.77928571,26.2878571 C2.41428571,27.8571429 1.98714286,30.1878571 0.928571429,31.0607143 C0.752144151,31.2016796 0.64941928,31.4152445 0.64941928,31.6410714 C0.64941928,31.8668983 0.752144151,32.0804633 0.928571429,32.2214286 C3.71428571,34.4035714 6.76928571,34.4221429 8.89571429,32.4442857 C11.245,30.2528571 12.8142857,26.0557143 8.07857143,24.6814286 Z" id="_Path_5" stroke="#45413C" stroke-linecap="round" stroke-linejoin="round"></path>
            <path d="M30.9307143,24.6814286 C32.5566568,24.4819001 34.1788159,25.0802659 35.2857143,26.2878571 C36.6414286,27.885 37.0685714,30.1878571 38.0714286,31.0607143 C38.2478558,31.2016796 38.3505807,31.4152445 38.3505807,31.6410714 C38.3505807,31.8668983 38.2478558,32.0804633 38.0714286,32.2214286 C35.2857143,34.4035714 32.2307143,34.4221429 30.1135714,32.4442857 C27.7735714,30.2528571 26.2042857,26.0557143 30.9307143,24.6814286 Z" id="_Path_6" stroke="#45413C" stroke-linecap="round" stroke-linejoin="round"></path>
            <path d="M35.1742857,19.2678571 C35.1714999,17.7615994 34.0649066,16.485065 32.5742857,16.2685714 C31.3021429,9.62928571 25.935,4.64285714 19.5,4.64285714 C13.065,4.64285714 7.69785714,9.62928571 6.42571429,16.2685714 C4.93598986,16.4883014 3.83235637,17.766658 3.83235637,19.2725 C3.83235637,20.778342 4.93598986,22.0566986 6.42571429,22.2764286 C7.69785714,28.9064286 13.065,33.8928571 19.5,33.8928571 C25.935,33.8928571 31.3021429,28.9064286 32.5742857,22.2857143 C34.0698358,22.0644735 35.1767339,20.779681 35.1742857,19.2678571 Z" id="_Path_7" stroke="#45413C" fill="#D18660" fill-rule="nonzero"></path>
            <path d="M11.6535714,18.4785714 C11.6535714,19.0939744 12.1524541,19.5928571 12.7678571,19.5928571 C13.3832601,19.5928571 13.8821429,19.0939744 13.8821429,18.4785714 C13.8821429,17.8631684 13.3832601,17.3642857 12.7678571,17.3642857 C12.1524541,17.3642857 11.6535714,17.8631684 11.6535714,18.4785714 Z" id="_Path_8" stroke="#45413C" fill="#45413C" fill-rule="nonzero" stroke-linecap="round" stroke-linejoin="round"></path>
            <path d="M27.3464286,18.4785714 C27.3464286,19.0939744 26.8475459,19.5928571 26.2321429,19.5928571 C25.6167399,19.5928571 25.1178571,19.0939744 25.1178571,18.4785714 C25.1178571,17.8631684 25.6167399,17.3642857 26.2321429,17.3642857 C26.8475459,17.3642857 27.3464286,17.8631684 27.3464286,18.4785714 Z" id="_Path_9" stroke="#45413C" fill="#45413C" fill-rule="nonzero" stroke-linecap="round" stroke-linejoin="round"></path>
            <g id="_Group_" transform="translate(13.928571, 25.071429)" fill-rule="nonzero">
                <g id="_Group_2">
                    <path d="M1.47642857,0.185714286 C1.29079143,0.186541257 1.11463849,0.267842613 0.993571429,0.408571429 C0.871265565,0.548629683 0.816910269,0.735476014 0.845,0.919285714 C1.22956913,3.23018625 3.22874748,4.92416441 5.57142857,4.92416441 C7.91410966,4.92416441 9.91328801,3.23018625 10.2978571,0.919285714 C10.3259469,0.735476014 10.2715916,0.548629683 10.1492857,0.408571429 C10.0282187,0.267842613 9.85206572,0.186541257 9.66642857,0.185714286 L1.47642857,0.185714286 Z" id="_Path_10" fill="#FF6242"></path>
                    <path d="M5.57142857,2.15428571 C4.2677043,2.10879678 2.98627826,2.50107005 1.93142857,3.26857143 C2.85006328,4.31786901 4.17682643,4.91969643 5.57142857,4.91969643 C6.96603072,4.91969643 8.29279387,4.31786901 9.21142857,3.26857143 C8.15657889,2.50107005 6.87515284,2.10879678 5.57142857,2.15428571 Z" id="_Path_11" fill="#FFA694"></path>
                </g>
            </g>
            <g id="_Group_3" transform="translate(13.928571, 25.071429)" stroke="#45413C" stroke-linecap="round" stroke-linejoin="round">
                <path d="M1.47642857,0.185714286 C1.29079143,0.186541257 1.11463849,0.267842613 0.993571429,0.408571429 C0.871265565,0.548629683 0.816910269,0.735476014 0.845,0.919285714 C1.22956913,3.23018625 3.22874748,4.92416441 5.57142857,4.92416441 C7.91410966,4.92416441 9.91328801,3.23018625 10.2978571,0.919285714 C10.3259469,0.735476014 10.2715916,0.548629683 10.1492857,0.408571429 C10.0282187,0.267842613 9.85206572,0.186541257 9.66642857,0.185714286 L1.47642857,0.185714286 Z" id="_Path_12"></path>
            </g>
            <ellipse id="_Ellipse_2" fill="#BD704A" fill-rule="nonzero" cx="10.92" cy="23.2235714" rx="1.43928571" ry="1"></ellipse>
            <ellipse id="_Ellipse_3" fill="#BD704A" fill-rule="nonzero" cx="28.08" cy="23.2235714" rx="1.43928571" ry="1"></ellipse>
            <path d="M19.5,9.52714286 C22.1387003,13.6526968 26.6746271,16.17537 31.5714286,16.2407143 C32.2607925,16.2780028 32.9418407,16.409214 33.5957143,16.6307143 L33.5957143,14.625 C33.5957143,6.82476689 27.272376,0.501428571 19.4721429,0.501428571 C11.6719097,0.501428571 5.34857143,6.82476689 5.34857143,14.625 L5.34857143,16.6307143 C6.01806485,16.3957972 6.719451,16.2642873 7.42857143,16.2407143 C12.3253729,16.17537 16.8612997,13.6526968 19.5,9.52714286 Z" id="_Path_13" fill="#614B44" fill-rule="nonzero"></path>
            <path d="M19.5,0.501428571 C11.7033934,0.506554547 5.3857126,6.82839175 5.38571429,14.625 L5.38571429,16.6307143 L5.48785714,16.6307143 C6.34554572,9.53792165 12.3648237,4.20266953 19.5092857,4.20266953 C26.6537477,4.20266953 32.6730257,9.53792165 33.5307143,16.6307143 L33.6328571,16.6307143 L33.6328571,14.625 C33.632858,10.8775866 32.1435685,7.28379296 29.4928764,4.63484244 C26.8421843,1.98589191 23.2474126,0.498964789 19.5,0.501428571 Z" id="Shape" fill="#947063" fill-rule="nonzero"></path>
            <path d="M19.5,9.52714286 C22.1387003,13.6526968 26.6746271,16.17537 31.5714286,16.2407143 C32.2607925,16.2780028 32.9418407,16.409214 33.5957143,16.6307143 L33.5957143,14.625 C33.5957143,6.82476689 27.272376,0.501428571 19.4721429,0.501428571 C11.6719097,0.501428571 5.34857143,6.82476689 5.34857143,14.625 L5.34857143,16.6307143 C6.01806485,16.3957972 6.719451,16.2642873 7.42857143,16.2407143 C12.3253729,16.17537 16.8612997,13.6526968 19.5,9.52714286 Z" id="_Path_14" stroke="#45413C" stroke-linecap="round" stroke-linejoin="round"></path>
        </g>
    </g>
</svg>