<?xml version="1.0" encoding="UTF-8"?>
<svg width="34px" height="34px" viewBox="0 0 34 34" version="1.1" xmlns="http://www.w3.org/2000/svg" xmlns:xlink="http://www.w3.org/1999/xlink">
    <!-- Generator: Sketch 50.2 (55047) - http://www.bohemiancoding.com/sketch -->
    <title>person8</title>
    <desc>Created with Sketch.</desc>
    <defs></defs>
    <g id="Page-1" stroke="none" stroke-width="1" fill="none" fill-rule="evenodd">
        <g id="person8" transform="translate(1.000000, 0.000000)">
            <path d="M31.8870588,18.5882353 C31.8842352,17.0615306 30.7626203,15.7676677 29.2517647,15.5482353 C27.9623529,8.81882353 22.5223529,3.76470588 16,3.76470588 C9.47764706,3.76470588 4.03764706,8.81882353 2.74823529,15.5482353 C1.23828836,15.770948 0.119673426,17.0666579 0.119673426,18.5929412 C0.119673426,20.1192245 1.23828836,21.4149343 2.74823529,21.6376471 C4.03764706,28.3576471 9.47764706,33.4117647 16,33.4117647 C22.5223529,33.4117647 27.9623529,28.3576471 29.2517647,21.6470588 C30.7676163,21.4228147 31.8895402,20.1205817 31.8870588,18.5882353 Z" id="_Path_" stroke="#45413C" fill="#D18660" fill-rule="nonzero"></path>
            <path d="M8.04705882,17.7882353 C8.04705882,18.4119922 8.55271369,18.9176471 9.17647059,18.9176471 C9.80022748,18.9176471 10.3058824,18.4119922 10.3058824,17.7882353 C10.3058824,17.1644784 9.80022748,16.6588235 9.17647059,16.6588235 C8.55271369,16.6588235 8.04705882,17.1644784 8.04705882,17.7882353 Z" id="_Path_2" stroke="#45413C" fill="#45413C" fill-rule="nonzero" stroke-linecap="round" stroke-linejoin="round"></path>
            <path d="M23.9529412,17.7882353 C23.9529412,18.4119922 23.4472863,18.9176471 22.8235294,18.9176471 C22.1997725,18.9176471 21.6941176,18.4119922 21.6941176,17.7882353 C21.6941176,17.1644784 22.1997725,16.6588235 22.8235294,16.6588235 C23.4472863,16.6588235 23.9529412,17.1644784 23.9529412,17.7882353 Z" id="_Path_3" stroke="#45413C" fill="#45413C" fill-rule="nonzero" stroke-linecap="round" stroke-linejoin="round"></path>
            <g id="_Group_" transform="translate(10.352941, 24.470588)" fill-rule="nonzero">
                <g id="_Group_2">
                    <path d="M1.49647059,0.188235294 C1.30831348,0.189073491 1.12976933,0.271478485 1.00705882,0.414117647 C0.883092699,0.556077145 0.827999548,0.745459851 0.856470588,0.931764706 C1.24626012,3.27403493 3.27257663,4.99100827 5.64705882,4.99100827 C8.02154102,4.99100827 10.0478575,3.27403493 10.4376471,0.931764706 C10.4661181,0.745459851 10.4110249,0.556077145 10.2870588,0.414117647 C10.1643483,0.271478485 9.98580416,0.189073491 9.79764706,0.188235294 L1.49647059,0.188235294 Z" id="_Path_4" fill="#FF6242"></path>
                    <path d="M5.64705882,2.18352941 C4.32563694,2.13742298 3.02681597,2.53502123 1.95764706,3.31294118 C2.88875192,4.37648262 4.23352543,4.98647964 5.64705882,4.98647964 C7.06059222,4.98647964 8.40536573,4.37648262 9.33647059,3.31294118 C8.26730168,2.53502123 6.96848071,2.13742298 5.64705882,2.18352941 Z" id="_Path_5" fill="#FFA694"></path>
                </g>
            </g>
            <g id="_Group_3" transform="translate(10.352941, 24.470588)" stroke="#45413C" stroke-linecap="round" stroke-linejoin="round">
                <path d="M1.49647059,0.188235294 C1.30831348,0.189073491 1.12976933,0.271478485 1.00705882,0.414117647 C0.883092699,0.556077145 0.827999548,0.745459851 0.856470588,0.931764706 C1.24626012,3.27403493 3.27257663,4.99100827 5.64705882,4.99100827 C8.02154102,4.99100827 10.0478575,3.27403493 10.4376471,0.931764706 C10.4661181,0.745459851 10.4110249,0.556077145 10.2870588,0.414117647 C10.1643483,0.271478485 9.98580416,0.189073491 9.79764706,0.188235294 L1.49647059,0.188235294 Z" id="_Path_6"></path>
            </g>
            <ellipse id="_Ellipse_2" fill="#BD704A" fill-rule="nonzero" cx="7.30352941" cy="22.5976471" rx="1.45882353" ry="1"></ellipse>
            <ellipse id="_Ellipse_3" fill="#BD704A" fill-rule="nonzero" cx="24.6964706" cy="22.5976471" rx="1.45882353" ry="1"></ellipse>
            <path d="M2.46588235,15.6047059 C4.32356096,15.3823033 6.1253726,14.82422 7.78352941,13.9576471 C9.08680701,13.2353239 10.245139,12.2780248 11.2,11.1341176 L11.2,13.6941176 C13.0066067,13.6923103 14.7859187,13.2531334 16.3858824,12.4141176 C17.5680901,11.8006694 18.5752282,10.8971597 19.3129412,9.78823529 C20.1819799,11.4784391 21.5485346,12.8614187 23.2282353,13.7505882 C25.0757677,14.7913108 27.1352573,15.3995038 29.2517647,15.5294118 L29.2517647,14.0517647 C29.2517647,6.65504754 23.2555407,0.658823529 15.8588235,0.658823529 C8.46210636,0.658823529 2.46588235,6.65504754 2.46588235,14.0517647 L2.46588235,15.6047059 Z" id="_Path_7" fill="#614B44" fill-rule="nonzero"></path>
            <path d="M15.8588235,0.668235294 C8.46578033,0.668233469 2.47107775,6.65872333 2.46588235,14.0517647 L2.46588235,15.6047059 L2.58823529,15.6047059 C3.39217435,8.88382811 9.0844211,3.81927718 15.8531902,3.80250501 C22.6219592,3.78573284 28.3392346,8.82201238 29.1764706,15.5388235 L29.2988235,15.5388235 L29.2988235,14.0517647 C29.2963447,10.4931986 27.8777455,7.08192177 25.3561668,4.57093794 C22.8345881,2.05995411 19.4173685,0.655730682 15.8588235,0.668235294 Z" id="_Path_8" fill="#947063" fill-rule="nonzero"></path>
            <path d="M2.46588235,15.6047059 C4.32356096,15.3823033 6.1253726,14.82422 7.78352941,13.9576471 C9.08680701,13.2353239 10.245139,12.2780248 11.2,11.1341176 L11.2,13.6941176 C13.0066067,13.6923103 14.7859187,13.2531334 16.3858824,12.4141176 C17.5680901,11.8006694 18.5752282,10.8971597 19.3129412,9.78823529 C20.1819799,11.4784391 21.5485346,12.8614187 23.2282353,13.7505882 C25.0757677,14.7913108 27.1352573,15.3995038 29.2517647,15.5294118 L29.2517647,14.0517647 C29.2517647,6.65504754 23.2555407,0.658823529 15.8588235,0.658823529 C8.46210636,0.658823529 2.46588235,6.65504754 2.46588235,14.0517647 L2.46588235,15.6047059 Z" id="_Path_9" stroke="#45413C" stroke-linecap="round" stroke-linejoin="round"></path>
        </g>
    </g>
</svg>