<?xml version="1.0" encoding="UTF-8"?>
<svg width="32px" height="34px" viewBox="0 0 32 34" version="1.1" xmlns="http://www.w3.org/2000/svg" xmlns:xlink="http://www.w3.org/1999/xlink">
    <!-- Generator: Sketch 50.2 (55047) - http://www.bohemiancoding.com/sketch -->
    <title>person9</title>
    <desc>Created with Sketch.</desc>
    <defs></defs>
    <g id="Page-1" stroke="none" stroke-width="1" fill="none" fill-rule="evenodd">
        <g id="person9">
            <path d="M28.8424296,17.0582874 L28.8424296,14.0005096 C28.8424296,6.82365037 23.0606384,1.00495407 15.9292983,1.00495407 C8.79795825,1.00495407 3.016167,6.82365037 3.016167,14.0005096 L3.016167,17.0582874 C1.7577697,17.0582874 0.737379125,18.0851911 0.737379125,19.3516207 L0.737379125,20.1160652 C0.737379125,21.3824948 1.7577697,22.4093985 3.016167,22.4093985 C3.08832862,22.4093985 3.15542626,22.3941096 3.22632189,22.3890133 C4.2948202,28.4803615 9.56894815,33.1116207 15.9292983,33.1116207 C22.2896485,33.1116207 27.5625104,28.4803615 28.6322747,22.3890133 C28.7031704,22.3941096 28.770268,22.4093985 28.8424296,22.4093985 C30.1008269,22.4093985 31.1212175,21.3824948 31.1212175,20.1160652 L31.1212175,19.3516207 C31.1212175,18.0851911 30.1008269,17.0582874 28.8424296,17.0582874" id="Fill-49" fill="#E09F7E"></path>
            <path d="M28.8424296,17.0582874 L28.8424296,14.0005096 C28.8424296,6.82365037 23.0606384,1.00495407 15.9292983,1.00495407 C8.79795825,1.00495407 3.016167,6.82365037 3.016167,14.0005096 L3.016167,17.0582874 C1.7577697,17.0582874 0.737379125,18.0851911 0.737379125,19.3516207 L0.737379125,20.1160652 C0.737379125,21.3824948 1.7577697,22.4093985 3.016167,22.4093985 C3.08832862,22.4093985 3.15542626,22.3941096 3.22632189,22.3890133 C4.2948202,28.4803615 9.56894815,33.1116207 15.9292983,33.1116207 C22.2896485,33.1116207 27.5625104,28.4803615 28.6322747,22.3890133 C28.7031704,22.3941096 28.770268,22.4093985 28.8424296,22.4093985 C30.1008269,22.4093985 31.1212175,21.3824948 31.1212175,20.1160652 L31.1212175,19.3516207 C31.1212175,18.0851911 30.1008269,17.0582874 28.8424296,17.0582874 Z" id="Stroke-51" stroke="#45413C" stroke-linecap="round" stroke-linejoin="round"></path>
            <path d="M9.85253064,22.4096533 C9.85253064,23.2543644 9.17269226,23.9385422 8.33333872,23.9385422 C7.49525118,23.9385422 6.8141468,23.2543644 6.8141468,22.4096533 C6.8141468,21.5649422 7.49525118,20.8807644 8.33333872,20.8807644 C9.17269226,20.8807644 9.85253064,21.5649422 9.85253064,22.4096533" id="Fill-53" fill="#D18660"></path>
            <path d="M25.0444498,22.4096533 C25.0444498,23.2543644 24.3646114,23.9385422 23.5252579,23.9385422 C22.6871704,23.9385422 22.006066,23.2543644 22.006066,22.4096533 C22.006066,21.5649422 22.6871704,20.8807644 23.5252579,20.8807644 C24.3646114,20.8807644 25.0444498,21.5649422 25.0444498,22.4096533" id="Fill-55" fill="#D18660"></path>
            <path d="M12.1310653,25.4673037 C14.4301091,27.5058222 17.4279811,27.5058222 19.7270249,25.4673037" id="Stroke-57" stroke="#45413C" stroke-linecap="round" stroke-linejoin="round"></path>
            <path d="M22.7659152,18.5874311 C22.3747232,17.8395496 21.6872889,17.313357 20.8669253,17.313357 C20.0465616,17.313357 19.3591273,17.8395496 18.9679354,18.5874311" id="Stroke-59" stroke="#45413C" stroke-linecap="round" stroke-linejoin="round"></path>
            <path d="M12.8901549,18.3323615 C12.498963,17.58448 11.8127946,17.0582874 10.991165,17.0582874 C10.1708013,17.0582874 9.484633,17.58448 9.09217508,18.3323615" id="Stroke-61" stroke="#45413C" stroke-linecap="round" stroke-linejoin="round"></path>
            <path d="M5.29419529,19.352003 C5.29419529,19.352003 6.05505724,16.8866696 5.56385185,13.9371881 C6.89947475,14.3856622 9.09217508,12.472003 9.09217508,12.472003 L9.09217508,9.41422519 C9.09217508,9.41422519 13.5813872,10.9431141 15.9285387,10.9431141 C18.2769562,10.9431141 22.7661684,9.41422519 22.7661684,9.41422519 L22.7661684,12.472003 C22.7661684,12.472003 24.9601347,14.3856622 26.2944916,13.9371881 C25.8032862,16.8866696 26.5641481,19.352003 26.5641481,19.352003 C26.5641481,17.8613363 27.9681347,16.806403 29.5215084,17.2306696 C29.5316364,17.2166548 29.5392323,17.1988178 29.5506263,17.1822548 C29.3252795,17.1083585 29.0910707,17.0586696 28.842936,17.0586696 L28.842936,14.0008919 C28.842936,6.82403259 23.0598788,1.0053363 15.9285387,1.0053363 C8.79846465,1.0053363 3.01540741,6.82403259 3.01540741,14.0008919 L3.01540741,17.0586696 C2.76727273,17.0586696 2.53179798,17.1083585 2.30898316,17.1822548 C2.31911111,17.1988178 2.32670707,17.2166548 2.33810101,17.2306696 C3.89020875,16.806403 5.29419529,17.8613363 5.29419529,19.352003" id="Fill-63" fill="#614B44"></path>
            <path d="M15.9290451,4.06311407 C23.0603852,4.06311407 28.8421764,9.88181037 28.8421764,17.0586696 L28.8421764,14.0008919 C28.8421764,6.82403259 23.0603852,1.0053363 15.9290451,1.0053363 C8.79770505,1.0053363 3.0159138,6.82403259 3.0159138,14.0008919 L3.0159138,17.0586696 C3.0159138,9.88181037 8.79770505,4.06311407 15.9290451,4.06311407" id="Fill-65" fill="#724F3D"></path>
            <path d="M5.29419529,19.352003 C5.29419529,19.352003 6.05505724,16.8866696 5.56385185,13.9371881 C6.89947475,14.3856622 9.09217508,12.472003 9.09217508,12.472003 L9.09217508,9.41422519 C9.09217508,9.41422519 13.5813872,10.9431141 15.9285387,10.9431141 C18.2769562,10.9431141 22.7661684,9.41422519 22.7661684,9.41422519 L22.7661684,12.472003 C22.7661684,12.472003 24.9601347,14.3856622 26.2944916,13.9371881 C25.8032862,16.8866696 26.5641481,19.352003 26.5641481,19.352003 C26.5641481,17.8613363 27.9681347,16.806403 29.5215084,17.2306696 C29.5316364,17.2166548 29.5392323,17.1988178 29.5506263,17.1822548 C29.3252795,17.1083585 29.0910707,17.0586696 28.842936,17.0586696 L28.842936,14.0008919 C28.842936,6.82403259 23.0598788,1.0053363 15.9285387,1.0053363 C8.79846465,1.0053363 3.01540741,6.82403259 3.01540741,14.0008919 L3.01540741,17.0586696 C2.76727273,17.0586696 2.53179798,17.1083585 2.30898316,17.1822548 C2.31911111,17.1988178 2.32670707,17.2166548 2.33810101,17.2306696 C3.89020875,16.806403 5.29419529,17.8613363 5.29419529,19.352003 Z" id="Stroke-67" stroke="#45413C" stroke-linecap="round" stroke-linejoin="round"></path>
        </g>
    </g>
</svg>