<?xml version="1.0" encoding="UTF-8"?>
<svg width="34px" height="35px" viewBox="0 0 34 35" version="1.1" xmlns="http://www.w3.org/2000/svg" xmlns:xlink="http://www.w3.org/1999/xlink">
    <!-- Generator: Sketch 50.2 (55047) - http://www.bohemiancoding.com/sketch -->
    <title>person6</title>
    <desc>Created with Sketch.</desc>
    <defs></defs>
    <g id="Page-1" stroke="none" stroke-width="1" fill="none" fill-rule="evenodd">
        <g id="person6" transform="translate(1.000000, 1.000000)">
            <path d="M32,18.4505263 C31.9993167,16.9119477 30.8699068,15.6068518 29.3473684,15.3852632 C28.0589474,8.64842105 22.6105263,3.54526316 16.0252632,3.54526316 C9.44,3.54526316 3.99157895,8.59789474 2.70315789,15.3852632 C1.1755445,15.5977603 0.0384363409,16.9039936 0.0384363409,18.4463158 C0.0384363409,19.988638 1.1755445,21.2948712 2.70315789,21.5073684 C3.99157895,28.2442105 9.44,33.3473684 16.0252632,33.3473684 C22.6105263,33.3473684 28.0589474,28.2947368 29.3473684,21.5073684 C30.8685978,21.2896302 31.9987546,19.987259 32,18.4505263 Z" id="_Path_" stroke="#45413C" fill="#FFDA8F" fill-rule="nonzero" stroke-linecap="round" stroke-linejoin="round"></path>
            <g id="_Group_" transform="translate(10.947368, 24.421053)" fill-rule="nonzero">
                <g id="_Group_2">
                    <path d="M0.842105263,0.126315789 C0.653538323,0.129263368 0.475335341,0.213120183 0.352868231,0.356535615 C0.23040112,0.499951047 0.175486205,0.689087559 0.202105263,0.875789474 C0.596946568,3.22838558 2.63344782,4.95157895 5.01894737,4.95157895 C7.40444692,4.95157895 9.44094817,3.22838558 9.83578947,0.875789474 C9.86303829,0.688030462 9.80776953,0.497660306 9.68421053,0.353684211 C9.56278703,0.209723353 9.38411987,0.126550707 9.19578947,0.126315789 L0.842105263,0.126315789 Z" id="_Path_2" fill="#FF6242"></path>
                    <path d="M5.05263158,2.13052632 C3.72280551,2.08630444 2.41613524,2.48630554 1.33894737,3.26736842 C2.2759935,4.33822261 3.62968248,4.95246262 5.05263158,4.95246262 C6.47558068,4.95246262 7.82926966,4.33822261 8.76631579,3.26736842 C7.68912791,2.48630554 6.38245765,2.08630444 5.05263158,2.13052632 Z" id="_Path_3" fill="#FFA694"></path>
                </g>
            </g>
            <g id="_Group_3" transform="translate(10.947368, 24.421053)" stroke="#45413C" stroke-linecap="round" stroke-linejoin="round">
                <path d="M0.842105263,0.126315789 C0.653538323,0.129263368 0.475335341,0.213120183 0.352868231,0.356535615 C0.23040112,0.499951047 0.175486205,0.689087559 0.202105263,0.875789474 C0.596946568,3.22838558 2.63344782,4.95157895 5.01894737,4.95157895 C7.40444692,4.95157895 9.44094817,3.22838558 9.83578947,0.875789474 C9.86303829,0.688030462 9.80776953,0.497660306 9.68421053,0.353684211 C9.56278703,0.209723353 9.38411987,0.126550707 9.19578947,0.126315789 L0.842105263,0.126315789 Z" id="_Path_4"></path>
            </g>
            <ellipse id="_Ellipse_2" fill="#FFBE3D" fill-rule="nonzero" cx="7.25894737" cy="22.4757895" rx="1.47368421" ry="1"></ellipse>
            <ellipse id="_Ellipse_3" fill="#FFBE3D" fill-rule="nonzero" cx="24.7410526" cy="22.4757895" rx="1.47368421" ry="1"></ellipse>
            <path d="M15.8568421,0.421052632 C8.41553179,0.421052632 2.38315789,6.45342653 2.38315789,13.8947368 L2.38315789,15.4526316 C4.25335592,15.2217873 6.06559965,14.6510019 7.73052632,13.7684211 C9.04296725,13.0488482 10.2107421,12.0923577 11.1747368,10.9473684 L11.1747368,13.5242105 C12.9910897,13.5240957 14.7801216,13.0818956 16.3873684,12.2357895 C17.5879202,11.630996 18.6140511,10.7295081 19.3684211,9.61684211 C20.244762,11.3156928 21.6200316,12.7056554 23.3094737,13.6 C25.1672776,14.6440413 27.2371654,15.254356 29.3642105,15.3852632 L29.3642105,13.8863158 C29.3619856,10.3084882 27.9368311,6.87845467 25.4029783,4.35250037 C22.8691254,1.82654606 19.4346592,0.412107369 15.8568421,0.421052632 Z" id="Shape" fill="#614B44" fill-rule="nonzero"></path>
            <path d="M15.8568421,0.421052632 C8.41553179,0.421052632 2.38315789,6.45342653 2.38315789,13.8947368 L2.38315789,15.4526316 L2.52631579,15.4526316 C3.44441322,8.79712617 9.12532955,3.83502017 15.8438439,3.82017965 C22.5623582,3.80533913 28.2651406,8.7422997 29.2126316,15.3936842 L29.3389474,15.3936842 L29.3389474,13.8863158 C29.3367147,10.3128723 27.9150282,6.88667485 25.3866428,4.36144801 C22.8582575,1.83622118 19.4302856,0.418818531 15.8568421,0.421052632 Z" id="Shape" fill="#947063" fill-rule="nonzero"></path>
            <path d="M15.8568421,0.421052632 C8.41553179,0.421052632 2.38315789,6.45342653 2.38315789,13.8947368 L2.38315789,15.4526316 C4.25335592,15.2217873 6.06559965,14.6510019 7.73052632,13.7684211 C9.04296725,13.0488482 10.2107421,12.0923577 11.1747368,10.9473684 L11.1747368,13.5242105 C12.9910897,13.5240957 14.7801216,13.0818956 16.3873684,12.2357895 C17.5879202,11.630996 18.6140511,10.7295081 19.3684211,9.61684211 C20.244762,11.3156928 21.6200316,12.7056554 23.3094737,13.6 C25.1672776,14.6440413 27.2371654,15.254356 29.3642105,15.3852632 L29.3642105,13.8863158 C29.3619856,10.3084882 27.9368311,6.87845467 25.4029783,4.35250037 C22.8691254,1.82654606 19.4346592,0.412107369 15.8568421,0.421052632 Z" id="Shape" stroke="#45413C" stroke-linecap="round" stroke-linejoin="round"></path>
            <g id="_Group_4" transform="translate(7.578947, 16.842105)" stroke="#45413C" stroke-linecap="round" stroke-linejoin="round">
                <path d="M3.45263158,1.49052632 C3.21123501,0.920776312 2.65246315,0.550665483 2.03368421,0.550665483 C1.41490527,0.550665483 0.856133414,0.920776312 0.614736842,1.49052632" id="_Path_5"></path>
                <path d="M16.2273684,1.49052632 C15.9859718,0.920776312 15.4272,0.550665483 14.8084211,0.550665483 C14.1896421,0.550665483 13.6308703,0.920776312 13.3894737,1.49052632" id="_Path_6"></path>
            </g>
        </g>
    </g>
</svg>