<?xml version="1.0" encoding="UTF-8"?>
<svg width="34px" height="31px" viewBox="0 0 34 31" version="1.1" xmlns="http://www.w3.org/2000/svg" xmlns:xlink="http://www.w3.org/1999/xlink">
    <!-- Generator: Sketch 50.2 (55047) - http://www.bohemiancoding.com/sketch -->
    <title>person10</title>
    <desc>Created with Sketch.</desc>
    <defs></defs>
    <g id="Page-1" stroke="none" stroke-width="1" fill="none" fill-rule="evenodd">
        <g id="person10" transform="translate(1.000000, 0.000000)">
            <path d="M31.8870588,15.2941176 C31.8936018,13.7602698 30.7697022,12.4557435 29.2517647,12.2352941 C27.9623529,5.52470588 22.5223529,0.48 16,0.48 C9.47764706,0.48 4.03764706,5.52470588 2.74823529,12.2352941 C1.23828836,12.4580069 0.119673426,13.7537167 0.119673426,15.28 C0.119673426,16.8062833 1.23828836,18.1019931 2.74823529,18.3247059 C4.03764706,25.0635294 9.47764706,30.1176471 16,30.1176471 C22.5223529,30.1176471 27.9623529,25.0635294 29.2517647,18.3435294 C30.7640834,18.1198075 31.8848736,16.8228931 31.8870588,15.2941176 Z" id="_Path_" fill="#FFCEBF" fill-rule="nonzero"></path>
            <path d="M1.95764706,15.5482353 C2.44597167,15.3623811 2.81880842,14.9581843 2.96470588,14.4564706 C4.5603849,8.57093824 9.90199356,4.48470275 16,4.48470275 C22.0980064,4.48470275 27.4396151,8.57093824 29.0352941,14.4564706 C29.1811916,14.9581843 29.5540283,15.3623811 30.0423529,15.5482353 C30.6502368,15.7888534 31.1626144,16.2218951 31.5011765,16.7811765 C31.7549995,16.3267035 31.8878699,15.8146665 31.8870588,15.2941176 C31.8936018,13.7602698 30.7697022,12.4557435 29.2517647,12.2352941 C27.9623529,5.52470588 22.5223529,0.48 16,0.48 C9.47764706,0.48 4.03764706,5.52470588 2.74823529,12.2352941 C1.23737975,12.4547265 0.115764783,13.7485895 0.112941176,15.2752941 C0.112130108,15.795843 0.245000463,16.30788 0.498823529,16.7623529 C0.840500841,16.2100972 1.35253096,15.783956 1.95764706,15.5482353 Z" id="_Path_2" fill="#FFDCD1" fill-rule="nonzero"></path>
            <path d="M31.8870588,15.2941176 C31.8936018,13.7602698 30.7697022,12.4557435 29.2517647,12.2352941 C27.9623529,5.52470588 22.5223529,0.48 16,0.48 C9.47764706,0.48 4.03764706,5.52470588 2.74823529,12.2352941 C1.23828836,12.4580069 0.119673426,13.7537167 0.119673426,15.28 C0.119673426,16.8062833 1.23828836,18.1019931 2.74823529,18.3247059 C4.03764706,25.0635294 9.47764706,30.1176471 16,30.1176471 C22.5223529,30.1176471 27.9623529,25.0635294 29.2517647,18.3435294 C30.7640834,18.1198075 31.8848736,16.8228931 31.8870588,15.2941176 Z" id="_Path_3" stroke="#45413C" stroke-linecap="round" stroke-linejoin="round"></path>
            <path d="M8.04705882,14.4941176 C8.04705882,15.1178745 8.55271369,15.6235294 9.17647059,15.6235294 C9.80022748,15.6235294 10.3058824,15.1178745 10.3058824,14.4941176 C10.3058824,13.8703608 9.80022748,13.3647059 9.17647059,13.3647059 C8.55271369,13.3647059 8.04705882,13.8703608 8.04705882,14.4941176 Z" id="_Path_4" stroke="#45413C" fill="#45413C" fill-rule="nonzero" stroke-linecap="round" stroke-linejoin="round"></path>
            <path d="M23.9529412,14.4941176 C23.9529412,15.1178745 23.4472863,15.6235294 22.8235294,15.6235294 C22.1997725,15.6235294 21.6941176,15.1178745 21.6941176,14.4941176 C21.6941176,13.8703608 22.1997725,13.3647059 22.8235294,13.3647059 C23.4472863,13.3647059 23.9529412,13.8703608 23.9529412,14.4941176 Z" id="_Path_5" stroke="#45413C" fill="#45413C" fill-rule="nonzero" stroke-linecap="round" stroke-linejoin="round"></path>
            <g id="_Group_" transform="translate(12.235294, 22.588235)" fill-rule="nonzero">
                <g id="_Group_2">
                    <path d="M0.677647059,0 C0.539616278,0.0024119808 0.409306597,0.0641376189 0.32,0.169411765 C0.226532369,0.274672607 0.185095492,0.416248603 0.207058824,0.555294118 C0.491604026,2.2989699 1.9979656,3.57943829 3.76470588,3.57943829 C5.53144616,3.57943829 7.03780774,2.2989699 7.32235294,0.555294118 C7.34431627,0.416248603 7.3028794,0.274672607 7.20941176,0.169411765 C7.12010517,0.0641376189 6.98979549,0.0024119808 6.85176471,0 L0.677647059,0 Z" id="_Path_6" fill="#FF6242"></path>
                    <path d="M3.76470588,1.49647059 C2.78403911,1.46351703 1.82034741,1.75825435 1.02588235,2.33411765 C1.71747558,3.12296552 2.71561953,3.57530824 3.76470588,3.57530824 C4.81379223,3.57530824 5.81193618,3.12296552 6.50352941,2.33411765 C5.70906436,1.75825435 4.74537265,1.46351703 3.76470588,1.49647059 Z" id="_Path_7" fill="#FFA694"></path>
                </g>
            </g>
            <g id="_Group_3" transform="translate(12.235294, 22.588235)" stroke="#45413C" stroke-linecap="round" stroke-linejoin="round">
                <path d="M0.677647059,0 C0.539616278,0.0024119808 0.409306597,0.0641376189 0.32,0.169411765 C0.226532369,0.274672607 0.185095492,0.416248603 0.207058824,0.555294118 C0.491604026,2.2989699 1.9979656,3.57943829 3.76470588,3.57943829 C5.53144616,3.57943829 7.03780774,2.2989699 7.32235294,0.555294118 C7.34431627,0.416248603 7.3028794,0.274672607 7.20941176,0.169411765 C7.12010517,0.0641376189 6.98979549,0.0024119808 6.85176471,0 L0.677647059,0 Z" id="_Path_8"></path>
            </g>
            <ellipse id="_Ellipse_2" fill="#FFB59E" fill-rule="nonzero" cx="7.30352941" cy="19.3035294" rx="1.45882353" ry="1"></ellipse>
            <ellipse id="_Ellipse_3" fill="#FFB59E" fill-rule="nonzero" cx="24.6964706" cy="19.3035294" rx="1.45882353" ry="1"></ellipse>
            <path d="M20.8188235,22.5882353 L11.1811765,22.5882353 C11.0663969,22.5883089 10.9578538,22.5360166 10.8863753,22.4462103 C10.8148969,22.356404 10.7882922,22.2388953 10.8141176,22.1270588 L10.8894118,21.8258824 C11.1925119,20.5117858 12.3643473,19.5821297 13.7129412,19.5858824 L18.2870588,19.5858824 C19.6356527,19.5821297 20.8074881,20.5117858 21.1105882,21.8258824 L21.1858824,22.1270588 C21.2117078,22.2388953 21.1851031,22.356404 21.1136247,22.4462103 C21.0421462,22.5360166 20.9336031,22.5883089 20.8188235,22.5882353 Z" id="_Path_9" fill="#E0E0E0" fill-rule="nonzero"></path>
            <path d="M11.1811765,22.5882353 C11.6876064,21.663639 12.6587377,21.0896246 13.7129412,21.0917647 L18.2870588,21.0917647 C19.3412623,21.0896246 20.3123936,21.663639 20.8188235,22.5882353 C20.9336031,22.5883089 21.0421462,22.5360166 21.1136247,22.4462103 C21.1851031,22.356404 21.2117078,22.2388953 21.1858824,22.1270588 L21.1105882,21.8258824 C20.8074881,20.5117858 19.6356527,19.5821297 18.2870588,19.5858824 L13.7129412,19.5858824 C12.3643473,19.5821297 11.1925119,20.5117858 10.8894118,21.8258824 L10.8141176,22.1270588 C10.7882922,22.2388953 10.8148969,22.356404 10.8863753,22.4462103 C10.9578538,22.5360166 11.0663969,22.5883089 11.1811765,22.5882353 Z" id="_Path_10" fill="#FFFFFF" fill-rule="nonzero"></path>
            <path d="M20.8188235,22.5882353 L11.1811765,22.5882353 C11.0663969,22.5883089 10.9578538,22.5360166 10.8863753,22.4462103 C10.8148969,22.356404 10.7882922,22.2388953 10.8141176,22.1270588 L10.8894118,21.8258824 C11.1925119,20.5117858 12.3643473,19.5821297 13.7129412,19.5858824 L18.2870588,19.5858824 C19.6356527,19.5821297 20.8074881,20.5117858 21.1105882,21.8258824 L21.1858824,22.1270588 C21.2117078,22.2388953 21.1851031,22.356404 21.1136247,22.4462103 C21.0421462,22.5360166 20.9336031,22.5883089 20.8188235,22.5882353 Z" id="_Path_11" stroke="#45413C" stroke-linecap="round" stroke-linejoin="round"></path>
            <path d="M29.2517647,12.2352941 C29.7537255,10.5142857 29.7537255,8.68571429 29.2517647,6.96470588 C28.3105882,4.67764706 25.7317647,2.60705882 23.9529412,3.28470588 C22.1741176,3.96235294 23.9529412,7.37882353 26.1552941,8.61176471 C27.5281315,9.4809958 28.6071928,10.7437271 29.2517647,12.2352941 Z" id="_Path_12" fill="#E0E0E0" fill-rule="nonzero"></path>
            <path d="M2.74823529,12.2352941 C2.24627451,10.5142857 2.24627451,8.68571429 2.74823529,6.96470588 C3.64235294,4.67764706 6.26823529,2.60705882 8.04705882,3.28470588 C9.82588235,3.96235294 8.04705882,7.37882353 5.84470588,8.61176471 C4.47186853,9.4809958 3.39280723,10.7437271 2.74823529,12.2352941 Z" id="_Path_13" fill="#E0E0E0" fill-rule="nonzero"></path>
            <path d="M23.9529412,5.55294118 C25.7317647,4.87529412 28.3482353,6.93647059 29.2517647,9.23294118 C29.4077584,9.65607078 29.5181867,10.0946286 29.5811765,10.5411765 C29.7466543,9.34574662 29.6339234,8.12825217 29.2517647,6.98352941 C28.3105882,4.69647059 25.7317647,2.62588235 23.9529412,3.30352941 C23.0117647,3.65176471 23.0682353,4.68705882 23.5764706,5.79764706 C23.6827413,5.68975617 23.8111981,5.60625928 23.9529412,5.55294118 Z" id="_Path_14" fill="#FFFFFF" fill-rule="nonzero"></path>
            <path d="M2.74823529,9.23294118 C3.64235294,6.93647059 6.26823529,4.87529412 8.04705882,5.55294118 C8.1888019,5.60625928 8.31725865,5.68975617 8.42352941,5.79764706 C8.93176471,4.68705882 8.94117647,3.65176471 8.04705882,3.30352941 C6.26823529,2.62588235 3.64235294,4.69647059 2.74823529,6.98352941 C2.361318,8.12724651 2.24848329,9.34586145 2.41882353,10.5411765 C2.48181334,10.0946286 2.59224157,9.65607078 2.74823529,9.23294118 Z" id="_Path_15" fill="#FFFFFF" fill-rule="nonzero"></path>
            <path d="M29.2517647,12.2352941 C29.7537255,10.5142857 29.7537255,8.68571429 29.2517647,6.96470588 C28.3105882,4.67764706 25.7317647,2.60705882 23.9529412,3.28470588 C22.1741176,3.96235294 23.9529412,7.37882353 26.1552941,8.61176471 C27.5281315,9.4809958 28.6071928,10.7437271 29.2517647,12.2352941 Z" id="_Path_16" stroke="#45413C" stroke-linecap="round" stroke-linejoin="round"></path>
            <path d="M2.74823529,12.2352941 C2.24627451,10.5142857 2.24627451,8.68571429 2.74823529,6.96470588 C3.64235294,4.67764706 6.26823529,2.60705882 8.04705882,3.28470588 C9.82588235,3.96235294 8.04705882,7.37882353 5.84470588,8.61176471 C4.47186853,9.4809958 3.39280723,10.7437271 2.74823529,12.2352941 Z" id="_Path_17" stroke="#45413C" stroke-linecap="round" stroke-linejoin="round"></path>
            <path d="M11.8870588,9.65647059 C13.224742,9.28071119 14.6109247,9.10624883 16,9.13882353 C17.3890753,9.10624883 18.775258,9.28071119 20.1129412,9.65647059" id="_Path_18" stroke="#45413C" stroke-linecap="round" stroke-linejoin="round"></path>
            <path d="M12.4329412,7.52941176 C13.6021375,7.25879662 14.8000712,7.13236562 16,7.15294118 C17.199543,7.12928028 18.3974718,7.25254999 19.5670588,7.52" id="_Path_19" stroke="#45413C" stroke-linecap="round" stroke-linejoin="round"></path>
        </g>
    </g>
</svg>