<?xml version="1.0" encoding="UTF-8"?>
<svg width="31px" height="34px" viewBox="0 0 31 34" version="1.1" xmlns="http://www.w3.org/2000/svg" xmlns:xlink="http://www.w3.org/1999/xlink">
    <!-- Generator: Sketch 50.2 (55047) - http://www.bohemiancoding.com/sketch -->
    <title>spelunker</title>
    <desc>Created with Sketch.</desc>
    <defs></defs>
    <g id="Page-1" stroke="none" stroke-width="1" fill="none" fill-rule="evenodd">
        <g id="Landmark-Card" transform="translate(-316.000000, -243.000000)">
            <g id="Group-3" transform="translate(296.000000, 216.000000)">
                <g id="spelunker" transform="translate(21.000000, 28.000000)">
                    <path d="M26.5833333,15.5 L26.5833333,12.6 C26.5833333,6.19448 21.1724167,1 14.5,1 C7.82758333,1 2.41666667,6.19448 2.41666667,12.6 L2.41666667,15.5 C1.08266667,15.5 0,16.53936 0,17.82 C0,19.10064 1.08266667,20.14 2.41666667,20.14 C2.46741667,20.14 2.51454167,20.1284 2.56529167,20.12492 C3.43529167,25.71148 8.439,30 14.5,30 C20.561,30 25.5647083,25.71148 26.4347083,20.12492 C26.4854583,20.1284 26.5325833,20.14 26.5833333,20.14 C27.9173333,20.14 29,19.10064 29,17.82 C29,16.53936 27.9173333,15.5 26.5833333,15.5" id="Fill-55" fill="#D18660"></path>
                    <path d="M26.5833333,15.5 L26.5833333,12.6 C26.5833333,6.19448 21.1724167,1 14.5,1 C7.82758333,1 2.41666667,6.19448 2.41666667,12.6 L2.41666667,15.5 C1.08266667,15.5 0,16.53936 0,17.82 C0,19.10064 1.08266667,20.14 2.41666667,20.14 C2.46741667,20.14 2.51454167,20.1284 2.56529167,20.12492 C3.43529167,25.71148 8.439,30 14.5,30 C20.561,30 25.5647083,25.71148 26.4347083,20.12492 C26.4854583,20.1284 26.5325833,20.14 26.5833333,20.14 C27.9173333,20.14 29,19.10064 29,17.82 C29,16.53936 27.9173333,15.5 26.5833333,15.5 Z" id="Stroke-56" stroke="#45413C" stroke-linecap="round" stroke-linejoin="round"></path>
                    <path d="M9,20.5 C9,21.328 8.328,22 7.5,22 C6.672,22 6,21.328 6,20.5 C6,19.672 6.672,19 7.5,19 C8.328,19 9,19.672 9,20.5" id="Fill-57" fill="#BD704A"></path>
                    <path d="M19,20.5 C19,21.328 19.672,22 20.5,22 C21.328,22 22,21.328 22,20.5 C22,19.672 21.328,19 20.5,19 C19.672,19 19,19.672 19,20.5" id="Fill-58" fill="#BD704A"></path>
                    <ellipse id="Oval-2" stroke="#45413C" cx="20.5" cy="16.5" rx="4.5" ry="3.5"></ellipse>
                    <ellipse id="Oval-2-Copy" stroke="#45413C" cx="8.5" cy="16.5" rx="4.5" ry="3.5"></ellipse>
                    <path d="M14.4947702,22.2379049 C15.7315002,22.2379049 18.3351307,22.3857961 18.957543,22.7664631 C19.153568,22.8863518 20.9597523,25.0197544 22.5863472,24.26637 C23.9444158,23.637358 25.5644161,21.3303065 26.2609393,21.3303065 C27.0421011,21.3303065 25.2826987,28.9561673 23.5371313,29.7223105 C20.6558153,30.9869427 16.9585904,32.4425981 14.4947702,32.4425981 C12.0670589,32.4425981 8.28209055,30.9869427 6.08681437,29.7223105 C3.89153818,28.4576783 1.91567606,21.8131784 2.94792345,20.9323119 C3.36767857,20.5741146 4.38478241,23.8019197 6.62457489,24.587208 C7.21250645,24.7933413 8.33970884,24.1864263 10.0061821,22.7664631 C12.1740875,22.4140909 13.6702836,22.2379049 14.4947702,22.2379049 Z" id="Path-2" stroke="#45413C" fill="#9B9B9B"></path>
                    <path d="M18,24 C16.9371667,24.6630884 15.718,25 14.5,25 C13.282,25 12.0628333,24.6630884 11,24" id="Stroke-59" stroke="#45413C" stroke-linecap="round" stroke-linejoin="round"></path>
                    <path d="M11,17 C10.5866667,16.411 9.86666667,16 9,16 C8.13333333,16 7.41333333,16.411 7,17" id="Stroke-60" stroke="#45413C" stroke-linecap="round" stroke-linejoin="round"></path>
                    <path d="M22,17 C21.5866667,16.411 20.8666667,16 20,16 C19.1333333,16 18.4133333,16.411 18,17" id="Stroke-61" stroke="#45413C" stroke-linecap="round" stroke-linejoin="round"></path>
                    <path d="M5.0436866,5.29987449 C7.16922181,5.29987449 10.2064487,7.81103065 14.368198,7.81103065 C18.5299473,7.81103065 21.3481834,5.29433042 23.6800812,5.29987449 C26.0119791,5.30541856 20.3079,0.236642251 14.368198,0.236642251 C8.42849594,0.236642251 2.91815138,5.29987449 5.0436866,5.29987449 Z" id="Path-3" stroke="#45413C" fill="#9B9B9B"></path>
                    <path d="M13.2551676,16.1765185 L15.8180035,16.1765185" id="Path-4" stroke="#45413C"></path>
                </g>
            </g>
        </g>
    </g>
</svg>