<?xml version="1.0" encoding="UTF-8"?>
<svg width="34px" height="38px" viewBox="0 0 34 38" version="1.1" xmlns="http://www.w3.org/2000/svg" xmlns:xlink="http://www.w3.org/1999/xlink">
    <!-- Generator: Sketch 50.2 (55047) - http://www.bohemiancoding.com/sketch -->
    <title>person1</title>
    <desc>Created with Sketch.</desc>
    <defs></defs>
    <g id="Characters" stroke="none" stroke-width="1" fill="none" fill-rule="evenodd">
        <g id="person1" transform="translate(1.000000, 1.000000)">
            <path d="M29.3333333,17.1034483 L29.3333333,13.9034483 C29.3333333,6.83528828 23.3626667,1.10344828 16,1.10344828 C8.63733333,1.10344828 2.66666667,6.83528828 2.66666667,13.9034483 L2.66666667,17.1034483 C1.19466667,17.1034483 0,18.2503283 0,19.6634483 C0,21.0765683 1.19466667,22.2234483 2.66666667,22.2234483 C2.72266667,22.2234483 2.77466667,22.2106483 2.83066667,22.2068083 C3.79066667,28.3712883 9.312,33.1034483 16,33.1034483 C22.688,33.1034483 28.2093333,28.3712883 29.1693333,22.2068083 C29.2253333,22.2106483 29.2773333,22.2234483 29.3333333,22.2234483 C30.8053333,22.2234483 32,21.0765683 32,19.6634483 C32,18.2503283 30.8053333,17.1034483 29.3333333,17.1034483" id="Fill-55" fill="#D18660"></path>
            <path d="M29.3333333,17.1034483 L29.3333333,13.9034483 C29.3333333,6.83528828 23.3626667,1.10344828 16,1.10344828 C8.63733333,1.10344828 2.66666667,6.83528828 2.66666667,13.9034483 L2.66666667,17.1034483 C1.19466667,17.1034483 0,18.2503283 0,19.6634483 C0,21.0765683 1.19466667,22.2234483 2.66666667,22.2234483 C2.72266667,22.2234483 2.77466667,22.2106483 2.83066667,22.2068083 C3.79066667,28.3712883 9.312,33.1034483 16,33.1034483 C22.688,33.1034483 28.2093333,28.3712883 29.1693333,22.2068083 C29.2253333,22.2106483 29.2773333,22.2234483 29.3333333,22.2234483 C30.8053333,22.2234483 32,21.0765683 32,19.6634483 C32,18.2503283 30.8053333,17.1034483 29.3333333,17.1034483 Z" id="Stroke-56" stroke="#45413C" stroke-linecap="round" stroke-linejoin="round"></path>
            <path d="M9.93103448,22.6206897 C9.93103448,23.5343448 9.18951724,24.2758621 8.27586207,24.2758621 C7.3622069,24.2758621 6.62068966,23.5343448 6.62068966,22.6206897 C6.62068966,21.7070345 7.3622069,20.9655172 8.27586207,20.9655172 C9.18951724,20.9655172 9.93103448,21.7070345 9.93103448,22.6206897" id="Fill-57" fill="#BD704A"></path>
            <path d="M20.9655172,22.6206897 C20.9655172,23.5343448 21.7070345,24.2758621 22.6206897,24.2758621 C23.5343448,24.2758621 24.2758621,23.5343448 24.2758621,22.6206897 C24.2758621,21.7070345 23.5343448,20.9655172 22.6206897,20.9655172 C21.7070345,20.9655172 20.9655172,21.7070345 20.9655172,22.6206897" id="Fill-58" fill="#BD704A"></path>
            <path d="M15.9942292,24.5383778 C17.3588968,24.5383778 20.2318684,24.7015682 20.9186681,25.1216144 C21.1349716,25.2539055 23.1280026,27.6080048 24.9228658,26.7766841 C26.4214243,26.0826019 28.2090109,23.53689 28.9775882,23.53689 C29.8395598,23.53689 27.8981503,31.9516329 25.972007,32.7970323 C22.7926238,34.1924885 18.7129273,35.798729 15.9942292,35.798729 C13.3153753,35.798729 9.13885854,34.1924885 6.71648482,32.7970323 C4.2941111,31.401576 2.11384945,24.0697141 3.25288105,23.0977235 C3.71605911,22.7024713 4.83838059,26.2641872 7.30987574,27.1307123 C7.9586278,27.3581697 9.20243734,26.6884704 11.0413044,25.1216144 C13.4334759,24.73279 15.0844508,24.5383778 15.9942292,24.5383778 Z" id="Path-2" stroke="#45413C" fill="#9B9B9B"></path>
            <path d="M19.862069,26.4827586 C18.6892874,27.2144423 17.344,27.5862069 16,27.5862069 C14.656,27.5862069 13.3107126,27.2144423 12.137931,26.4827586" id="Stroke-59" stroke="#45413C" stroke-linecap="round" stroke-linejoin="round"></path>
            <path d="M12.137931,18.7586207 C11.6818391,18.1086897 10.8873563,17.6551724 9.93103448,17.6551724 C8.97471264,17.6551724 8.18022989,18.1086897 7.72413793,18.7586207" id="Stroke-60" stroke="#45413C" stroke-linecap="round" stroke-linejoin="round"></path>
            <path d="M24.2758621,18.7586207 C23.8197701,18.1086897 23.0252874,17.6551724 22.0689655,17.6551724 C21.1126437,17.6551724 20.3181609,18.1086897 19.862069,18.7586207" id="Stroke-61" stroke="#45413C" stroke-linecap="round" stroke-linejoin="round"></path>
            <path d="M5.56544728,5.84813737 C7.91086545,5.84813737 11.2622882,8.6190683 15.8545633,8.6190683 C20.4468384,8.6190683 23.5566161,5.84201978 26.1297448,5.84813737 C28.7028735,5.85425497 22.4087173,0.261122484 15.8545633,0.261122484 C9.30040931,0.261122484 3.22002911,5.84813737 5.56544728,5.84813737 Z" id="Path-3" stroke="#45413C" fill="#9B9B9B"></path>
            <g id="Group" transform="translate(4.000000, 14.000000)" stroke="#45413C">
                <ellipse id="Oval-2" cx="18.6206897" cy="4.20689655" rx="4.96551724" ry="3.86206897"></ellipse>
                <ellipse id="Oval-2-Copy" cx="5.37931034" cy="4.20689655" rx="4.96551724" ry="3.86206897"></ellipse>
                <path d="M10.6263919,3.84995139 L13.4543487,3.84995139" id="Path-4"></path>
            </g>
        </g>
    </g>
</svg>